<?xml version="1.0" encoding="utf-8"?>
<!-- Generator: Adobe Illustrator 25.0.0, SVG Export Plug-In . SVG Version: 6.00 Build 0)  -->
<svg version="1.1" id="Layer_1" xmlns="http://www.w3.org/2000/svg" xmlns:xlink="http://www.w3.org/1999/xlink" x="0px" y="0px"
	 viewBox="0 0 288 270" style="enable-background:new 0 0 288 270;" xml:space="preserve">
<style type="text/css">
	.st0{fill:url(#SVGID_1_);}
	.st1{fill:url(#SVGID_2_);}
	.st2{fill:url(#SVGID_3_);}
	.st3{fill:url(#SVGID_4_);}
	.st4{fill:#1D516F;}
	.st5{fill:#247EA9;}
</style>
<g>
	<linearGradient id="SVGID_1_" gradientUnits="userSpaceOnUse" x1="82.377" y1="124.5038" x2="121.0713" y2="124.5038">
		<stop  offset="0" style="stop-color:#247EA9"/>
		<stop  offset="0.2863" style="stop-color:#247CA6"/>
		<stop  offset="0.4655" style="stop-color:#24749C"/>
		<stop  offset="0.6152" style="stop-color:#22698D"/>
		<stop  offset="0.748" style="stop-color:#1F5A7A"/>
		<stop  offset="0.8102" style="stop-color:#1D516F"/>
	</linearGradient>
	<polygon class="st0" points="116.566,145.227 82.377,107.908 86.882,103.78 121.071,141.1 	"/>
	<linearGradient id="SVGID_2_" gradientUnits="userSpaceOnUse" x1="187.6644" y1="208.1637" x2="222.7626" y2="208.1637">
		<stop  offset="0.2404" style="stop-color:#1D516F"/>
		<stop  offset="0.2808" style="stop-color:#1E5776"/>
		<stop  offset="0.4262" style="stop-color:#22678B"/>
		<stop  offset="0.5839" style="stop-color:#24739B"/>
		<stop  offset="0.7613" style="stop-color:#247BA5"/>
		<stop  offset="1" style="stop-color:#247EA9"/>
	</linearGradient>
	<polygon class="st1" points="218.442,225.713 187.664,194.935 191.985,190.614 222.763,221.392 	"/>
	<linearGradient id="SVGID_3_" gradientUnits="userSpaceOnUse" x1="64.7224" y1="208.2336" x2="98.7045" y2="208.2336">
		<stop  offset="0" style="stop-color:#247EA9"/>
		<stop  offset="0.2543" style="stop-color:#247BA6"/>
		<stop  offset="0.4301" style="stop-color:#24749B"/>
		<stop  offset="0.5823" style="stop-color:#22688C"/>
		<stop  offset="0.7203" style="stop-color:#1F5878"/>
		<stop  offset="0.7704" style="stop-color:#1D516F"/>
	</linearGradient>
	<polygon class="st2" points="69.043,225.225 98.705,195.563 94.384,191.242 64.722,220.904 	"/>
	<linearGradient id="SVGID_4_" gradientUnits="userSpaceOnUse" x1="166.3403" y1="124.5038" x2="206.4488" y2="124.5038">
		<stop  offset="0.1682" style="stop-color:#1D516F"/>
		<stop  offset="0.1998" style="stop-color:#1E5573"/>
		<stop  offset="0.3702" style="stop-color:#226689"/>
		<stop  offset="0.5518" style="stop-color:#24739A"/>
		<stop  offset="0.7507" style="stop-color:#247BA5"/>
		<stop  offset="1" style="stop-color:#247EA9"/>
	</linearGradient>
	<polygon class="st3" points="170.661,144.558 206.449,108.77 202.128,104.449 166.34,140.238 	"/>
	<path class="st4" d="M191.415,188.897c1.848,0,3.717,0,5.669,0c0,2.641,0,5.168,0,7.782c-35.531,0-71.084,0-106.714,0
		c0-2.53,0-5.06,0-7.752c2.06,0,4.128,0,6.205,0c0-1.061,0-1.96,0-2.859c0-13.791,0-27.582,0-41.373c0-3.273,1.382-4.66,4.644-4.661
		c6.145-0.002,12.29-0.001,18.434-0.001c0.374,0,0.747,0,1.238,0c0,0.53,0,0.939,0,1.348c0,14.838,0,29.677,0,44.515
		c0,0.314-0.024,0.631,0.004,0.942c0.191,2.135,0.013,2.328,2.583,1.929c0-20.177,0.03-40.35-0.034-60.523
		c-0.009-2.866,1.663-4.64,4.616-4.611c10.578,0.104,21.157,0.04,31.736,0.041c2.707,0,4.195,1.494,4.195,4.214
		c0.001,19.796,0,39.592,0,59.388c0,0.485,0,0.97,0,1.636c0.537,0,1.092,0.07,1.617-0.027c0.289-0.054,0.702-0.35,0.755-0.601
		c0.158-0.743,0.221-1.517,0.222-2.279c0.011-14.873,0.008-29.747,0.008-44.62c0-0.409,0-0.818,0-1.352c0.488,0,0.861,0,1.234,0
		c6.319,0,12.639-0.002,18.958,0.001c3.236,0.002,4.628,1.415,4.628,4.684c0,13.791,0,27.582,0,41.373
		C191.415,186.961,191.415,187.831,191.415,188.897z M130.495,138.659c-0.002,7.331,5.908,13.269,13.214,13.275
		c7.342,0.007,13.399-6.044,13.328-13.314c-0.071-7.297-6.065-13.26-13.315-13.244C136.432,125.393,130.497,131.353,130.495,138.659
		z M152.028,168.998c-5.279,0-10.49,0-15.703,0c0,6.579,0,13.083,0,19.602c5.27,0,10.456,0,15.703,0
		C152.028,182.06,152.028,175.581,152.028,168.998z M177.981,164.018c0-1.781,0-3.502,0-5.244c-1.791,0-3.511,0-5.222,0
		c0,1.805,0,3.528,0,5.244C174.542,164.018,176.24,164.018,177.981,164.018z M181.137,163.986c1.832,0,3.553,0,5.258,0
		c0-1.789,0-3.485,0-5.217c-1.781,0-3.498,0-5.258,0C181.137,160.541,181.137,162.238,181.137,163.986z M177.959,173.464
		c0-1.736,0-3.475,0-5.226c-1.784,0-3.502,0-5.227,0c0,1.777,0,3.47,0,5.226C174.482,173.464,176.174,173.464,177.959,173.464z
		 M181.175,149.577c0,1.821,0,3.536,0,5.223c1.802,0,3.519,0,5.22,0c0-1.786,0-3.477,0-5.223
		C184.644,149.577,182.953,149.577,181.175,149.577z M186.399,168.157c-1.634,0-3.192-0.016-4.748,0.02
		c-0.187,0.004-0.523,0.285-0.527,0.444c-0.039,1.615-0.024,3.231-0.024,4.842c1.865,0,3.554,0,5.3,0
		C186.399,171.712,186.399,170.021,186.399,168.157z M172.759,149.582c0,1.818,0,3.533,0,5.217c1.804,0,3.52,0,5.222,0
		c0-1.783,0-3.47,0-5.217C176.223,149.582,174.534,149.582,172.759,149.582z M102.61,173.452c1.826,0,3.519,0,5.252,0
		c0-1.772,0-3.469,0-5.22c-1.77,0-3.489,0-5.252,0C102.61,170.004,102.61,171.699,102.61,173.452z M107.839,164.032
		c0-1.799,0-3.52,0-5.275c-1.764,0-3.455,0-5.18,0c0,1.786,0,3.508,0,5.275C104.397,164.032,106.061,164.032,107.839,164.032z
		 M111.057,163.99c1.771,0,3.487,0,5.196,0c0-1.787,0-3.485,0-5.24c-1.751,0-3.442,0-5.196,0
		C111.057,160.524,111.057,162.246,111.057,163.99z M111.06,173.472c1.751,0,3.438,0,5.189,0c0-1.773,0-3.491,0-5.262
		c-1.751,0-3.441,0-5.189,0C111.06,169.983,111.06,171.701,111.06,173.472z M102.674,149.622c0,1.776,0,3.489,0,5.196
		c1.777,0,3.466,0,5.17,0c0-1.767,0-3.458,0-5.196C106.088,149.622,104.4,149.622,102.674,149.622z M111.075,149.617
		c0,1.772,0,3.489,0,5.206c1.772,0,3.463,0,5.176,0c0-1.764,0-3.457,0-5.206C114.499,149.617,112.809,149.617,111.075,149.617z
		 M135.176,143.745v-11.451c0-1.457,1.181-2.638,2.638-2.638h3.848v10.626C141.535,143.469,138.07,144.416,135.176,143.745z
		 M152.618,135.617c-2.247-0.735-3.61,0.222-4.039,1.273c-1.284,2.396,3.432,4.671,4.597,6.929v-8.016
		C152.91,135.709,152.618,135.617,152.618,135.617z M141.532,147.118l1.239-1.502c1.049,1.256,1.815,1.812,2.634,2.04h4.688
		c2.607-1.734-0.069-3.911-1.195-5.015c-5.602-4.121-2.247-11.263,4.278-9.224v-1.122c0-1.457-1.181-2.638-2.638-2.638h-6.178
		c-0.003,1.166-0.017,6.833-0.007,10.242c0.008,2.729-0.813,4.32-3.521,5.676c-1.357,0.679-3.26,0.82-5.442,0.484
		c0.404,0.94,1.337,1.598,2.425,1.598h4.17C141.824,147.466,141.649,147.269,141.532,147.118z"/>
	<path class="st5" d="M92.242,108.483c1.44,0,2.897,0,4.418,0c0,2.058,0,4.027,0,6.064c-27.689,0-55.394,0-83.16,0
		c0-1.972,0-3.943,0-6.041c1.605,0,3.217,0,4.835,0c0-0.827,0-1.528,0-2.228c0-10.747,0-21.494,0-32.241
		c0-2.55,1.077-3.632,3.619-3.632c4.788-0.002,9.577,0,14.365,0c0.291,0,0.582,0,0.965,0c0,0.413,0,0.732,0,1.05
		c0,11.563,0,23.126,0,34.689c0,0.245-0.018,0.491,0.003,0.734c0.149,1.664,0.01,1.814,2.013,1.503
		c0-15.723,0.023-31.444-0.026-47.164c-0.007-2.233,1.296-3.616,3.597-3.594c8.243,0.081,16.487,0.031,24.731,0.032
		c2.109,0,3.269,1.165,3.269,3.284c0.001,15.427,0,30.853,0,46.28c0,0.378,0,0.756,0,1.275c0.418,0,0.851,0.054,1.26-0.021
		c0.225-0.042,0.547-0.273,0.588-0.468c0.123-0.579,0.172-1.182,0.173-1.776c0.009-11.59,0.007-23.181,0.007-34.771
		c0-0.319,0-0.637,0-1.054c0.38,0,0.671,0,0.962,0c4.925,0,9.849-0.002,14.774,0.001c2.521,0.001,3.607,1.103,3.607,3.65
		c0,10.747,0,21.494,0,32.241C92.242,106.974,92.242,107.653,92.242,108.483z M44.768,69.334
		c-0.002,5.713,4.604,10.34,10.297,10.345c5.722,0.005,10.441-4.71,10.386-10.375c-0.055-5.687-4.726-10.333-10.376-10.32
		C49.395,58.996,44.77,63.64,44.768,69.334z M61.548,92.976c-4.114,0-8.174,0-12.237,0c0,5.127,0,10.195,0,15.275
		c4.107,0,8.148,0,12.237,0C61.548,103.155,61.548,98.106,61.548,92.976z M81.773,89.095c0-1.388,0-2.729,0-4.087
		c-1.396,0-2.736,0-4.07,0c0,1.407,0,2.75,0,4.087C79.093,89.095,80.416,89.095,81.773,89.095z M84.232,89.07
		c1.428,0,2.769,0,4.097,0c0-1.394,0-2.716,0-4.066c-1.388,0-2.726,0-4.097,0C84.232,86.386,84.232,87.708,84.232,89.07z
		 M81.756,96.457c0-1.353,0-2.708,0-4.072c-1.39,0-2.729,0-4.073,0c0,1.385,0,2.704,0,4.072
		C79.046,96.457,80.365,96.457,81.756,96.457z M84.262,77.842c0,1.419,0,2.756,0,4.07c1.404,0,2.742,0,4.068,0
		c0-1.392,0-2.71,0-4.07C86.965,77.842,85.647,77.842,84.262,77.842z M88.332,92.321c-1.273,0-2.487-0.012-3.7,0.016
		c-0.146,0.003-0.408,0.222-0.411,0.346c-0.031,1.258-0.019,2.518-0.019,3.773c1.453,0,2.769,0,4.13,0
		C88.332,95.091,88.332,93.774,88.332,92.321z M77.704,77.846c0,1.417,0,2.754,0,4.065c1.406,0,2.743,0,4.07,0
		c0-1.389,0-2.704,0-4.065C80.403,77.846,79.087,77.846,77.704,77.846z M23.038,96.447c1.423,0,2.742,0,4.093,0
		c0-1.381,0-2.703,0-4.068c-1.379,0-2.719,0-4.093,0C23.038,93.76,23.038,95.081,23.038,96.447z M27.113,89.106
		c0-1.402,0-2.743,0-4.11c-1.374,0-2.692,0-4.036,0c0,1.392,0,2.734,0,4.11C24.431,89.106,25.728,89.106,27.113,89.106z
		 M29.621,89.074c1.38,0,2.717,0,4.049,0c0-1.393,0-2.716,0-4.083c-1.364,0-2.683,0-4.049,0
		C29.621,86.373,29.621,87.715,29.621,89.074z M29.623,96.463c1.365,0,2.679,0,4.043,0c0-1.382,0-2.72,0-4.101
		c-1.364,0-2.682,0-4.043,0C29.623,93.744,29.623,95.083,29.623,96.463z M23.088,77.877c0,1.384,0,2.719,0,4.049
		c1.385,0,2.701,0,4.029,0c0-1.377,0-2.694,0-4.049C25.749,77.877,24.433,77.877,23.088,77.877z M29.635,77.873
		c0,1.381,0,2.719,0,4.057c1.381,0,2.698,0,4.033,0c0-1.375,0-2.694,0-4.057C32.303,77.873,30.986,77.873,29.635,77.873z
		 M47.91,73.403v-9.161c0-1.166,0.945-2.11,2.11-2.11h3.078v8.501C52.997,73.182,50.225,73.94,47.91,73.403z M61.863,66.901
		c-1.798-0.588-2.888,0.178-3.231,1.018c-1.027,1.917,2.745,3.737,3.678,5.543v-6.413C62.097,66.974,61.863,66.901,61.863,66.901z
		 M52.995,76.101l0.991-1.202c0.839,1.005,1.452,1.45,2.107,1.632h3.75c2.086-1.387-0.055-3.129-0.956-4.012
		c-4.481-3.297-1.797-9.01,3.423-7.379v-0.898c0-1.166-0.945-2.11-2.11-2.11h-4.943c-0.002,0.933-0.014,5.466-0.006,8.194
		c0.006,2.183-0.65,3.456-2.816,4.541c-1.085,0.543-2.608,0.656-4.354,0.387c0.323,0.752,1.07,1.278,1.94,1.278h3.336
		C53.228,76.38,53.089,76.222,52.995,76.101z"/>
	<path class="st5" d="M92.242,256.062c1.44,0,2.897,0,4.418,0c0,2.058,0,4.027,0,6.064c-27.689,0-55.394,0-83.16,0
		c0-1.972,0-3.943,0-6.041c1.605,0,3.217,0,4.835,0c0-0.827,0-1.528,0-2.228c0-10.747,0-21.494,0-32.241
		c0-2.55,1.077-3.632,3.619-3.632c4.788-0.002,9.577,0,14.365,0c0.291,0,0.582,0,0.965,0c0,0.413,0,0.732,0,1.05
		c0,11.563,0,23.126,0,34.689c0,0.245-0.018,0.491,0.003,0.734c0.149,1.664,0.01,1.814,2.013,1.503
		c0-15.723,0.023-31.444-0.026-47.164c-0.007-2.233,1.296-3.616,3.597-3.594c8.243,0.081,16.487,0.031,24.731,0.032
		c2.109,0,3.269,1.165,3.269,3.284c0.001,15.427,0,30.853,0,46.28c0,0.378,0,0.756,0,1.275c0.418,0,0.851,0.054,1.26-0.021
		c0.225-0.042,0.547-0.273,0.588-0.468c0.123-0.579,0.172-1.182,0.173-1.776c0.009-11.59,0.007-23.181,0.007-34.771
		c0-0.319,0-0.637,0-1.054c0.38,0,0.671,0,0.962,0c4.925,0,9.849-0.002,14.774,0.001c2.521,0.001,3.607,1.103,3.607,3.65
		c0,10.747,0,21.494,0,32.241C92.242,254.553,92.242,255.232,92.242,256.062z M44.768,216.913
		c-0.002,5.713,4.604,10.34,10.297,10.345c5.722,0.005,10.441-4.71,10.386-10.375c-0.055-5.687-4.726-10.333-10.376-10.32
		C49.395,206.575,44.77,211.22,44.768,216.913z M61.548,240.555c-4.114,0-8.174,0-12.237,0c0,5.127,0,10.195,0,15.275
		c4.107,0,8.148,0,12.237,0C61.548,250.734,61.548,245.685,61.548,240.555z M81.773,236.675c0-1.388,0-2.729,0-4.087
		c-1.396,0-2.736,0-4.07,0c0,1.407,0,2.75,0,4.087C79.093,236.675,80.416,236.675,81.773,236.675z M84.232,236.649
		c1.428,0,2.769,0,4.097,0c0-1.394,0-2.716,0-4.066c-1.388,0-2.726,0-4.097,0C84.232,233.965,84.232,235.288,84.232,236.649z
		 M81.756,244.036c0-1.352,0-2.708,0-4.072c-1.39,0-2.729,0-4.073,0c0,1.385,0,2.704,0,4.072
		C79.046,244.036,80.365,244.036,81.756,244.036z M84.262,225.421c0,1.419,0,2.756,0,4.07c1.404,0,2.742,0,4.068,0
		c0-1.392,0-2.71,0-4.07C86.965,225.421,85.647,225.421,84.262,225.421z M88.332,239.9c-1.273,0-2.487-0.012-3.7,0.016
		c-0.146,0.003-0.408,0.222-0.411,0.346c-0.031,1.258-0.019,2.518-0.019,3.773c1.453,0,2.769,0,4.13,0
		C88.332,242.67,88.332,241.353,88.332,239.9z M77.704,225.425c0,1.417,0,2.754,0,4.065c1.406,0,2.743,0,4.07,0
		c0-1.389,0-2.704,0-4.065C80.403,225.425,79.087,225.425,77.704,225.425z M23.038,244.026c1.423,0,2.742,0,4.093,0
		c0-1.381,0-2.703,0-4.068c-1.379,0-2.719,0-4.093,0C23.038,241.339,23.038,242.66,23.038,244.026z M27.113,236.685
		c0-1.402,0-2.743,0-4.11c-1.374,0-2.692,0-4.036,0c0,1.392,0,2.734,0,4.11C24.431,236.685,25.728,236.685,27.113,236.685z
		 M29.621,236.653c1.38,0,2.717,0,4.049,0c0-1.393,0-2.716,0-4.083c-1.364,0-2.683,0-4.049,0
		C29.621,233.952,29.621,235.294,29.621,236.653z M29.623,244.042c1.365,0,2.679,0,4.043,0c0-1.382,0-2.72,0-4.101
		c-1.364,0-2.682,0-4.043,0C29.623,241.323,29.623,242.662,29.623,244.042z M23.088,225.456c0,1.384,0,2.719,0,4.049
		c1.385,0,2.701,0,4.029,0c0-1.377,0-2.694,0-4.049C25.749,225.456,24.433,225.456,23.088,225.456z M29.635,225.452
		c0,1.381,0,2.719,0,4.057c1.381,0,2.698,0,4.033,0c0-1.375,0-2.694,0-4.057C32.303,225.452,30.986,225.452,29.635,225.452z
		 M47.88,220.982v-9.161c0-1.166,0.945-2.11,2.11-2.11h3.078v8.501C52.967,220.761,50.195,221.519,47.88,220.982z M61.833,214.48
		c-1.798-0.588-2.888,0.178-3.231,1.018c-1.027,1.917,2.745,3.737,3.678,5.543v-6.413C62.067,214.553,61.833,214.48,61.833,214.48z
		 M52.965,223.681l0.991-1.202c0.839,1.005,1.452,1.45,2.107,1.632h3.75c2.086-1.387-0.055-3.129-0.956-4.012
		c-4.481-3.297-1.797-9.01,3.423-7.379v-0.898c0-1.166-0.945-2.11-2.11-2.11h-4.943c-0.002,0.933-0.014,5.466-0.006,8.194
		c0.006,2.183-0.65,3.456-2.816,4.541c-1.085,0.543-2.608,0.656-4.354,0.387c0.323,0.752,1.07,1.278,1.94,1.278h3.336
		C53.198,223.959,53.058,223.801,52.965,223.681z"/>
	<path class="st5" d="M270.082,108.483c1.44,0,2.897,0,4.418,0c0,2.058,0,4.027,0,6.064c-27.689,0-55.394,0-83.16,0
		c0-1.972,0-3.943,0-6.041c1.605,0,3.217,0,4.835,0c0-0.827,0-1.528,0-2.228c0-10.747,0-21.494,0-32.241
		c0-2.55,1.077-3.632,3.619-3.632c4.788-0.002,9.577,0,14.365,0c0.291,0,0.582,0,0.965,0c0,0.413,0,0.732,0,1.05
		c0,11.563,0,23.126,0,34.689c0,0.245-0.018,0.491,0.003,0.734c0.149,1.664,0.01,1.814,2.013,1.503
		c0-15.723,0.023-31.444-0.026-47.164c-0.007-2.233,1.296-3.616,3.597-3.594c8.243,0.081,16.487,0.031,24.731,0.032
		c2.109,0,3.269,1.165,3.269,3.284c0.001,15.427,0,30.853,0,46.28c0,0.378,0,0.756,0,1.275c0.418,0,0.851,0.054,1.26-0.021
		c0.225-0.042,0.547-0.273,0.588-0.468c0.123-0.579,0.172-1.182,0.173-1.776c0.009-11.59,0.007-23.181,0.007-34.771
		c0-0.319,0-0.637,0-1.054c0.38,0,0.671,0,0.962,0c4.925,0,9.849-0.002,14.774,0.001c2.521,0.001,3.607,1.103,3.607,3.65
		c0,10.747,0,21.494,0,32.241C270.082,106.974,270.082,107.653,270.082,108.483z M222.608,69.334
		c-0.002,5.713,4.604,10.34,10.297,10.345c5.722,0.005,10.441-4.71,10.386-10.375c-0.055-5.687-4.726-10.333-10.376-10.32
		C227.235,58.996,222.61,63.64,222.608,69.334z M239.389,92.976c-4.114,0-8.174,0-12.237,0c0,5.127,0,10.195,0,15.275
		c4.107,0,8.148,0,12.237,0C239.389,103.155,239.389,98.106,239.389,92.976z M259.613,89.095c0-1.388,0-2.729,0-4.087
		c-1.396,0-2.736,0-4.07,0c0,1.407,0,2.75,0,4.087C256.934,89.095,258.256,89.095,259.613,89.095z M262.072,89.07
		c1.428,0,2.769,0,4.097,0c0-1.394,0-2.716,0-4.066c-1.388,0-2.726,0-4.097,0C262.072,86.386,262.072,87.708,262.072,89.07z
		 M259.596,96.457c0-1.353,0-2.708,0-4.072c-1.39,0-2.729,0-4.073,0c0,1.385,0,2.704,0,4.072
		C256.887,96.457,258.205,96.457,259.596,96.457z M262.102,77.842c0,1.419,0,2.756,0,4.07c1.404,0,2.742,0,4.068,0
		c0-1.392,0-2.71,0-4.07C264.805,77.842,263.488,77.842,262.102,77.842z M266.173,92.321c-1.273,0-2.487-0.012-3.7,0.016
		c-0.146,0.003-0.408,0.222-0.411,0.346c-0.031,1.258-0.019,2.518-0.019,3.773c1.453,0,2.769,0,4.13,0
		C266.173,95.091,266.173,93.774,266.173,92.321z M255.544,77.846c0,1.417,0,2.754,0,4.065c1.406,0,2.743,0,4.07,0
		c0-1.389,0-2.704,0-4.065C258.244,77.846,256.927,77.846,255.544,77.846z M200.879,96.447c1.423,0,2.742,0,4.093,0
		c0-1.381,0-2.703,0-4.068c-1.379,0-2.719,0-4.093,0C200.879,93.76,200.879,95.081,200.879,96.447z M204.954,89.106
		c0-1.402,0-2.743,0-4.11c-1.374,0-2.692,0-4.036,0c0,1.392,0,2.734,0,4.11C202.271,89.106,203.568,89.106,204.954,89.106z
		 M207.461,89.074c1.38,0,2.717,0,4.049,0c0-1.393,0-2.716,0-4.083c-1.364,0-2.683,0-4.049,0
		C207.461,86.373,207.461,87.715,207.461,89.074z M207.463,96.463c1.365,0,2.679,0,4.043,0c0-1.382,0-2.72,0-4.101
		c-1.364,0-2.682,0-4.043,0C207.463,93.744,207.463,95.083,207.463,96.463z M200.928,77.877c0,1.384,0,2.719,0,4.049
		c1.385,0,2.701,0,4.029,0c0-1.377,0-2.694,0-4.049C203.589,77.877,202.274,77.877,200.928,77.877z M207.475,77.873
		c0,1.381,0,2.719,0,4.057c1.381,0,2.698,0,4.033,0c0-1.375,0-2.694,0-4.057C210.144,77.873,208.827,77.873,207.475,77.873z
		 M225.72,73.403v-9.161c0-1.166,0.945-2.11,2.11-2.11h3.078v8.501C230.807,73.182,228.035,73.94,225.72,73.403z M239.673,66.901
		c-1.798-0.588-2.888,0.178-3.231,1.018c-1.027,1.917,2.745,3.737,3.678,5.543v-6.413C239.907,66.974,239.673,66.901,239.673,66.901
		z M230.805,76.101l0.991-1.202c0.839,1.005,1.452,1.45,2.107,1.632h3.75c2.086-1.387-0.055-3.129-0.956-4.012
		c-4.481-3.297-1.797-9.01,3.423-7.379v-0.898c0-1.166-0.945-2.11-2.11-2.11h-4.943c-0.002,0.933-0.014,5.466-0.006,8.194
		c0.006,2.183-0.65,3.456-2.816,4.541c-1.085,0.543-2.608,0.656-4.354,0.387c0.323,0.752,1.07,1.278,1.94,1.278h3.336
		C231.038,76.38,230.899,76.222,230.805,76.101z"/>
	<path class="st5" d="M270.082,256.062c1.44,0,2.897,0,4.418,0c0,2.058,0,4.027,0,6.064c-27.689,0-55.394,0-83.16,0
		c0-1.972,0-3.943,0-6.041c1.605,0,3.217,0,4.835,0c0-0.827,0-1.528,0-2.228c0-10.747,0-21.494,0-32.241
		c0-2.55,1.077-3.632,3.619-3.632c4.788-0.002,9.577,0,14.365,0c0.291,0,0.582,0,0.965,0c0,0.413,0,0.732,0,1.05
		c0,11.563,0,23.126,0,34.689c0,0.245-0.018,0.491,0.003,0.734c0.149,1.664,0.01,1.814,2.013,1.503
		c0-15.723,0.023-31.444-0.026-47.164c-0.007-2.233,1.296-3.616,3.597-3.594c8.243,0.081,16.487,0.031,24.731,0.032
		c2.109,0,3.269,1.165,3.269,3.284c0.001,15.427,0,30.853,0,46.28c0,0.378,0,0.756,0,1.275c0.418,0,0.851,0.054,1.26-0.021
		c0.225-0.042,0.547-0.273,0.588-0.468c0.123-0.579,0.172-1.182,0.173-1.776c0.009-11.59,0.007-23.181,0.007-34.771
		c0-0.319,0-0.637,0-1.054c0.38,0,0.671,0,0.962,0c4.925,0,9.849-0.002,14.774,0.001c2.521,0.001,3.607,1.103,3.607,3.65
		c0,10.747,0,21.494,0,32.241C270.082,254.553,270.082,255.232,270.082,256.062z M222.608,216.913
		c-0.002,5.713,4.604,10.34,10.297,10.345c5.722,0.005,10.441-4.71,10.386-10.375c-0.055-5.687-4.726-10.333-10.376-10.32
		C227.235,206.575,222.61,211.22,222.608,216.913z M239.389,240.555c-4.114,0-8.174,0-12.237,0c0,5.127,0,10.195,0,15.275
		c4.107,0,8.148,0,12.237,0C239.389,250.734,239.389,245.685,239.389,240.555z M259.613,236.675c0-1.388,0-2.729,0-4.087
		c-1.396,0-2.736,0-4.07,0c0,1.407,0,2.75,0,4.087C256.934,236.675,258.256,236.675,259.613,236.675z M262.072,236.649
		c1.428,0,2.769,0,4.097,0c0-1.394,0-2.716,0-4.066c-1.388,0-2.726,0-4.097,0C262.072,233.965,262.072,235.288,262.072,236.649z
		 M259.596,244.036c0-1.352,0-2.708,0-4.072c-1.39,0-2.729,0-4.073,0c0,1.385,0,2.704,0,4.072
		C256.887,244.036,258.205,244.036,259.596,244.036z M262.102,225.421c0,1.419,0,2.756,0,4.07c1.404,0,2.742,0,4.068,0
		c0-1.392,0-2.71,0-4.07C264.805,225.421,263.488,225.421,262.102,225.421z M266.173,239.9c-1.273,0-2.487-0.012-3.7,0.016
		c-0.146,0.003-0.408,0.222-0.411,0.346c-0.031,1.258-0.019,2.518-0.019,3.773c1.453,0,2.769,0,4.13,0
		C266.173,242.67,266.173,241.353,266.173,239.9z M255.544,225.425c0,1.417,0,2.754,0,4.065c1.406,0,2.743,0,4.07,0
		c0-1.389,0-2.704,0-4.065C258.244,225.425,256.927,225.425,255.544,225.425z M200.879,244.026c1.423,0,2.742,0,4.093,0
		c0-1.381,0-2.703,0-4.068c-1.379,0-2.719,0-4.093,0C200.879,241.339,200.879,242.66,200.879,244.026z M204.954,236.685
		c0-1.402,0-2.743,0-4.11c-1.374,0-2.692,0-4.036,0c0,1.392,0,2.734,0,4.11C202.271,236.685,203.568,236.685,204.954,236.685z
		 M207.461,236.653c1.38,0,2.717,0,4.049,0c0-1.393,0-2.716,0-4.083c-1.364,0-2.683,0-4.049,0
		C207.461,233.952,207.461,235.294,207.461,236.653z M207.463,244.042c1.365,0,2.679,0,4.043,0c0-1.382,0-2.72,0-4.101
		c-1.364,0-2.682,0-4.043,0C207.463,241.323,207.463,242.662,207.463,244.042z M200.928,225.456c0,1.384,0,2.719,0,4.049
		c1.385,0,2.701,0,4.029,0c0-1.377,0-2.694,0-4.049C203.589,225.456,202.274,225.456,200.928,225.456z M207.475,225.452
		c0,1.381,0,2.719,0,4.057c1.381,0,2.698,0,4.033,0c0-1.375,0-2.694,0-4.057C210.144,225.452,208.827,225.452,207.475,225.452z
		 M225.72,221.015v-9.161c0-1.166,0.945-2.11,2.11-2.11h3.078v8.501C230.807,220.795,228.035,221.552,225.72,221.015z
		 M239.673,214.513c-1.798-0.588-2.888,0.178-3.231,1.018c-1.027,1.917,2.745,3.737,3.678,5.543v-6.413
		C239.907,214.586,239.673,214.513,239.673,214.513z M230.805,223.714l0.991-1.202c0.839,1.005,1.452,1.45,2.107,1.632h3.75
		c2.086-1.387-0.055-3.129-0.956-4.012c-4.481-3.297-1.797-9.01,3.423-7.379v-0.898c0-1.166-0.945-2.11-2.11-2.11h-4.943
		c-0.002,0.933-0.014,5.466-0.006,8.194c0.006,2.183-0.65,3.456-2.816,4.541c-1.085,0.543-2.608,0.656-4.354,0.387
		c0.323,0.752,1.07,1.278,1.94,1.278h3.336C231.038,223.992,230.899,223.834,230.805,223.714z"/>
</g>
</svg>
