<?xml version="1.0" encoding="utf-8"?>
<!-- Generator: Adobe Illustrator 25.0.1, SVG Export Plug-In . SVG Version: 6.00 Build 0)  -->
<svg version="1.1" id="Layer_1" xmlns="http://www.w3.org/2000/svg" xmlns:xlink="http://www.w3.org/1999/xlink" x="0px" y="0px"
	 viewBox="0 0 1787.555 497.835" style="enable-background:new 0 0 1787.555 497.835;" xml:space="preserve">
<style type="text/css">
	.st0{fill:#217EA9;}
	.st1{fill:#207EA9;}
	.st2{clip-path:url(#SVGID_2_);}
	.st3{fill:url(#SVGID_3_);}
</style>
<g>
	<path class="st0" d="M520.591,259.708h22.155v117.053c0,45.449-22.41,59.414-51.948,59.414c-8.149,0-18.08-1.777-23.683-4.063
		l3.31-18.028c4.584,1.777,11.205,3.301,18.59,3.301c19.863,0,31.577-8.887,31.577-42.404V262.247L520.591,259.708z
		 M690.441,372.921c0,45.449-31.577,63.254-61.37,63.254c-33.358,0-59.078-22.376-59.078-61.223
		c0-41.134,26.993-64.254,61.117-64.254C666.505,310.697,690.441,335.342,690.441,372.921z M592.656,374.19
		c0,26.915,15.534,45.227,37.433,45.227c21.391,0,37.433-18.059,37.433-45.734c0-20.821-10.44-46.228-36.924-46.228
		S592.656,350.83,592.656,374.19z M743.661,274.943c0.255,7.617-5.346,13.711-14.257,13.711c-7.893,0-13.494-6.094-13.494-13.711
		c0-7.871,5.857-13.965,14.003-13.965C738.315,260.978,743.661,267.072,743.661,274.943z M718.708,436.175V310.491h22.408v125.685
		h-22.408V436.175z M778.295,346.545c0-12.696-0.255-26.106-1.019-36.261h19.863l1.273,23.313h0.509
		c6.112-11.68,20.371-23.106,40.743-23.106c17.062,0,43.544,10.156,43.544,52.305v73.38H860.8v-70.84
		c0-19.805-7.385-36.31-28.52-36.31c-14.77,0-26.229,10.41-30.049,22.852c-1.019,2.793-1.528,6.602-1.528,10.41v73.887h-22.409
		v-89.63L778.295,346.545L778.295,346.545z M945.601,275.451v35.294h32.085v17.011h-32.085v66.27
		c0,15.235,4.328,23.868,16.806,23.868c5.858,0,10.186-0.762,12.987-1.523l1.019,16.758c-4.328,1.777-11.205,3.047-19.863,3.047
		c-10.441,0-18.844-3.301-24.192-9.395c-6.366-6.602-8.658-17.52-8.658-31.993v-67.032h-19.099v-17.011H923.7v-29.454
		L945.601,275.451z M1000.606,406.721c9.932,6.094,24.446,11.172,39.725,11.172c22.664,0,35.906-11.934,35.906-29.2
		c0-15.996-9.167-25.137-32.341-34.024c-28.011-9.903-45.327-24.376-45.327-48.496c0-26.661,22.154-46.466,55.513-46.466
		c17.571,0,30.304,4.063,37.943,8.379l-6.112,18.028c-5.602-3.047-17.061-8.125-32.596-8.125c-23.427,0-32.34,13.965-32.34,25.645
		c0,15.997,10.44,23.868,34.124,33.009c29.029,11.172,43.799,25.137,43.799,50.275c0,26.406-19.608,49.258-60.097,49.258
		c-16.553,0-34.633-4.824-43.8-10.918L1000.606,406.721z M1154.674,275.451v35.294h32.085v17.011h-32.085v66.27
		c0,15.235,4.328,23.868,16.806,23.868c5.858,0,10.186-0.762,12.987-1.523l1.019,16.758c-4.328,1.777-11.205,3.047-19.863,3.047
		c-10.441,0-18.844-3.301-24.192-9.395c-6.366-6.602-8.658-17.52-8.658-31.993v-67.032h-19.099v-17.011h19.099v-29.454
		L1154.674,275.451z M1211.97,351.622c0-14.473-0.255-29.915-1.019-41.34h19.607l0.765,27.122h1.019
		c5.601-16.504,19.099-26.915,34.124-26.915c2.547,0,4.328,0.254,6.366,0.762v21.075c-2.293-0.508-4.585-0.762-7.64-0.762
		c-15.789,0-26.993,11.934-30.049,28.692c-0.509,3.047-1.02,6.602-1.02,10.41v65.508h-22.154L1211.97,351.622L1211.97,351.622z
		 M1404.232,372.921c0,45.449-31.577,63.254-61.37,63.254c-33.358,0-59.078-22.376-59.078-61.223
		c0-41.134,26.993-64.254,61.117-64.254C1380.295,310.697,1404.232,335.342,1404.232,372.921z M1306.447,374.19
		c0,26.915,15.534,45.227,37.433,45.227c21.391,0,37.433-18.059,37.433-45.734c0-20.821-10.44-46.228-36.924-46.228
		S1306.447,350.83,1306.447,374.19z M1432.499,346.545c0-12.696-0.255-26.106-1.019-36.261h19.863l1.273,23.313h0.509
		c6.112-11.68,20.371-23.106,40.743-23.106c17.062,0,43.544,10.156,43.544,52.305v73.38h-22.41v-70.84
		c0-19.805-7.385-36.31-28.52-36.31c-14.77,0-26.229,10.41-30.049,22.852c-1.019,2.793-1.528,6.602-1.528,10.41v73.887h-22.409
		v-89.63L1432.499,346.545L1432.499,346.545z M1680.018,314.03c-0.508,8.887-1.019,18.79-1.019,33.77v71.348
		c0,28.184-5.601,45.45-17.571,56.115c-11.967,11.172-29.284,14.727-44.818,14.727c-14.77,0-31.066-3.555-40.998-10.157
		l5.601-17.011c8.149,5.078,20.882,9.649,36.16,9.649c22.919,0,39.726-11.934,39.726-42.91V415.85h-0.509
		c-6.874,11.426-20.118,20.567-39.217,20.567c-30.557,0-52.457-25.899-52.457-59.922c0-41.642,27.248-66.254,55.514-66.254
		c21.391,0,33.105,12.172,38.451,22.329h0.509l1.019-21.536h19.608v2.996H1680.018z M1656.846,362.526
		c0-3.809-0.255-7.11-1.273-10.156c-4.074-12.95-15.025-23.614-31.322-23.614c-21.391,0-36.67,18.028-36.67,46.466
		c0,24.122,12.223,44.18,36.416,44.18c13.751,0,26.229-8.633,31.066-22.852c1.273-3.809,1.783-8.125,1.783-11.934v-22.089l0,0
		V362.526z M1781.115,301.349c0,23.614-18.59,42.148-42.782,42.148c-23.938,0-43.035-18.536-43.035-42.148
		c0-23.106,19.098-41.642,43.035-41.642C1762.525,259.707,1781.115,278.243,1781.115,301.349z M1705.993,301.349
		c0,18.536,13.751,33.261,32.596,33.261c18.335,0,31.832-14.727,31.832-33.009c0-18.536-13.497-33.515-32.086-33.515
		C1719.744,268.086,1705.993,283.067,1705.993,301.349z M1731.713,323.184h-9.678v-41.642c3.82-0.762,9.167-1.27,16.044-1.27
		c7.893,0,11.458,1.27,14.514,3.047c2.292,1.777,4.074,5.078,4.074,9.141c0,4.57-3.565,8.125-8.658,9.649v0.508
		c4.073,1.523,6.366,4.57,7.64,10.157c1.273,6.348,2.037,8.887,3.055,10.41h-10.441c-1.273-1.523-2.037-5.332-3.31-10.157
		c-0.764-4.57-3.311-6.602-8.658-6.602h-4.584v16.758h0.002V323.184z M1731.966,299.57h4.585c5.348,0,9.677-1.777,9.677-6.094
		c0-3.809-2.801-6.348-8.913-6.348c-2.547,0-4.328,0.254-5.348,0.508L1731.966,299.57L1731.966,299.57z"/>
	<path class="st1" d="M6.441,343.727V70.735c0-34.734,28.157-62.891,62.891-62.891h91.723v253.327
		C158.032,337.163,75.431,359.739,6.441,343.727z M422.237,149.971c-53.577-17.516-86.067,5.294-96.278,30.34
		c-30.618,57.112,81.809,111.35,109.594,165.189V154.4C429.2,152.152,422.237,149.971,422.237,149.971z M157.973,424.151
		l29.53-35.817c25.006,29.943,43.271,43.198,62.785,48.625H362.04c62.15-41.339-1.645-93.23-28.482-119.567
		c-133.545-98.251-53.56-268.497,101.996-219.896v-26.76c0-34.734-28.157-62.891-62.891-62.891H225.372
		c-0.074,27.802-0.408,162.888-0.174,244.166c0.188,65.063-19.373,102.998-83.928,135.309
		c-32.342,16.188-77.708,19.552-129.744,11.544c9.623,22.402,31.879,38.095,57.806,38.095h99.416
		C164.913,432.441,160.76,427.748,157.973,424.151z"/>
	<g>
		<defs>
			<path id="SVGID_1_" d="M6.441,343.727V70.735c0-34.734,28.157-62.891,62.891-62.891h91.723v253.327
				C158.032,337.163,75.431,359.739,6.441,343.727z M422.237,149.971c-53.577-17.516-86.067,5.294-96.278,30.34
				c-30.618,57.112,81.809,111.35,109.594,165.189V154.4C429.2,152.152,422.237,149.971,422.237,149.971z M157.973,424.151
				l29.53-35.817c25.006,29.943,43.271,43.198,62.785,48.625H362.04c62.15-41.339-1.645-93.23-28.482-119.567
				c-133.545-98.251-53.56-268.497,101.996-219.896v-26.76c0-34.734-28.157-62.891-62.891-62.891H225.372
				c-0.074,27.802-0.408,162.888-0.174,244.166c0.188,65.063-19.373,102.998-83.928,135.309
				c-32.342,16.188-77.708,19.552-129.744,11.544c9.623,22.402,31.879,38.095,57.806,38.095h99.416
				C164.913,432.441,160.76,427.748,157.973,424.151z"/>
		</defs>
		<clipPath id="SVGID_2_">
			<use xlink:href="#SVGID_1_"  style="overflow:visible;"/>
		</clipPath>
		<g class="st2">
			
				<radialGradient id="SVGID_3_" cx="307.5421" cy="157.8491" r="153.2399" gradientTransform="matrix(0.9345 0 0 0.8677 -138.9536 22.1067)" gradientUnits="userSpaceOnUse">
				<stop  offset="0" style="stop-color:#F5F9FB"/>
				<stop  offset="0.0071" style="stop-color:#F7FAFC"/>
				<stop  offset="0.0096" style="stop-color:#FEFEFE"/>
				<stop  offset="0.0099" style="stop-color:#FFFFFF"/>
				<stop  offset="0.4931" style="stop-color:#8BBCD2"/>
				<stop  offset="0.8409" style="stop-color:#3E8FB5"/>
				<stop  offset="1" style="stop-color:#207EA9"/>
			</radialGradient>
			<path class="st3" d="M241.443,310.698H55.461c-27.073,0-49.02-21.947-49.02-49.02V61.479c0-27.073,21.947-54.02,49.02-54.02
				h185.983c27.073,0,49.02,26.947,49.02,54.02v200.199C290.463,288.751,268.516,310.698,241.443,310.698z"/>
		</g>
	</g>
</g>
</svg>
