<?xml version="1.0" encoding="utf-8"?>
<!-- Generator: Adobe Illustrator 25.0.1, SVG Export Plug-In . SVG Version: 6.00 Build 0)  -->
<svg version="1.1" id="Layer_1" xmlns="http://www.w3.org/2000/svg" xmlns:xlink="http://www.w3.org/1999/xlink" x="0px" y="0px"
	 viewBox="0 0 3000 1958" style="enable-background:new 0 0 3000 1958;" xml:space="preserve">
<style type="text/css">
	.st0{fill:#8FD2EA;}
	.st1{fill:#F3F3F3;}
	.st2{fill:#DAB8B0;}
	.st3{opacity:0.3;fill:#DAB8B0;}
	.st4{opacity:0.5;fill:#AFB1C4;}
	.st5{fill:#546E17;}
	.st6{fill:#3D5010;}
	.st7{fill:#D69689;}
	.st8{opacity:0.75;}
	.st9{fill:#FFFFFF;}
	.st10{opacity:0.9;}
	.st11{fill:#DFE2F3;}
	.st12{opacity:0.65;clip-path:url(#SVGID_2_);fill:#C2C5DA;}
	.st13{opacity:0.5;clip-path:url(#SVGID_2_);fill:#C2C5DA;}
	.st14{opacity:0.4;clip-path:url(#SVGID_2_);fill:#FFFFFF;}
	.st15{fill:#18173E;}
	.st16{fill:#207EA9;}
	.st17{fill:none;}
	.st18{fill:#424242;}
	.st19{fill:#D98037;}
	.st20{fill:#435712;}
	.st21{fill:#65851C;}
	.st22{fill:#071A1B;}
	.st23{fill:#114456;}
	.st24{opacity:0.08;fill:#D6ECEA;}
	.st25{opacity:0.2;fill:#D6ECEA;}
	.st26{clip-path:url(#SVGID_4_);fill:#EAEAEA;}
	.st27{clip-path:url(#SVGID_4_);}
	.st28{opacity:0.8;}
	.st29{fill:#BDBDC9;}
	.st30{opacity:0.5;clip-path:url(#SVGID_6_);fill:#B1B8E5;}
	.st31{opacity:0.5;clip-path:url(#SVGID_6_);fill:#FFFFFF;}
	.st32{opacity:0.5;clip-path:url(#SVGID_8_);fill:#B1B8E5;}
	.st33{opacity:0.5;clip-path:url(#SVGID_8_);fill:#FFFFFF;}
	.st34{fill:#F1BAAF;}
	.st35{fill:#3D1C17;}
	.st36{fill:#B66B2E;}
	.st37{fill:#F39961;}
	.st38{fill:#7E85AC;}
	.st39{fill:#436C7C;}
	.st40{fill:#00344A;}
	.st41{opacity:0.4;}
	.st42{fill:#90C6C6;}
	.st43{clip-path:url(#SVGID_10_);}
	.st44{fill:url(#SVGID_11_);}
</style>
<path class="st0" d="M2756.188,1958H243.812C109.158,1958,0,1848.842,0,1714.188V243.812C0,109.158,109.158,0,243.812,0h2512.375
	C2890.842,0,3000,109.158,3000,243.812v1470.375C3000,1848.842,2890.842,1958,2756.188,1958z"/>
<rect y="1330.38" class="st1" width="3000" height="627.62"/>
<g>
	<path class="st2" d="M2590.293,1871.777c2.58-4.967-222.246-15.293-241.213-13.177c-0.013,0.001-0.025,0.004-0.04,0.006
		c-79.034,8.823-136.84,29.903-211.499,4.721c-121.752-41.061-251.983,5.438-384.956,12.562
		c-110.219,5.904-227.075,15.398-330.663-4.736c-126.359-24.563-272.244-24.287-423.988-16.1
		c-133.46,7.186-325.668,69.296-414.558,21.366c-100.895-54.417-271.702,8.473-407.269-1.13
		c124.295-108.867,248.698-286.661,333.948-384.274c113.047,0.026,229.935,2.707,357.873-0.521
		c241.502-6.09,510.599-27.21,707.692-0.045c200.032,27.565,597.551-6.079,652.696-9.24
		c435.725-24.976,520.612,14.385,520.612,14.385S2602.332,1848.588,2590.293,1871.777z"/>
	<path class="st3" d="M2339.818,1476.104c-20.615,49.51-44.426,102.186-74.546,158.235c-26.54,49.394-57.798,101.738-87.812,153.277
		c-11.648,20.021-29.196,47.622-45.093,74.026c1.722,0.547,3.448,1.104,5.173,1.685c19.405,6.546,37.667,9.958,55.463,11.282
		c22.604-46.542,34.692-94.412,50.439-127.103c34.838-72.333,76.947-150.109,119.457-227.664
		c8.075-14.737,16.651-29.818,25.549-45.07C2372.808,1475.103,2356.604,1475.542,2339.818,1476.104z"/>
	<path class="st3" d="M2176.81,1484.757c-8.007,0.561-16.719,1.165-26.06,1.796c-31.04,52.306-64.95,107.806-103.248,166.689
		c-35.31,54.295-74.389,111.83-112.452,168.473c-6.804,10.126-14.96,22.016-23.706,34.726c11.055-1.554,22.067-3.022,33.043-4.332
		c15.864-28.023,30.157-53.996,42.952-74.515c49.562-79.5,105.316-164.976,161.194-250.227
		C2157.691,1513.4,2167.15,1499.162,2176.81,1484.757z"/>
	<path class="st3" d="M2131.904,1487.814c-8.243,0.543-16.87,1.097-25.831,1.662c-33.344,51.434-69.619,105.927-110.312,163.701
		c-38.236,54.289-80.424,111.821-121.544,168.457c-9.308,12.818-20.93,28.465-33.23,45.031c11.695-1.637,23.358-3.355,34.982-5.075
		c19.754-31.652,37.443-61.233,52.919-84.073c53.846-79.497,114.227-164.968,174.704-250.203
		C2112.782,1514.353,2122.252,1501.157,2131.904,1487.814z"/>
	<path class="st4" d="M2292.639,1477.937c-20.638,0.909-42.06,1.992-64.321,3.272c-4.154,0.238-10.273,0.646-18.092,1.195
		c-25.034,58.103-54.666,119.708-93.429,185.005c-34.439,57.984-75.729,119.25-115.535,179.775
		c27.38-1.271,54.46-0.625,81.187,3.194c5.722-16.173,11.466-31.095,18.148-44.048c45.694-88.493,102.704-183.595,160.436-278.436
		C2270.988,1511.535,2281.593,1494.832,2292.639,1477.937z"/>
	<path class="st3" d="M945.471,1488.128c-87.323,120.941-175.198,241.355-261.987,354.137
		c-11.646,15.136-25.731,32.146-41.295,50.481c18.558,1.971,38.827,2.086,60.23,0.934
		c58.126-83.727,116.247-168.293,174.592-248.398c39.968-54.861,80.407-107.857,120.669-159.062
		C980.215,1486.882,962.801,1487.525,945.471,1488.128z"/>
	<path class="st3" d="M981.295,1856.205c47.794-75.937,95.728-152.345,142.653-224.92c34.119-52.777,67.936-103.739,101.17-152.979
		c-8.079,0.193-16.182,0.404-24.301,0.63c-74.895,116.417-149.921,232.37-222.302,340.956
		c-7.997,11.995-17.134,25.221-27.065,39.371C961.62,1858.042,971.583,1857.007,981.295,1856.205z"/>
	<path class="st3" d="M1182.648,1631.395c32.228-53.177,64.226-104.513,95.703-154.1c-8.027,0.109-16.083,0.24-24.168,0.391
		c-70.464,116.883-141.095,233.319-209.36,342.331c-6.51,10.393-13.843,21.716-21.771,33.758c9.449-0.454,18.871-0.873,28.265-1.254
		C1095.3,1777.833,1139.382,1702.764,1182.648,1631.395z"/>
	<path class="st4" d="M800.931,1862.938c-5.229,7.002-11.029,14.387-17.284,22.096c31.34-4.512,63.471-10.033,94.997-15.146
		c47.015-73.587,94.087-147.104,142.532-217.44c40.829-59.274,83.101-116.527,125.774-171.838
		c-26.146,0.889-52.401,1.875-78.651,2.886C980.269,1613.035,891.185,1742.069,800.931,1862.938z"/>
</g>
<g>
	<g>
		<path class="st5" d="M478.415,364.215c0.222,0.322,16.386-29.185,17.253-31.697c4.002-11.572,9.278-28.815,5.912-41.154
			c-3.54-12.973-15.176-17.582-28.037-13.837c-17.101,4.978-18.956,21.671-19.351,37.134
			C453.668,335.375,466.807,347.408,478.415,364.215z"/>
		<path class="st6" d="M509.613,373.226c0.189,0.272,13.925-24.8,14.661-26.935c3.4-9.834,7.884-24.485,5.022-34.969
			c-3.007-11.024-12.894-14.94-23.824-11.759c-14.53,4.228-16.108,18.415-16.441,31.556
			C488.584,348.719,499.75,358.944,509.613,373.226z"/>
		<g>
			<path class="st6" d="M457.856,350.165c-0.739,0-1.433-0.458-1.696-1.195c-0.336-0.937,0.151-1.969,1.088-2.304
				c1.576-0.565,3.19-1.235,4.75-1.882c1.877-0.779,3.818-1.585,5.658-2.189c0.942-0.31,1.963,0.205,2.273,1.15
				c0.311,0.946-0.204,1.964-1.15,2.274c-1.708,0.561-3.501,1.305-5.399,2.093c-1.601,0.664-3.256,1.351-4.915,1.946
				C458.264,350.131,458.059,350.165,457.856,350.165z"/>
		</g>
		<g>
			<path class="st6" d="M451.551,338.901c-0.55,0-1.092-0.25-1.446-0.725c-0.595-0.797-0.431-1.927,0.366-2.522
				c2.752-2.053,5.988-3.415,9.361-3.94c0.983-0.154,1.904,0.52,2.058,1.503c0.153,0.983-0.52,1.905-1.503,2.058
				c-2.756,0.429-5.511,1.589-7.76,3.268C452.303,338.785,451.925,338.901,451.551,338.901z"/>
		</g>
		<g>
			<path class="st6" d="M447.041,326.737c-0.834,0-1.582-0.583-1.762-1.432c-0.204-0.974,0.42-1.93,1.394-2.134
				c3.028-0.636,6.071-1.245,9.044-1.808c0.976-0.185,1.921,0.456,2.106,1.435c0.186,0.978-0.457,1.921-1.435,2.106
				c-2.95,0.559-5.969,1.163-8.975,1.794C447.289,326.725,447.164,326.737,447.041,326.737z"/>
		</g>
		<g>
			<path class="st6" d="M456.053,314.573h-9.911c-0.995,0-1.802-0.807-1.802-1.802c0-0.995,0.807-1.802,1.802-1.802h9.911
				c0.995,0,1.802,0.807,1.802,1.802C457.854,313.766,457.048,314.573,456.053,314.573z"/>
		</g>
		<g>
			<path class="st6" d="M459.205,304.212c-0.272,0-0.547-0.062-0.806-0.192c-3.098-1.553-6.933-2.289-10.803-2.064
				c-0.994,0.06-1.845-0.703-1.902-1.696c-0.057-0.994,0.702-1.845,1.696-1.902c4.488-0.254,8.972,0.61,12.624,2.441
				c0.89,0.446,1.249,1.529,0.804,2.418C460.502,303.847,459.865,304.211,459.205,304.212z"/>
		</g>
		<g>
			<path class="st6" d="M457.857,294.75c-0.488,0-0.974-0.197-1.329-0.584c-1.942-2.117-4.493-3.777-6.825-4.44
				c-0.957-0.272-1.512-1.27-1.24-2.227c0.273-0.958,1.273-1.511,2.227-1.24c2.99,0.851,6.086,2.845,8.495,5.471
				c0.673,0.733,0.624,1.873-0.11,2.546C458.728,294.594,458.292,294.75,457.857,294.75z"/>
		</g>
		<g>
			<path class="st6" d="M465.065,287.993c-0.528,0-1.051-0.231-1.407-0.675c-2.17-2.707-4.909-4.854-7.326-5.743
				c-0.934-0.344-1.412-1.379-1.068-2.314c0.344-0.934,1.38-1.411,2.312-1.069c3.051,1.122,6.293,3.626,8.895,6.871
				c0.623,0.777,0.498,1.911-0.279,2.534C465.859,287.863,465.461,287.993,465.065,287.993z"/>
		</g>
		<g>
			<path class="st6" d="M471.822,280.784c-0.738,0-1.432-0.458-1.695-1.193c-0.762-2.118-1.988-4.416-3.365-6.306
				c-0.586-0.804-0.41-1.932,0.395-2.518c0.805-0.586,1.932-0.409,2.518,0.395c1.571,2.155,2.973,4.783,3.844,7.21
				c0.337,0.936-0.149,1.969-1.086,2.305C472.23,280.75,472.024,280.784,471.822,280.784z"/>
		</g>
		<g>
			<path class="st6" d="M480.834,280.784c-0.176,0-0.354-0.026-0.529-0.08c-0.952-0.292-1.486-1.3-1.194-2.251
				c0.774-2.523,1.054-5.174,0.827-7.881c-0.083-0.992,0.654-1.863,1.647-1.946c0.99-0.078,1.862,0.654,1.945,1.646
				c0.264,3.167-0.064,6.275-0.974,9.239C482.318,280.286,481.604,280.784,480.834,280.784z"/>
		</g>
		<g>
			<path class="st6" d="M489.844,281.235c-0.188,0-0.379-0.03-0.566-0.092c-0.945-0.313-1.457-1.333-1.145-2.277
				c0.668-2.017,1.094-4.148,1.266-6.333c0.078-0.992,0.938-1.736,1.939-1.655c0.992,0.078,1.733,0.946,1.655,1.938
				c-0.195,2.474-0.68,4.891-1.438,7.183C491.303,280.756,490.6,281.235,489.844,281.235z"/>
		</g>
		<g>
			<path class="st6" d="M493.447,287.543c-0.443,0-0.887-0.162-1.234-0.489c-0.725-0.681-0.76-1.822-0.078-2.547
				c3.312-3.526,6.658-5.674,9.943-6.384c0.967-0.21,1.932,0.407,2.142,1.38c0.21,0.973-0.407,1.932-1.38,2.142
				c-2.558,0.553-5.275,2.347-8.08,5.33C494.406,287.352,493.927,287.543,493.447,287.543z"/>
		</g>
		<g>
			<path class="st6" d="M497.953,293.85c-0.748,0-1.447-0.47-1.704-1.217c-0.323-0.941,0.177-1.967,1.118-2.29
				c2.369-0.815,5.25-2.595,6.422-3.97c0.646-0.757,1.783-0.848,2.541-0.202c0.757,0.646,0.848,1.783,0.201,2.541
				c-1.602,1.879-4.964,3.998-7.992,5.039C498.346,293.818,498.147,293.85,497.953,293.85z"/>
		</g>
		<g>
			<path class="st5" d="M498.853,300.157c-0.679,0-1.328-0.386-1.635-1.041c-0.42-0.902-0.029-1.975,0.872-2.395
				c2.29-1.068,4.946-2.23,7.288-3.188c0.921-0.379,1.973,0.063,2.35,0.984c0.378,0.921-0.062,1.974-0.984,2.351
				c-2.291,0.939-4.89,2.076-7.13,3.12C499.367,300.103,499.109,300.157,498.853,300.157z"/>
		</g>
		<g>
			<path class="st5" d="M524.083,355.121h-0.001c-3.315-0.002-6.672-0.673-9.705-1.942c-0.918-0.384-1.352-1.439-0.967-2.358
				c0.383-0.918,1.438-1.353,2.357-0.967c2.598,1.086,5.474,1.662,8.316,1.663c0.995,0,1.802,0.808,1.801,1.803
				C525.885,354.314,525.078,355.121,524.083,355.121z"/>
		</g>
		<g>
			<path class="st5" d="M529.49,348.363c-0.022,0-0.045,0-0.068-0.001c-2.816-0.105-5.48-0.575-8.146-1.438
				c-0.946-0.307-1.466-1.323-1.16-2.27c0.307-0.948,1.321-1.469,2.27-1.16c2.346,0.759,4.691,1.172,7.172,1.265
				c0.994,0.037,1.771,0.874,1.733,1.868C531.254,347.6,530.455,348.363,529.49,348.363z"/>
		</g>
		<g>
			<path class="st5" d="M530.842,339.803c-0.186,0-0.374-0.029-0.559-0.089c-2.773-0.903-5.665-1.482-8.598-1.718
				c-0.992-0.081-1.731-0.95-1.651-1.941c0.08-0.993,0.948-1.731,1.941-1.651c3.214,0.26,6.384,0.894,9.423,1.884
				c0.947,0.308,1.465,1.325,1.156,2.271C532.307,339.32,531.6,339.803,530.842,339.803z"/>
		</g>
		<g>
			<path class="st5" d="M533.544,329.892h-7.658c-0.995,0-1.802-0.807-1.802-1.802c0-0.995,0.807-1.802,1.802-1.802h7.658
				c0.995,0,1.802,0.807,1.802,1.802C535.346,329.085,534.539,329.892,533.544,329.892z"/>
		</g>
		<g>
			<path class="st5" d="M505.612,345.209c-0.149,0-0.302-0.019-0.454-0.058c-2.154-0.559-4.301-0.987-6.561-1.312
				c-0.985-0.141-1.669-1.054-1.528-2.04c0.142-0.986,1.055-1.672,2.04-1.528c2.395,0.343,4.669,0.798,6.954,1.39
				c0.964,0.25,1.542,1.233,1.293,2.197C507.145,344.67,506.414,345.209,505.612,345.209z"/>
		</g>
		<g>
			<path class="st5" d="M504.711,332.594c-0.498,0-0.993-0.205-1.35-0.606c-0.904-1.021-2.231-1.621-3.639-1.646
				c-0.996-0.018-1.787-0.839-1.77-1.835c0.018-0.995,0.795-1.803,1.834-1.769c2.413,0.043,4.699,1.085,6.271,2.858
				c0.66,0.745,0.592,1.883-0.152,2.544C505.562,332.444,505.136,332.594,504.711,332.594z"/>
		</g>
		<g>
			<path class="st5" d="M498.104,320.88c-0.497,0-0.991-0.205-1.347-0.605c-0.908-1.022-2.234-1.622-3.642-1.647
				c-0.995-0.017-1.787-0.839-1.77-1.834c0.018-0.984,0.821-1.77,1.802-1.77c0.01,0,0.021,0,0.032,0.001
				c2.411,0.043,4.696,1.084,6.271,2.857c0.662,0.744,0.594,1.883-0.15,2.544C498.958,320.73,498.531,320.88,498.104,320.88z"/>
		</g>
		<g>
			<path class="st5" d="M511.916,336.199c-0.34,0-0.683-0.096-0.988-0.296c-0.831-0.546-1.062-1.664-0.516-2.496
				c1.113-1.694,2.396-3.298,3.815-4.767c0.691-0.716,1.832-0.736,2.548-0.045c0.716,0.691,0.736,1.832,0.046,2.548
				c-1.281,1.327-2.392,2.715-3.396,4.244C513.078,335.914,512.503,336.199,511.916,336.199z"/>
		</g>
		<g>
			<path class="st5" d="M508.767,322.683c-0.581,0-1.15-0.28-1.499-0.799c-0.649-0.97-2.35-2.817-2.729-3.158
				c-0.75-0.553-0.959-1.599-0.457-2.403c0.526-0.844,1.638-1.102,2.483-0.575c0.719,0.449,3.004,3.094,3.697,4.129
				c0.555,0.827,0.334,1.946-0.493,2.5C509.461,322.584,509.111,322.683,508.767,322.683z"/>
		</g>
		<g>
			<path class="st5" d="M503.66,310.669c-0.58,0-1.15-0.28-1.498-0.799c-0.648-0.966-2.354-2.819-2.732-3.161
				c-0.75-0.557-0.954-1.606-0.447-2.408c0.531-0.841,1.643-1.093,2.486-0.561c0.676,0.427,2.933,2.997,3.688,4.125
				c0.555,0.827,0.333,1.946-0.494,2.5C504.354,310.57,504.006,310.669,503.66,310.669z"/>
		</g>
		<g>
			<path class="st5" d="M520.479,319.529c-0.426,0-0.854-0.151-1.197-0.457c-0.744-0.662-0.808-1.801-0.146-2.544
				c0.84-0.944,1.851-1.955,2.843-2.846c0.741-0.664,1.88-0.603,2.546,0.138c0.664,0.741,0.603,1.88-0.139,2.545
				c-0.896,0.804-1.805,1.714-2.561,2.561C521.469,319.326,520.975,319.529,520.479,319.529z"/>
		</g>
		<g>
			<path class="st5" d="M513.721,312.321c-0.995,0-1.803-0.807-1.803-1.802v-5.406c0-0.995,0.808-1.802,1.803-1.802
				s1.803,0.807,1.803,1.802v5.406C515.523,311.514,514.716,312.321,513.721,312.321z"/>
		</g>
		<g>
			<path class="st5" d="M521.83,305.113c-0.994,0-1.802-0.807-1.802-1.802v-6.758c0-0.995,0.808-1.802,1.802-1.802
				c0.996,0,1.803,0.807,1.803,1.802v6.758C523.633,304.306,522.826,305.113,521.83,305.113z"/>
		</g>
		<g>
			<path class="st5" d="M525.887,310.969c-0.529,0-1.055-0.232-1.41-0.679c-0.62-0.778-0.492-1.912,0.285-2.532
				c2.069-1.65,4.42-2.993,6.8-3.883c0.932-0.35,1.971,0.125,2.319,1.057c0.349,0.932-0.125,1.97-1.057,2.319
				c-2.027,0.759-4.039,1.909-5.814,3.325C526.678,310.84,526.281,310.969,525.887,310.969z"/>
		</g>
		<g>
			<path class="st5" d="M527.685,319.53c-0.818,0-1.56-0.563-1.754-1.395c-0.225-0.969,0.379-1.938,1.349-2.163
				c2.202-0.511,4.368-1.233,6.437-2.146c0.91-0.4,1.975,0.011,2.377,0.921c0.4,0.911-0.012,1.975-0.922,2.376
				c-2.273,1.003-4.654,1.797-7.077,2.359C527.958,319.514,527.82,319.53,527.685,319.53z"/>
		</g>
		<g>
			<path class="st5" d="M509.217,302.86c-0.159,0-0.321-0.021-0.482-0.066c-0.959-0.266-1.522-1.26-1.254-2.219
				c0.699-2.522,1.568-5.478,2.267-7.713c0.297-0.95,1.307-1.48,2.257-1.183c0.95,0.297,1.479,1.308,1.183,2.257
				c-0.688,2.202-1.544,5.115-2.234,7.604C510.73,302.337,510.007,302.86,509.217,302.86z"/>
		</g>
		<g>
			<path class="st6" d="M477.077,292.648c-0.83,0-1.577-0.577-1.76-1.422c-0.383-1.775-0.378-3.766,0.015-5.325
				c0.242-0.964,1.221-1.552,2.187-1.308c0.965,0.242,1.551,1.222,1.308,2.187c-0.255,1.017-0.25,2.463,0.015,3.686
				c0.21,0.973-0.409,1.932-1.382,2.142C477.331,292.635,477.203,292.648,477.077,292.648z"/>
		</g>
		<g>
			<path class="st6" d="M469.567,301.659c-0.857,0-1.616-0.613-1.773-1.486c-0.211-1.185-0.321-2.399-0.328-3.612
				c-0.004-0.995,0.798-1.806,1.793-1.811c1.031-0.037,1.807,0.798,1.812,1.793c0.004,1.007,0.096,2.016,0.271,2.997
				c0.174,0.98-0.478,1.916-1.458,2.09C469.779,301.65,469.672,301.659,469.567,301.659z"/>
		</g>
		<g>
			<path class="st6" d="M471.371,317.277c-0.359,0-0.723-0.107-1.038-0.33l-0.626-0.436c-1.979-1.372-4.443-3.078-5.188-5.998
				c-0.245-0.965,0.338-1.946,1.303-2.191c0.963-0.243,1.945,0.337,2.191,1.302c0.41,1.614,2.031,2.736,3.746,3.925l0.651,0.454
				c0.814,0.574,1.007,1.698,0.433,2.511C472.493,317.011,471.936,317.277,471.371,317.277z"/>
		</g>
		<g>
			<path class="st6" d="M471.072,330.192c-0.477,0-0.951-0.188-1.305-0.559c-1.541-1.616-3.568-2.864-5.714-4.186l-0.536-0.33
				c-0.847-0.523-1.109-1.634-0.586-2.48c0.523-0.848,1.633-1.108,2.48-0.586l0.531,0.328c2.246,1.383,4.57,2.814,6.433,4.768
				c0.686,0.721,0.659,1.861-0.061,2.548C471.967,330.026,471.519,330.192,471.072,330.192z"/>
		</g>
		<g>
			<path class="st6" d="M480.381,307.065c-0.354,0-0.712-0.104-1.025-0.321c-0.818-0.566-1.021-1.689-0.455-2.507
				c0.897-1.295,1.982-2.312,3.033-3.296c0.79-0.741,1.537-1.44,2.143-2.204c0.619-0.78,1.753-0.911,2.532-0.291
				c0.78,0.618,0.91,1.752,0.292,2.532c-0.771,0.973-1.652,1.797-2.504,2.594c-0.953,0.894-1.855,1.738-2.533,2.717
				C481.514,306.794,480.951,307.065,480.381,307.065z"/>
		</g>
		<g>
			<path class="st6" d="M479.482,325.086c-0.518,0-1.031-0.222-1.388-0.652c-0.636-0.766-0.529-1.902,0.237-2.538
				c0.887-0.735,1.7-1.641,2.353-2.618c0.553-0.827,1.672-1.05,2.499-0.497c0.827,0.553,1.05,1.672,0.497,2.5
				c-0.843,1.263-1.897,2.435-3.049,3.391C480.296,324.95,479.889,325.086,479.482,325.086z"/>
		</g>
		<g>
			<path class="st6" d="M478.88,346.411c-0.429,0-0.859-0.152-1.203-0.461c-1.755-1.574-2.982-3.898-3.285-6.214
				c-0.129-0.987,0.567-1.892,1.554-2.021c0.984-0.126,1.892,0.567,2.02,1.554c0.19,1.465,1.003,2.998,2.118,3.998
				c0.74,0.665,0.803,1.804,0.138,2.545C479.865,346.208,479.373,346.411,478.88,346.411z"/>
		</g>
		<g>
			<path class="st6" d="M490.294,338.901c-0.474,0-0.946-0.186-1.3-0.554c-1.321-1.376-3.352-2.972-4.418-3.599
				c-0.859-0.504-1.147-1.608-0.642-2.466c0.504-0.859,1.61-1.145,2.466-0.641c1.48,0.87,3.762,2.719,5.193,4.21
				c0.69,0.718,0.666,1.859-0.052,2.548C491.193,338.734,490.743,338.901,490.294,338.901z"/>
		</g>
		<g>
			<path class="st6" d="M491.795,331.694c-0.308,0-0.619-0.078-0.903-0.244c-2.829-1.641-6.095-4.708-6.579-7.565
				c-0.166-0.982,0.495-1.912,1.477-2.078c0.984-0.164,1.911,0.495,2.078,1.476c0.225,1.327,2.482,3.687,4.833,5.05
				c0.86,0.499,1.153,1.602,0.654,2.463C493.021,331.372,492.416,331.694,491.795,331.694z"/>
		</g>
		<g>
			<path class="st6" d="M493.596,313.373c-0.316,0-0.637-0.083-0.928-0.259c-1.43-0.861-2.995-1.868-4.295-2.762
				c-0.82-0.564-1.029-1.686-0.465-2.506c0.564-0.821,1.685-1.028,2.506-0.465c1.244,0.855,2.744,1.819,4.114,2.646
				c0.853,0.514,1.127,1.622,0.613,2.474C494.803,313.062,494.207,313.373,493.596,313.373z"/>
		</g>
		<g>
			<path class="st6" d="M496.902,307.966c-0.533,0-1.061-0.236-1.416-0.687c-1.547-1.963-3.645-5.446-3.732-5.593
				c-0.514-0.853-0.237-1.96,0.615-2.473c0.854-0.512,1.961-0.237,2.473,0.616c0.71,1.18,2.35,3.79,3.475,5.219
				c0.617,0.782,0.482,1.915-0.3,2.531C497.685,307.84,497.293,307.966,496.902,307.966z"/>
		</g>
		<g>
			<path class="st6" d="M486.989,294.451c-0.249,0-0.503-0.052-0.745-0.162c-0.906-0.412-1.307-1.48-0.895-2.386
				c0.531-1.169,0.795-2.587,0.741-3.992c-0.038-0.994,0.737-1.832,1.732-1.869c0.979-0.038,1.831,0.738,1.869,1.732
				c0.074,1.955-0.303,3.951-1.062,5.62C488.329,294.058,487.674,294.451,486.989,294.451z"/>
		</g>
	</g>
	<path class="st7" d="M527.012,418.783H461.31c0,0-13.828-5.587-18.588-23.644c-2.168-8.221-3.112-44.407-3.112-44.407h107.224
		c0,0-0.322,29.393-3.603,43.811C539.804,409.605,527.012,418.783,527.012,418.783z"/>
</g>
<g class="st8">
	<rect x="2423.275" y="286.495" class="st9" width="359.589" height="370.106"/>
</g>
<g class="st10">
	<rect x="789.795" y="171.996" class="st9" width="1420.41" height="825.143"/>
	<rect x="849.174" y="227.372" class="st11" width="1301.65" height="714.391"/>
	<g>
		<defs>
			<rect id="SVGID_1_" x="849.562" y="230.936" width="1301.65" height="710.773"/>
		</defs>
		<clipPath id="SVGID_2_">
			<use xlink:href="#SVGID_1_"  style="overflow:visible;"/>
		</clipPath>
		<path class="st12" d="M1698.281,1062.455c-167.012,49.687-334.322,50.959-521.379,45.421c-0.012,0-0.025-0.003-0.035-0.003
			c150.627-26.311,239.419-85.664,271.242-162.239c32.271-77.648-5.26-151.962,150.654-204.325
			c112.545-37.798,243.227-48.883,349.215-93.717c97.828-41.383,191.566-94.438,328.061-90.882
			c317.26,8.263,152.648,264.619-13.535,331.971c-87.502,35.462-115.096,45.973-209.99,73.159
			C1953.051,990.338,1797.471,1032.949,1698.281,1062.455z"/>
		<path class="st13" d="M1925.295,267.347c-17.273-30.714-33.168-30.335-84.664-27.51
			c-135.742,7.446-270.061,48.352-379.082,101.788c-66.061,32.381-145.182,37.019-205.137,72.843
			c-52.697,31.486-90.072,75.891-160.533,91.412c-81.942,18.049-152.645-12.471-233.685-8.389
			c-76.892,3.871-76.262,47.383-135.113,68.205c-28.623,10.127-65.453,10.617-91.402,24.323
			c-69.045,36.469,27.004,74.144,78.773,79.557c30.594,3.198,61.314,3.441,91.694,1.234c96.828-7.029,215.159-36.995,281.306-86.786
			c83.633-62.954,205.973-67.21,319.736-46.947c52.305,9.317,139.041,27.135,188.682,2.293c33.5-16.77,47.889-42.692,90.654-52.999
			c37.543-9.049,75.234-8.287,109.98-23.27C1881.059,426.636,1962.369,333.242,1925.295,267.347z"/>
		<path class="st14" d="M2785.68,356.05c-17.277-30.714-33.172-30.335-84.668-27.51c-135.738,7.447-270.059,48.352-379.078,101.789
			c-66.061,32.381-145.184,37.019-205.139,72.843c-52.697,31.486-90.072,75.891-160.533,91.412
			c-81.938,18.049-152.638-12.468-233.677-8.39c-52.417,2.638-104.812,45.236-143.431,75.391
			c-85.65,66.881,19.995,102.822,87.377,97.928c96.824-7.028,215.156-36.995,281.301-86.786
			c83.637-62.954,205.975-67.211,319.738-46.947c52.303,9.317,139.041,27.135,188.682,2.293c33.5-16.77,47.889-42.693,90.654-52.999
			c37.545-9.049,75.234-8.288,109.98-23.271C2741.441,515.339,2822.75,421.945,2785.68,356.05z"/>
	</g>
	<g>
		<path class="st1" d="M1151.66,972.239c-3.311,0-5.994-2.447-5.994-5.465V212.798c0-3.019,2.684-5.466,5.994-5.466
			c3.312,0,5.996,2.447,5.996,5.466v753.977C1157.656,969.792,1154.972,972.239,1151.66,972.239z"/>
	</g>
	<g>
		<path class="st1" d="M1490.885,972.239c-3.312,0-5.996-2.447-5.996-5.465V212.798c0-3.019,2.685-5.466,5.996-5.466
			c3.311,0,5.994,2.447,5.994,5.466v753.977C1496.879,969.792,1494.195,972.239,1490.885,972.239z"/>
	</g>
	<g>
		<path class="st1" d="M1830.109,972.239c-3.311,0-5.995-2.447-5.995-5.465V212.798c0-3.019,2.685-5.466,5.995-5.466
			s5.995,2.447,5.995,5.466v753.977C1836.104,969.792,1833.42,972.239,1830.109,972.239z"/>
	</g>
	<g>
		<path class="st1" d="M2175.527,435.758h-1347c-3.31,0-5.994-2.447-5.994-5.465c0-3.019,2.684-5.465,5.994-5.465h1347
			c3.311,0,5.995,2.447,5.995,5.465C2181.522,433.31,2178.838,435.758,2175.527,435.758z"/>
	</g>
	<g>
		<path class="st1" d="M2175.527,701.867h-1347c-3.31,0-5.994-2.447-5.994-5.465c0-3.019,2.684-5.465,5.994-5.465h1347
			c3.311,0,5.995,2.447,5.995,5.465C2181.522,699.42,2178.838,701.867,2175.527,701.867z"/>
	</g>
</g>
<g>
	<rect x="284.959" y="204.694" class="st15" width="58.707" height="213.644"/>
	<rect x="230.139" y="181.13" class="st7" width="55.553" height="237.208"/>
	<rect x="171.275" y="198.542" class="st16" width="59.937" height="219.796"/>
	
		<rect x="365.737" y="238.944" transform="matrix(0.9674 -0.2534 0.2534 0.9674 -70.477 108.24)" class="st16" width="38.531" height="177.605"/>
</g>
<rect x="141.288" y="419.11" class="st1" width="427.892" height="34.248"/>
<rect class="st17" width="3000" height="1958"/>
<g>
	<g>
		<path class="st9" d="M1464.999,1786.147c45.333-7.335,76.064-0.919,115.684-26.91c11.555-7.58,16.022-35.307,33.323-32.809
			c51.302,7.398,14.52,94.356-64.134,113.332c-12.135,2.925-51.817,12.768-81.147,18.677
			C1430.053,1866.229,1406.915,1795.545,1464.999,1786.147z"/>
		<path class="st18" d="M1456.613,1762.533c5.9-7.508,12.702-14.237,21.867-16.659c15.089-3.982,30.318-7.503,45.735-8.664
			c15.646-1.18,27.277-7.413,42.484-11.106c15.295-3.715,33.531-4.492,48.217,0.463c41.977,14.161-10.913,77.649-51.51,92.741
			c-21.576,8.019-44.248,10.247-65.532,17.955c-19.628,7.106-51.903,11.87-60.353-9.746c-7.294-18.665-2.252-35.91,9.812-52.319
			C1450.317,1771.14,1453.324,1766.719,1456.613,1762.533z"/>
		<g>
			<path class="st9" d="M1550.307,1745.855c-0.58-0.089-1.084-0.462-1.312-1.042c-1.621-4.126-4.734-6.981-7.061-8.649
				c-0.789-0.566-0.929-1.697-0.313-2.527c0.616-0.83,1.756-1.043,2.544-0.479c2.689,1.929,6.295,5.252,8.217,10.139
				c0.357,0.912-0.109,1.991-1.044,2.41C1550.995,1745.861,1550.639,1745.905,1550.307,1745.855z"/>
		</g>
		<g>
			<path class="st9" d="M1573.895,1736.909c-0.58-0.087-1.084-0.461-1.312-1.039c-1.621-4.124-4.734-6.979-7.062-8.647
				c-0.789-0.566-0.931-1.696-0.314-2.527c0.615-0.829,1.758-1.042,2.545-0.479c2.69,1.93,6.297,5.253,8.217,10.136
				c0.359,0.913-0.107,1.991-1.042,2.41C1574.583,1736.916,1574.227,1736.961,1573.895,1736.909z"/>
		</g>
		<g>
			<path class="st9" d="M1587.664,1733.688c-0.578-0.088-1.084-0.461-1.312-1.041c-1.619-4.12-4.733-6.978-7.062-8.648
				c-0.789-0.568-0.929-1.698-0.313-2.528s1.756-1.044,2.546-0.475c2.689,1.93,6.299,5.257,8.215,10.134
				c0.36,0.913-0.108,1.992-1.042,2.412C1588.353,1733.695,1587.997,1733.739,1587.664,1733.688z"/>
		</g>
		<g>
			<path class="st9" d="M1562.936,1741.163c-0.498-0.074-0.951-0.364-1.213-0.831c-1.482-2.646-3.637-5.623-6.068-8.38
				c-0.642-0.73-0.54-1.883,0.229-2.574c0.768-0.691,1.913-0.662,2.555,0.067c2.58,2.929,4.879,6.107,6.473,8.955
				c0.476,0.851,0.149,1.973-0.73,2.507C1563.783,1741.146,1563.344,1741.226,1562.936,1741.163z"/>
		</g>
	</g>
	<g>
		<path class="st9" d="M1061.863,1772.433c41.423-9.852,70.439-6.351,105.037-32.467c10.089-7.612,11.955-32.723,28.199-31.75
			c48.165,2.887,21.206,83.291-50.151,105.971c-11.012,3.499-46.99,15.182-73.695,22.595
			C1036.041,1846.557,1008.788,1785.053,1061.863,1772.433z"/>
		<path class="st18" d="M1059.924,1754.543c12.801-8.954,28.149-15.481,40.056-19.611c18.577-6.442,32.252-17.495,51.237-23.565
			c13.874-4.436,30.714-6.452,44.739-3.094c40.078,9.611-3.746,70.206-40.14,86.645c-19.345,8.738-40.181,12.381-59.28,20.815
			c-17.611,7.781-47.141,14.386-56.75-4.33C1027.218,1786.913,1040.696,1767.991,1059.924,1754.543z"/>
		<g>
			<path class="st9" d="M1137.637,1730.245c-0.524-0.034-1.006-0.326-1.263-0.822c-1.837-3.568-4.962-5.897-7.261-7.225
				c-0.769-0.443-0.997-1.459-0.511-2.268c0.486-0.81,1.504-1.105,2.272-0.66c2.649,1.529,6.264,4.237,8.442,8.463
				c0.41,0.795,0.083,1.82-0.728,2.285C1138.283,1730.195,1137.952,1730.266,1137.637,1730.245z"/>
		</g>
		<g>
			<path class="st9" d="M1158.769,1720.532c-0.524-0.035-1.005-0.324-1.261-0.82c-1.84-3.565-4.965-5.894-7.262-7.219
				c-0.77-0.443-0.999-1.459-0.513-2.268c0.488-0.811,1.506-1.107,2.273-0.662c2.648,1.528,6.264,4.235,8.442,8.457
				c0.41,0.796,0.085,1.82-0.728,2.287C1159.416,1720.483,1159.085,1720.554,1158.769,1720.532z"/>
		</g>
		<g>
			<path class="st9" d="M1171.271,1716.654c-0.524-0.035-1.006-0.326-1.262-0.822c-1.84-3.568-4.964-5.896-7.262-7.223
				c-0.769-0.442-0.998-1.46-0.512-2.268c0.486-0.81,1.505-1.106,2.273-0.661c2.648,1.528,6.262,4.235,8.441,8.462
				c0.411,0.796,0.085,1.819-0.728,2.286C1171.917,1716.604,1171.586,1716.675,1171.271,1716.654z"/>
		</g>
		<g>
			<path class="st9" d="M1148.96,1725.136c-0.451-0.031-0.875-0.25-1.151-0.642c-1.593-2.261-3.835-4.764-6.314-7.053
				c-0.652-0.603-0.666-1.657-0.03-2.357c0.635-0.699,1.678-0.779,2.33-0.178c2.632,2.43,5.024,5.105,6.736,7.537
				c0.514,0.728,0.32,1.777-0.431,2.345C1149.752,1725.048,1149.347,1725.161,1148.96,1725.136z"/>
		</g>
	</g>
	<path class="st19" d="M1269.146,596.222c8.027-19.785,3.104-36.887,15.366-55.092c5.674-8.418,14.137-22.798,20.055-30.92
		c5.443-7.464,11.865-28.781,18.66-27.028c26.75,6.913,42.672,16.16,53.519,18.798c17.005,4.14,35.473-5.971,51.225-24.137
		c6.733-7.768,12.335-16.206,17.537-24.99c10.232,15.012,10.292,31.229,27.144,41.625c7.991,4.93,19.328,10.829,30.452,9.097
		c-16.975,22.132-27.672,22.517-33.556,49.898c-3.798,17.659,17.564,19.721,24.812,30.828
		c11.838,18.134-32.842,53.198-50.931,71.395c-49.612,49.908-104.099,82.6-157.761,68.336
		C1232.885,709.988,1246.862,651.162,1269.146,596.222z"/>
	<path class="st19" d="M1396.235,233.068c27.809-26.184,57.028-47.472,85.523-60.609c47.812-22.044,98.623-42.578,148.261-61.443
		c48.598-18.473,83.89-50.954,133.016-68.302c7.059-2.493,34.794-14.308,35.48-8.052c0.675,6.155-16.641,12.701-23.506,15.544
		c-6.654,2.752-17.331,10.185-23.68,15.153c10.361-2.871,31.192-7.555,45.848-11.892c13.772-4.075,28.16-4.634,16.43,4.896
		c-8.646,7.028-54.239,19.328-56.419,20.822c12.633-3.866,30.626-6.348,49.884-9.001c14.729-2.033,30.851,3.549-6.349,12.012
		c-11.16,2.539-21.729,4.596-39.036,11.615c18.496-1.027,63.02-6.612,63.347-0.743c0.336,6.095-12.656,9.153-25.752,10.479
		c-17.42,1.768-22.042,2.743-38.883,7.894c-39.11,11.962,22.557,13.164,21.523,28.226c-0.359,5.156-5.553-1.688-17.777-0.93
		c-22.352,1.385-38.84-3.886-51.079-6.777c-21.227-5.021-61.671,4.012-90.994,25.339c-16.521,12.013-64.967,51.311-82.649,61.255
		c-75.101,42.231-100.146,36.406-160.803,158.463c-10.539,21.205-21.57,41.51-28.982,72.76
		c-10.056,42.394-9.768,57.909-24.396,70.101c-25.857,21.556-101.345,114.297-112.87,97.09
		c-11.686-17.448,18.227-79.822,24.568-101.28C1258.612,442.328,1330.686,294.796,1396.235,233.068z"/>
	<path class="st19" d="M1066.807,1702.191c0.723,19.249-7.511,47.429-13.938,69.124c16.308,6.428,31.106,6.901,46.175-2.657
		c8.548-5.419,13.009-11.088,19.164-19.71c-12.008-4.683-10.071-19.42-8.671-30.36c1.878-14.658,2.227-29.848,6.365-44.21
		c7.03-24.407,44.446-159.993,47.44-185.267c3.617-30.529,0.416-58.116-1.399-88.146c-2.86-47.106,10.438-128.896,25.5-170.782
		c12.121-33.691-7.291-62.463,1.88-96.995c18.076-68.071,24.933-119.946-0.913-188.385c-14.059-37.203,21.893-6.509-15.825-23.956
		c-14.64-6.777,3.654-3.942-12.06-7.8c-42.342,50.243-53.677,133.324-57.595,197.777c-4.606,75.83,13.409,126.584,12.799,203.479
		c-0.466,57.863-49.755,162.169-52.792,219.248C1060.681,1576.057,1065.871,1677.304,1066.807,1702.191z"/>
	<path class="st19" d="M1494.028,1730.691c1.998,5.741,4.252,12.409,8.316,16.908c3.521,3.896,11.156,4.835,13.736,8.372
		c8.731,11.971-3.268,28.186-13.669,34.151c-4.77,2.738-50.948,10.492-49.623,1.904c2.853-18.488-10.908-62.883-15.656-75.32
		c-8.737-22.875-47.402-119.95-52.418-144.411c-6.056-29.56-13.421-81.127-14.407-111.155
		c-1.541-47.128-15.18-74.908-32.857-113.663c-14.217-31.187-40.522-96.521-52.081-129.054
		c-22.78-64.133-35.501-90.617-17.641-162.939c9.707-39.318,17.033-51.258,50.416-75.246c12.959-9.313,17.467-8.32,31.679-14.937
		c43.665,42.168,34.394,146.748,43.744,209.82c10.998,74.213,33.698,116.994,41.098,192.966
		c5.569,57.174,14.635,101.829,29.471,156.004C1472.208,1553.502,1480.204,1690.93,1494.028,1730.691z"/>
	<path class="st18" d="M1092.126,1366.152c-3.538,40.319-11.985,80.463-23.654,119.193c-17.799,59.092-13.637,119.135-7.994,179.005
		c19.771,1.74,42.656,6.5,62.69,3.414c4.476-23.726,9.011-49.085,14.476-72.375c9.494-40.463,22.391-79.997,28.01-121.082
		c4.788-35,1.679-49.796,7.593-85.326c7.075-42.519,63.094-275.675,53.398-304.665c36.366,108.748,65.897,193.145,117.92,293.362
		c23.582,45.434,18.358,115.851,24.69,167.423c7.631,62.14,45.254,109.997,56.144,170.47c22.874-0.795,41.326-10.595,63.334-15.749
		c2.71-22.109-3.355-45.181-4.916-67.485c-3.623-51.795-52.495-294.561-59.208-360.923c-12.686-125.435-30.32-233.425-47.67-301.434
		c-14.045-55.056-5.626-40.349,0.107-112.675c-0.032,0.424-164.117-86.596-174.054-87.254c-29.146-1.925-26.583,7.484-38.646,34.464
		c-50.643,113.266-66.187,128.569-80.03,232.352c-6.239,46.766,9.576,257.992,8.543,315.552
		C1092.778,1357.008,1092.525,1361.585,1092.126,1366.152z"/>
	<path class="st19" d="M1515.937,628.966c-9.271-10.291-21.262-15.229-36.798-11.327c-17.628,46.237-19.366,96.753-5.28,142.008
		c8.434,27.099,33.081,79.708,19.559,109.899c-16.55,36.947-9.636,131.36-42.665,158.79c-8.443,7.014-20.583,17.675-31.903,18.159
		c-11.031,0.472-18.715-8.764-27.948-13.252c-3.146,19.935,9.135,34.025-12.929,43.936c-3.014,1.354-46.425,13.455-42.35,20.476
		c6.62,11.407,21.396,0.921,36.669,4.015c10.546,2.139,19.658,8.507,30.421,7.688c11.342-0.863,24.836-6.399,35.492-11.001
		c11.879-5.132,15.999-13.781,25.58-23.794c43.021-44.917,74.116-109.045,87.011-172.063c8.447-41.282-1.319-84.44-2.574-126.026
		C1547.331,746.845,1545.128,661.373,1515.937,628.966z"/>
	<path class="st16" d="M1230.44,506.261c-31.571,84.051-27.391,113.211-64.834,219.7c-9.253,26.318-23.438,93.779-25.58,120.899
		c-0.293,3.746,67.972,24.712,76.337,33.151c19.934,20.107,25.286,51.579,50.273,67.363c34.906,22.054,78.188,7.297,115.68-1.941
		c0.3-62.95,17.071-135.346,58.331-191.805c0.015-0.019,34.377,66.909,29.634,68.059c29.452-7.141,66.771-20.387,96.626-18.184
		c-12.808-39.347-12.125-70-17.266-111.517c-4.207-34.008-14.49-61.252-33.689-87.385c-5.961-8.116-33.898-34.566-33.898-34.566
		s-16.32-0.184-25.433-2.602c-24.148-6.406-75.469-32.911-55.45-67.875c-48.467-10.87-52.782-76.371-19.818-116.899
		c-24.575-12.767-52.074-18.647-77.175-29.91C1274.487,403.393,1249.972,454.264,1230.44,506.261z"/>
	<path class="st15" d="M1584.907,493.277c7.262-2.831,14.33-5.874,21.062-9.016c22.097-10.316,47.008-31.806,53.917-56.846
		c7.146-25.897-2.624-51.609,6.058-78.438c9.954-30.772-13.769-65.353-33.764-83.836c-29.889-27.629-76.7-21.434-114.646-15.579
		c-38.171,5.891-92.322,70.004-92.546,109.218c-0.09,15.824,5.117,30.885,2.832,46.867c-2.416,16.905-5.774,31.1-5.018,48.704
		c1.213,28.216-3.437,32.581-28.671,47.759c-87.869,52.855-69.893,180.469,15.947,216.356c7.269-24.526,20.623-44.634,22.863-70.584
		c3.421-39.682-16.827-109.976,14.73-144.52c14.56-15.938,54.999,8.507,75.952,6.135
		C1543.516,507.249,1564.938,501.064,1584.907,493.277z"/>
	<path class="st7" d="M1409.582,475.756c-5.76,1.23,20.625,42.133,28.316,43.675C1462.58,524.377,1437.289,469.843,1409.582,475.756
		z"/>
</g>
<g>
	<g>
		<path class="st5" d="M357.494,982.946c-1.007,0-1.857-0.878-1.933-2.033c-0.308-4.736-0.421-9.474-0.529-14.059
			c-0.36-15.561-0.704-30.253-8.504-43.606c-0.594-1.012-0.35-2.373,0.545-3.047c0.892-0.667,2.094-0.391,2.688,0.623
			c8.414,14.401,8.772,29.706,9.151,45.915c0.107,4.532,0.211,9.218,0.517,13.846c0.08,1.213-0.725,2.269-1.793,2.355
			C357.589,982.946,357.539,982.946,357.494,982.946z"/>
	</g>
	<path class="st6" d="M219.012,649.039c-1.687-0.319-3.367-0.58-5.035-0.781c-8.184-0.976-1.045,46.136-0.188,50.117
		c4.127,19.211,11.043,12.247,24.977,6.838c-4.303,4.917-15.273,7.931-18.048,13.539c-2.642,5.347,1.03,13.953,1.639,20.171
		c2.277,23.222-0.66,47.93,5.513,70.296c7.883,0.593,14.956-1.456,22.671-3.986c-4.13,3.939-15.254,18.275-13.933,21.309
		c3.318,7.616,15.643,26.359,22.386,29.001c13.718,5.374,18.948-8.462,32.374-13.324c0.013-0.006,0.022-0.006,0.032-0.012
		c-9.527,13.535-27.292,26.58-5.843,37.787c28.825,15.061,58.903,10.123,68.798-28.004c3.256-12.537,9.996-47.672-1.948-56.741
		c-9.985-7.577-29.431,2.765-39.853,4.789c5.579-5.792,33.759-14.828,36.107-23.493c2.523-9.445-13.113-29.39-17.686-36.838
		c-3.533-5.75-10.915-21.587-17.151-23.32c-6.761-1.877-20.023,8.277-25.564,11.888c4.996-8.11,13.702-13.164,21.071-17.947
		c-2.434-4.989-7.625-9.467-11.346-13.287c-4.284-4.392-12.836-15.89-18.647-16.918c-5.935-1.051-16.889,8.434-21.494,12.712
		c5.474-5.085,8.707-13.101,15.174-18.146C258.094,661.758,237.681,652.529,219.012,649.039z"/>
	<g>
		<path class="st5" d="M368.865,1007.442c-1.068,0-1.938-0.976-1.943-2.185c-0.009-2.392-0.009-4.887-0.013-7.459
			c-0.029-33.813-0.067-80.114-20.308-96.158c-9.075-7.196-21.805-7.488-37.832-0.872c-1.004,0.414-2.12-0.174-2.485-1.311
			c-0.366-1.143,0.15-2.402,1.156-2.82c17.282-7.135,31.204-6.666,41.386,1.402c21.892,17.352,21.93,64.973,21.958,99.751
			c0.005,2.571,0.005,5.058,0.017,7.44c0.006,1.212-0.858,2.204-1.93,2.211C368.868,1007.442,368.865,1007.442,368.865,1007.442z"/>
	</g>
	<g>
		<path class="st5" d="M383.509,1010.489c-0.975,0-1.818-0.839-1.923-1.964c-5.128-54.122-6.061-100.521-2.932-146.05
			c1.812-26.353,8.815-53.833,15.591-80.41c8.895-34.87,18.092-70.953,15.482-104.498c-0.094-1.211,0.696-2.277,1.764-2.384
			c1.061-0.106,2.004,0.789,2.099,1.999c2.671,34.365-6.628,70.846-15.619,106.102c-6.722,26.365-13.67,53.629-15.45,79.536
			c-3.11,45.249-2.184,91.39,2.922,145.239c0.111,1.201-0.658,2.283-1.723,2.418
			C383.651,1010.482,383.581,1010.489,383.509,1010.489z"/>
	</g>
	<g>
		<path class="st5" d="M386.225,1001.14c-1.045,0-1.904-0.937-1.936-2.128c-2.132-78.567-15.475-149.635-44.617-237.603
			c-0.375-1.135,0.134-2.404,1.135-2.825c1.008-0.427,2.12,0.148,2.5,1.279c29.297,88.446,42.714,159.936,44.855,239.015
			c0.032,1.215-0.805,2.225-1.876,2.263C386.267,1001.14,386.245,1001.14,386.225,1001.14z"/>
	</g>
	<g>
		<path class="st5" d="M388.935,990.757c-0.029,0-0.058,0-0.091,0c-1.067-0.053-1.895-1.079-1.847-2.294
			c1.966-49.342,12.632-83.207,24.986-122.427c4.576-14.536,9.312-29.563,13.869-46.286c0.315-1.16,1.398-1.808,2.421-1.452
			c1.023,0.359,1.596,1.591,1.283,2.747c-4.583,16.816-9.328,31.888-13.921,46.468c-12.249,38.887-22.828,72.465-24.765,121.147
			C390.823,989.841,389.968,990.757,388.935,990.757z"/>
	</g>
	<g>
		<path class="st20" d="M657.998,1020.102c-59.556-94.831-87.224-134.708-121.526-147.278
			c-34.439-12.619-70.213-6.35-100.715,17.652c-34.846,27.419-57.625,73.407-59.451,120.024l-3.873-0.193
			c1.876-47.964,25.297-95.254,61.115-123.438c31.519-24.807,68.494-31.281,104.114-18.227
			c35.414,12.974,63.412,53.237,123.494,148.91L657.998,1020.102z"/>
	</g>
	<g>
		<path class="st5" d="M380.835,1030.207c-0.802,0-1.555-0.576-1.834-1.482c-5.082-16.711-3.676-34.321-2.312-51.345
			c1.568-19.629,3.194-39.919-5.06-59.166c-7.283-16.988-20.016-32.657-34.764-50.796c-27.746-34.144-62.279-76.633-84.013-154.462
			c-0.322-1.158,0.247-2.396,1.267-2.761c1.022-0.368,2.109,0.274,2.433,1.433c21.472,76.9,55.68,118.991,83.168,152.808
			c14.951,18.401,27.865,34.289,35.401,51.859c8.723,20.345,7.048,41.251,5.432,61.484c-1.389,17.325-2.697,33.692,2.114,49.51
			c0.353,1.152-0.186,2.4-1.2,2.799C381.259,1030.162,381.043,1030.207,380.835,1030.207z"/>
	</g>
	<path class="st21" d="M362.15,577.573c-0.219-0.677-0.648-1.409-2.571-1.277c-1.114,0.08-2.46,0.435-3.736,0.777
		c-8.684,2.348-17.364,4.69-26.047,7.033c7.904-5.046,18.434-10.001,29.953-14.093c-6.962-8.427-14.328-15.809-25.999-22.45
		c-11.262-6.408-24.602-11.974-38.689-17.202c-2.421-0.899-5.121-1.816-9.597-1.257c-19.904,2.471-29.367,34.44-31.336,38.742
		c-0.231,0.52-0.45,1.089,0.302,1.29c0.734,0.193,2.142-0.014,3.449-0.222c12.271-1.94,24.544-3.885,36.82-5.829
		c-10.342,2.69-20.687,5.754-30.778,9.116c-2.877,0.957-5.853,1.994-8.014,3.217c-3.604,2.045-3.857,3.939-3.857,5.57
		c-0.003,8.677-0.776,17.547-1.424,26.389c-0.206,2.868-4.117,10.612,1.564,11.019c5.878,0.43,29.896-5.075,38.48-6.157
		c-13.512,3.835-26.736,8.818-37.869,14.274c-1.69,0.83-3.387,1.704-4.378,2.562c-1.116,0.966-1.196,1.797-1.215,2.575
		c-0.389,14.218,6.953,26.999,11.436,39.885c2.596,7.481,5.476,14.879,8.336,22.286c1.582,4.094-0.164,15.631,12.897,15.022
		c3.206-0.15,7.052-0.909,10.793-1.649c10.265-2.041,20.526-4.079,30.784-6.117c-2.911,3.154-10.553,6.542-18.12,9.096
		c-7.565,2.553-15.466,4.573-23.069,7.081c-1.626,0.539-3.335,1.142-4.448,1.841c-1.256,0.79-1.478,1.515-1.589,2.166
		c-1.325,7.045,0.689,12.423,8.763,16.39c8.575,4.223,10.367,11.349,15.658,16.812c5.974,6.165,13.084,11.873,21.685,16.903
		c3.061,1.786,30.132,9.98,28.041,12.292c31.246-34.523,42.264-65.781,42.729-93.582c0.109-6.674,0.257-13.668-3.187-19.317
		c-0.84-1.388-0.818-17.247,0.141-17.313c-15.523,1.102-35.344,7.759-52.134,10.112c-1.533,0.215-3.332,0.162-2.383-0.519
		c11.525-3.974,38.794-13.317,45.611-18.666c6.955-5.449,0.157-13.753,0.36-18.254C380.297,608.387,367.441,593.747,362.15,577.573z
		"/>
	<path class="st5" d="M470.067,562.385c-6.267,3.936-13.979,8.384-18.708,13.426c-5.022,5.365,4.265,10.843,8.802,15.525
		c0.693,0.712,1.42,1.615,0.956,2.428c-6.796-1.439-13.856-2.171-20.92-2.17c-1.279,0.001-2.624,0.039-3.721,0.535
		c-0.817,0.373-1.406,0.962-1.972,1.542c-4.043,4.15-8.783,7.68-8.651,12.936c0.129,5.496,2.341,11.149,5.64,16.017
		c-3.114-2.548-6.651-4.804-10.511-6.698c-1.518-0.744-3.691-1.393-4.974-0.425c-0.499,0.373-0.712,0.904-0.889,1.418
		c-0.862,2.535-1.317,5.157-2.514,7.615c-1.267,2.607-4.006,3.839-5.713,6.064c-5.142,6.718,3.424,13.733,9.507,18.568
		c-3.716-1.399-7.469-2.806-11.506-3.551c-0.613-0.114-1.314-0.197-1.824,0.078c-0.312,0.172-0.488,0.442-0.646,0.713
		c-11.592,19.553,0.147,49.036-0.116,70.303c-0.098,8.056-3.023,68.447-7.663,68.918c1.949-0.198,12.114-48.92,42.94-108.021
		c39.391-75.535,110.76-75.849,160.159-78.833c-16.624-44.867-37.592-44.7-47.565-48.253c-12.467-4.44-14.62,12.924-14.36,19.227
		c0.04-6.624,0.055-13.356-2.431-19.706c-0.272-0.693-0.615-1.427-1.4-1.851c-0.802-0.431-1.872-0.43-2.871-0.404
		c-7.612,0.155-25.357-3.195-31.373,1.425c-3.056,2.35-3.569,10.32-4.297,13.491c-1.186,5.137-1.92,10.331-2.189,15.54
		c1.359-0.03,1.289-1.576,0.749-2.508c-2.398-4.16-4.793-8.32-7.188-12.479c-1.212-2.108-2.989-4.534-6.047-4.692
		c-2.098-0.113-3.96,0.931-5.602,1.915C472.131,561.104,471.096,561.739,470.067,562.385z"/>
	<g>
		<polygon class="st22" points="282.052,1525.111 279.161,1524.742 321.852,1090.773 324.741,1091.143 		"/>
	</g>
	<g>
		<polygon class="st22" points="281.576,1525.586 278.752,1524.811 370.972,1093.815 373.8,1094.588 		"/>
	</g>
	<g>
		<polygon class="st22" points="489.019,1529.398 449.544,1093.315 452.436,1092.971 491.91,1529.053 		"/>
	</g>
	<g>
		<polygon class="st22" points="409.849,1509.982 406.962,1509.557 451.484,1088.242 454.37,1088.666 		"/>
	</g>
	<g>
		<polygon class="st22" points="406.973,1509.016 322.904,1091.334 325.726,1090.523 409.792,1508.203 		"/>
	</g>
	<path class="st9" d="M320.739,962.893c4.346,159.031-12.079,211.885,67.84,209.629c74.105-2.09,59.245-69.105,58.557-213.196
		L320.739,962.893z"/>
	<g>
		<path class="st22" d="M373.828,1103.734c-13.978,0-26.865-0.688-37.158-2.008c-21.802-2.807-21.898-7.15-21.937-8.793
			c-0.066-3.023,3.479-4.838,6.154-5.939l0.991,3.102c-3.947,1.623-4.232,2.754-4.236,2.768c0.006,0.012,1.209,3.334,20.032,5.674
			c13.105,1.627,30.372,2.238,48.629,1.727c18.249-0.516,35.468-2.104,48.486-4.471c18.702-3.402,19.754-6.781,19.76-6.816l0,0
			c0,0-0.432-1.322-5.544-2.889l0.757-3.184c5.195,1.592,7.641,3.5,7.695,6.004c0.035,1.641,0.129,5.984-21.523,10.016
			c-13.224,2.461-30.825,4.105-49.565,4.637C382.121,1103.682,377.924,1103.734,373.828,1103.734z"/>
	</g>
	<g>
		<polygon class="st22" points="487.279,1532.373 364.112,1102.916 366.88,1101.9 490.048,1531.361 		"/>
	</g>
	<path class="st6" d="M451.68,813.552c-2.473,2.221-30.502,32.787-30.174,33.051c-5.031-4.054,0.359-32.167,1.077-38.083
		c4.108-33.763,9.181-89.981,32.907-114.07c3.848,4.647,7.708,9.591,10.986,14.814c-2.836-16.044-9.251-19.643-6.063-23.288
		c15.045-17.185,59.45-43.107,76.456-40.331c0.778,7.624,1.426,15.341,1.551,23.016c3.092-14.671,0.767-25.811,5.112-26.089
		c5.169-0.334,37.499-5.399,45.957-6.167c18.065-1.635,9.8-1.298,14.609,31.326c0,0.349-0.003,0.46-0.009,0.336
		c-1.401-19.177,2.783-32.257,7.813-32.796c13.225-1.422,51.316,2.061,53.939,21.415c2.822,20.819-36.989,59.394-48.282,72.303
		c-6.163-5.323-12.666-13.948-18.23-20.191c7.211,12.132,13.985,25.982,7.301,34.653c-14.593,18.93-22.726,25.59-53.239,39.578
		c-7.453,3.415-14.167,4.29-17.871-7.439c-1.404-4.451-3.956-9.816-3.636-18.865c-1.133,32.128,4.13,28.972-13.699,33.202
		C499.591,794.334,466.771,800,451.68,813.552z"/>
	<path class="st5" d="M545.599,922.87c-11.48-10.079-15.51-16.325-5.778-30.142c-12.823,18.197-25.346,6.728-38.708-4.3
		c-9.553-7.886-11.605-9.428,0.974-21.196c-5.104,4.775-11.707,11.729-18.431,11.858c-2.434,0.047-18.983-11.153-19.971-9.656
		c34.517-52.371,117.53-34.259,157.32,4.053c0.042,0.045,6.524,7.962,6.564,8.017c42.61,58.525,67.594,168.096,53.1,165.236
		c-9.296-1.834-37.589-7.506-43.092-17.17c-6.695-11.762,2.271-16.739,2.565-29.965c-0.006,0.263,0,0.523,0.023,0.783
		c-34.971,30.9-42.921-13.754-34.683-48.345c-9.618,40.387-28.698,10.513-40.61-6.802c4.874-7.694,10.941-14.779,15.459-22.549
		C563.95,930.759,559.365,934.959,545.599,922.87z"/>
	<path class="st5" d="M180.811,899.208c-14.363-2.433-20.576-5.647-18.047-23.095c-3.331,22.982-19.208,19.917-35.619,17.705
		c-11.734-1.587-14.189-1.796-8.296-19.031c-2.392,6.996-5.149,16.726-10.964,20.56c-2.1,1.392-21.369,0.789-21.583,2.645
		c7.513-64.812,87.737-95.022,138.972-83.658c0.061,0.013,9.127,3.326,9.188,3.355c62.427,27.439,131.495,109.169,117.62,114.707
		c-8.905,3.551-36.026,14.281-44.999,8.901c-10.916-6.546-5.242-15.849-10.694-27.55c0.112,0.235,0.229,0.455,0.358,0.67
		c-17.168,46.327-43.368,11.792-51.106-22.946c9.036,40.558-20.497,25.074-38.361,16.575c0.933-9.417,3.164-18.964,3.751-28.247
		C200.222,895.918,198.034,902.119,180.811,899.208z"/>
	<path class="st5" d="M526.984,1133.16c1.696,0.254,3.38,0.457,5.058,0.594c8.202,0.672-0.276-46.145-1.242-50.096
		c-4.675-19.055-11.39-11.838-25.159-5.922c4.156-5.068,15.036-8.486,17.646-14.191c2.488-5.438-1.424-13.91-2.213-20.1
		c-2.94-23.139-0.708-47.953-7.516-70.078c-7.898-0.303-14.911,2.005-22.547,4.814c4.016-4.086,14.727-18.827,13.314-21.809
		c-3.533-7.486-16.385-25.756-23.203-28.147c-13.865-4.873-18.694,9.145-31.976,14.492c-0.01,0.005-0.02,0.008-0.032,0.014
		c9.136-13.869,26.52-27.559,4.765-37.973c-29.242-13.997-59.165-7.955-67.967,30.514c-2.891,12.641-8.623,48.004,3.571,56.627
		c10.198,7.207,29.339-3.838,39.694-6.246c-5.41,5.99-33.319,16.053-35.41,24.805c-2.258,9.537,13.936,28.916,18.727,36.189
		c3.694,5.619,11.522,21.176,17.807,22.68c6.811,1.627,19.773-9.01,25.207-12.818c-4.758,8.289-13.316,13.66-20.544,18.707
		c2.574,4.9,7.891,9.184,11.72,12.865c4.402,4.234,13.282,15.41,19.118,16.227c5.968,0.834,16.64-9.053,21.116-13.494
		c-5.323,5.281-8.321,13.41-14.641,18.691C487.561,1121.883,508.226,1130.355,526.984,1133.16z"/>
	<path class="st6" d="M247.102,988.062c0.92,18.466,11.598,44.632,12.546,55.515c1.011,11.539,17.609,1.518,31.949,0.439
		c-7.366,4.006-15.335,7.354-22.363,11.412c-4.784,2.76,25.762,55.705,29.363,60.027c3.374,4.041,9.826,10.826,13.815,3.652
		c8.209-14.781,21.41-58.746,22.654-96.604c0.448-13.761-7.949-19.18-27.055-17.512c50.983-4.457,19.612-24.466,21.285-63.887
		c0.203-4.702-0.121-9.293,0.184-12.418c0.225-2.249-3.604-6.725-12.221-11.458c4.156-1.391,9.682,2.315,12.881,4.58
		c0.458-2.167,11.41-28.713,13.438-22.982c-1.656-4.676-6.268-5.711-10.236-6.972c-11.189-3.555-23.335-4.246-34.824-2.337
		c-11.179,1.854-25.314,13.817-28.328,26.591c8.112-3.532,17.338-1.945,20.362-0.474c-9.148,0.946-19.445,3.568-22.167,6.837
		c-4.38,5.266-6.66,14.529-9.018,21.007c-4.97,13.673-6.087,17.235,7.603,21.259c0.029,0,0.055,0,0.074-0.004
		c-10.508,4.709-13.391-1.891-16.12,3.05C247.743,973.651,246.73,980.614,247.102,988.062z"/>
	<g>
		<path class="st22" d="M384.161,1553.164c-52.083,0-107.436-8.186-107.436-23.355c0-15.174,55.353-23.355,107.436-23.355
			c52.079,0,107.429,8.182,107.429,23.355C491.59,1544.979,436.24,1553.164,384.161,1553.164z M384.161,1509.959
			c-28.117,0-54.53,2.234-74.379,6.291c-21.789,4.455-29.553,9.924-29.553,13.559c0,3.633,7.764,9.102,29.553,13.557
			c19.849,4.061,46.262,6.293,74.379,6.293c28.111,0,54.524-2.232,74.374-6.293c21.789-4.455,29.553-9.924,29.553-13.557
			c0-3.635-7.764-9.104-29.553-13.559C438.685,1512.193,412.272,1509.959,384.161,1509.959z"/>
	</g>
</g>
<g>
	<path class="st23" d="M1979.542,1483.074l162.207-98.992c7.899-4.344,11.957-6.41,18.497-5.595l439.932,77.562
		c6.537,0.815,6.258,3.356,5.173,8.551l-139.062,119.491c-9.522,7.122-14.883,8.374-21.424,7.556l-463.227-88.193
		C1969.531,1501.517,1969.037,1488.619,1979.542,1483.074z"/>
	<path class="st24" d="M2105.205,1467.238l88.424-51.082c4.782-2.633,7.242-3.882,11.203-3.387l266.451,46.974
		c3.96,0.495,3.791,2.032,3.132,5.182l-74.405,63.495c-5.768,4.314-9.013,5.071-12.975,4.576l-280.561-53.413
		C2099.142,1478.411,2098.84,1470.595,2105.205,1467.238z"/>
	<g>
		<path class="st23" d="M2150.741,1373.719c0,6.908,4.676,13.353,10.459,14.403l434.832,78.774
			c7.059,1.279,12.795-3.892,12.795-11.553v-355.056c0-7.66-5.736-14.439-12.795-15.141l-434.832-43.051
			c-5.783-0.572-10.459,4.566-10.459,11.473V1373.719z"/>
		<path class="st25" d="M2173.778,1367.124c0,1.042,0.944,2.053,2.11,2.256l402.397,70.864c1.398,0.247,2.534-0.479,2.534-1.621l0,0
			c0-1.143-1.136-2.268-2.534-2.512l-402.397-70.503C2174.723,1365.404,2173.778,1366.082,2173.778,1367.124L2173.778,1367.124z"/>
		<path class="st25" d="M2361.64,1075.868c0,3.897,2.77,7.349,6.19,7.705c3.429,0.355,6.211-2.527,6.211-6.438
			s-2.782-7.359-6.211-7.704C2364.409,1069.087,2361.64,1071.968,2361.64,1075.868z"/>
		<polygon class="st17" points="2159.75,1333.74 2597.772,1407.462 2597.772,1114.068 2159.75,1067.992 		"/>
		<g>
			<defs>
				<polygon id="SVGID_3_" points="2159.761,1333.743 2597.787,1407.465 2597.787,1114.07 2159.761,1067.995 				"/>
			</defs>
			<clipPath id="SVGID_4_">
				<use xlink:href="#SVGID_3_"  style="overflow:visible;"/>
			</clipPath>
			<polygon class="st26" points="2159.761,1333.743 2597.787,1407.465 2597.787,1114.07 2159.761,1067.995 			"/>
			<g class="st27">
				<g class="st28">
					<polygon class="st29" points="2182.871,1264.911 2348.18,1289.158 2348.18,1123.296 2182.871,1105.283 					"/>
					<g>
						<defs>
							<polygon id="SVGID_5_" points="2191.018,1256.755 2339.23,1278.168 2339.23,1134.86 2191.018,1118.286 							"/>
						</defs>
						<use xlink:href="#SVGID_5_"  style="overflow:visible;fill:#DFE2F3;"/>
						<clipPath id="SVGID_6_">
							<use xlink:href="#SVGID_5_"  style="overflow:visible;"/>
						</clipPath>
						<path class="st30" d="M2241.442,1287.014c18.897,12.618,37.996,15.772,59.549,17.951c0.002,0,0.003,0,0.005,0
							c-17.372-7.849-27.55-21.11-31.185-36.767c-3.682-15.849,0.602-29.918-17.128-42.654
							c-12.707-9.129-27.369-13.25-39.187-23.557c-10.85-9.462-21.195-21.082-36.168-22.29c-34.398-2.775-16.62,48.817,1.48,64.347
							c9.594,8.23,12.629,10.703,23.096,17.494C2212.934,1268.69,2230.298,1279.57,2241.442,1287.014z"/>
						<path class="st31" d="M2216.02,1128.181c1.925-5.771,3.696-5.5,9.447-4.301c15.231,3.168,30.411,12.925,42.811,24.891
							c7.549,7.284,16.624,9.277,23.526,17.205c6.086,6.988,10.411,16.347,18.592,20.45c9.549,4.792,17.824-0.276,27.348,1.722
							c9.074,1.901,8.999,10.637,15.969,15.706c3.397,2.472,7.778,3.13,10.869,6.29c8.248,8.43-3.217,14.535-9.37,14.814
							c-3.627,0.165-7.267-0.266-10.857-1.184c-11.408-2.912-25.269-10.721-32.979-21.649
							c-9.709-13.764-23.834-16.372-36.888-13.999c-5.976,1.088-15.847,3.35-21.477-2.25c-3.791-3.773-5.417-9.068-10.243-11.689
							c-4.228-2.294-8.464-2.666-12.361-6.077C2220.95,1159.834,2211.897,1140.548,2216.02,1128.181z"/>
						<path class="st31" d="M2122.346,1134.465c1.84-5.643,3.533-5.373,9.034-4.193c14.567,3.12,29.083,12.685,40.938,24.401
							c7.217,7.131,15.893,9.092,22.489,16.853c5.817,6.838,9.952,15.993,17.769,20.015c9.126,4.695,17.033-0.252,26.133,1.713
							c8.667,1.87,8.595,10.408,15.254,15.368c3.246,2.421,7.429,3.066,10.382,6.157c7.876,8.249-3.072,14.205-8.949,14.471
							c-3.468,0.158-6.942-0.266-10.374-1.165c-10.897-2.86-24.142-10.505-31.509-21.196c-9.278-13.465-22.779-16.033-35.258-13.727
							c-5.713,1.057-15.15,3.258-20.533-2.227c-3.625-3.692-5.181-8.871-9.795-11.441c-4.044-2.25-8.096-2.618-11.824-5.959
							C2127.06,1165.43,2118.4,1146.556,2122.346,1134.465z"/>
					</g>
					<g>
						<path class="st29" d="M2304.806,1278.293c-0.458,0-0.829-0.371-0.829-0.829V1127.4c0-0.458,0.371-0.829,0.829-0.829
							s0.829,0.371,0.829,0.829v150.063C2305.635,1277.922,2305.264,1278.293,2304.806,1278.293z"/>
					</g>
					<g>
						<path class="st29" d="M2264.956,1272.496c-0.458,0-0.829-0.371-0.829-0.829v-148.689c0-0.458,0.371-0.829,0.829-0.829
							s0.829,0.371,0.829,0.829v148.689C2265.785,1272.125,2265.414,1272.496,2264.956,1272.496z"/>
					</g>
					<g>
						<path class="st29" d="M2225.832,1266.806c-0.458,0-0.829-0.371-0.829-0.829v-147.342c0-0.458,0.371-0.829,0.829-0.829
							s0.829,0.371,0.829,0.829v147.342C2226.661,1266.435,2226.29,1266.806,2225.832,1266.806z"/>
					</g>
					<g>
						<path class="st29" d="M2343.455,1176.189c-0.033,0-0.066-0.002-0.101-0.006l-156.739-18.953
							c-0.455-0.055-0.778-0.468-0.724-0.923c0.056-0.454,0.468-0.773,0.923-0.724l156.739,18.953
							c0.455,0.055,0.778,0.468,0.724,0.923C2344.227,1175.881,2343.868,1176.189,2343.455,1176.189z"/>
					</g>
					<g>
						<path class="st29" d="M2343.455,1229.624c-0.036,0-0.073-0.002-0.11-0.007l-156.739-20.862
							c-0.454-0.061-0.773-0.478-0.713-0.932s0.472-0.773,0.932-0.713l156.739,20.862c0.454,0.061,0.773,0.478,0.713,0.932
							C2344.221,1229.321,2343.864,1229.624,2343.455,1229.624z"/>
					</g>
				</g>
				<g class="st28">
					<polygon class="st29" points="2387.887,1294.981 2569.939,1321.684 2569.939,1147.461 2387.887,1127.623 					"/>
					<g>
						<defs>
							<polygon id="SVGID_7_" points="2396.844,1286.489 2560.065,1310.07 2560.065,1159.554 2396.844,1141.302 							"/>
						</defs>
						<use xlink:href="#SVGID_7_"  style="overflow:visible;fill:#DFE2F3;"/>
						<clipPath id="SVGID_8_">
							<use xlink:href="#SVGID_7_"  style="overflow:visible;"/>
						</clipPath>
						<path class="st32" d="M2509.438,1116.034c-19.981-14.898-40.819-19.837-64.031-23.896c-0.001,0-0.003,0-0.004-0.002
							c18.043,9.513,27.846,24.072,30.231,40.552c2.421,16.731-3.778,30.723,14.601,46.048c13.36,11.139,29.66,17.43,42.209,29.936
							c11.646,11.604,22.573,25.543,40.313,29.221c41.768,8.662,25.654-50.155,5.375-69.307
							c-10.606-10.019-13.955-13.029-25.627-21.498C2540.336,1138.26,2521.388,1124.946,2509.438,1116.034z"/>
						<path class="st33" d="M2341.013,1127.304c2.037-5.943,3.915-5.663,10.008-4.432c16.141,3.259,32.23,13.302,45.376,25.619
							c8.003,7.501,17.627,9.554,24.946,17.719c6.453,7.196,11.042,16.835,19.718,21.063c10.134,4.94,18.912-0.282,29.018,1.778
							c9.63,1.963,9.551,10.961,16.949,16.186c3.607,2.548,8.257,3.227,11.538,6.483c8.754,8.688-3.414,14.975-9.947,15.261
							c-3.852,0.168-7.712-0.278-11.524-1.225c-12.105-3.007-26.813-11.054-34.992-22.314c-10.3-14.178-25.28-16.869-39.121-14.426
							c-6.337,1.119-16.801,3.447-22.769-2.322c-4.019-3.886-5.743-9.334-10.857-12.035c-4.48-2.362-8.97-2.746-13.101-6.258
							C2346.234,1159.884,2336.645,1140.034,2341.013,1127.304z"/>
						<path class="st33" d="M2432.41,1231.716c2.125-6.018,4.08-5.686,10.431-4.281c16.822,3.717,33.593,14.362,47.297,27.262
							c8.346,7.852,18.379,10.184,26.014,18.699c6.731,7.509,11.517,17.463,20.565,21.996c10.569,5.293,19.728,0.177,30.271,2.529
							c10.047,2.24,9.964,11.43,17.685,16.951c3.763,2.689,8.615,3.502,12.04,6.908c9.138,9.092-3.564,15.213-10.381,15.343
							c-4.02,0.075-8.048-0.474-12.025-1.536c-12.631-3.371-27.973-11.955-36.504-23.656c-10.743-14.732-26.365-17.85-40.8-15.695
							c-6.605,0.986-17.517,3.105-23.738-2.929c-4.188-4.067-5.983-9.675-11.315-12.554c-4.67-2.524-9.35-3.027-13.653-6.711
							C2437.854,1265.101,2427.859,1244.604,2432.41,1231.716z"/>
					</g>
					<g>
						<path class="st29" d="M2522.106,1309.897c-0.458,0-0.829-0.371-0.829-0.829v-157.55c0-0.458,0.371-0.829,0.829-0.829
							s0.829,0.371,0.829,0.829v157.55C2522.936,1309.526,2522.564,1309.897,2522.106,1309.897z"/>
					</g>
					<g>
						<path class="st29" d="M2478.202,1303.511c-0.458,0-0.829-0.371-0.829-0.829v-156.036c0-0.458,0.371-0.829,0.829-0.829
							s0.829,0.371,0.829,0.829v156.036C2479.031,1303.14,2478.66,1303.511,2478.202,1303.511z"/>
					</g>
					<g>
						<path class="st29" d="M2435.134,1297.248c-0.458,0-0.829-0.371-0.829-0.829v-154.555c0-0.458,0.371-0.829,0.829-0.829
							s0.829,0.371,0.829,0.829v154.555C2435.963,1296.877,2435.592,1297.248,2435.134,1297.248z"/>
					</g>
					<g>
						<path class="st29" d="M2564.727,1202.947c-0.033,0-0.066-0.002-0.101-0.006l-172.612-20.873
							c-0.455-0.055-0.778-0.468-0.724-0.923s0.465-0.776,0.923-0.724l172.612,20.873c0.455,0.055,0.778,0.468,0.724,0.923
							C2565.498,1202.639,2565.141,1202.947,2564.727,1202.947z"/>
					</g>
					<g>
						<path class="st29" d="M2564.727,1259.072c-0.036,0-0.073-0.002-0.11-0.007l-172.612-22.973
							c-0.454-0.061-0.773-0.478-0.713-0.932s0.471-0.773,0.932-0.713l172.612,22.973c0.454,0.061,0.773,0.478,0.713,0.932
							C2565.492,1258.77,2565.136,1259.072,2564.727,1259.072z"/>
					</g>
				</g>
			</g>
			<g class="st27">
				<g>
					<path class="st5" d="M2611.138,1399.97c0.223,0.031,0.413-0.159,0.428-0.438c0.07-1.149,0.094-2.306,0.117-3.422
						c0.083-3.799,0.159-7.384,1.896-10.416c0.13-0.23,0.076-0.574-0.123-0.763c-0.197-0.193-0.467-0.159-0.597,0.071
						c-1.873,3.271-1.952,7.005-2.035,10.96c-0.024,1.104-0.047,2.249-0.115,3.372c-0.018,0.293,0.159,0.575,0.396,0.631
						C2611.116,1399.969,2611.126,1399.969,2611.138,1399.97z"/>
				</g>
				<path class="st6" d="M2642.072,1322.118c0.378-0.029,0.756-0.048,1.129-0.05c1.839-0.011,0.236,11.371,0.044,12.327
					c-0.926,4.604-2.479,2.695-5.602,0.972c0.962,1.329,3.422,2.382,4.046,3.839c0.594,1.39-0.23,3.398-0.368,4.912
					c-0.511,5.643,0.148,11.805-1.236,17.119c-1.768-0.082-3.354-0.792-5.081-1.639c0.925,1.086,3.419,4.936,3.122,5.641
					c-0.744,1.773-3.505,6.012-5.017,6.461c-3.067,0.915-4.234-2.637-7.235-4.225c-0.004-0.004-0.006-0.002-0.01-0.004
					c2.129,3.602,6.104,7.33,1.308,9.44c-6.436,2.835-13.135,0.732-15.336-8.893c-0.726-3.164-2.223-11.954,0.432-13.827
					c2.224-1.57,6.554,1.527,8.876,2.327c-1.245-1.585-7.521-4.61-8.04-6.798c-0.562-2.383,2.917-6.824,3.935-8.518
					c0.788-1.309,2.432-4.976,3.825-5.227c1.506-0.268,4.467,2.598,5.706,3.639c-1.117-2.127-3.06-3.616-4.705-4.994
					c0.541-1.153,1.7-2.107,2.532-2.938c0.956-0.955,2.864-3.535,4.163-3.622c1.328-0.094,3.778,2.544,4.808,3.722
					c-1.225-1.404-1.947-3.459-3.394-4.879C2633.312,1324.147,2637.885,1322.455,2642.072,1322.118z"/>
				<g>
					<path class="st5" d="M2608.611,1405.614c0.235,0.032,0.43-0.179,0.43-0.477c0.003-0.583,0.003-1.192,0.003-1.822
						c0.007-8.271,0.015-19.594,4.517-22.914c2.021-1.491,4.856-1.184,8.43,0.913c0.222,0.131,0.47,0.022,0.555-0.248
						c0.08-0.269-0.036-0.593-0.26-0.724c-3.854-2.264-6.955-2.564-9.219-0.889c-4.87,3.591-4.878,15.237-4.883,23.74
						c0,0.63-0.001,1.236-0.004,1.82c-0.002,0.298,0.19,0.565,0.429,0.6C2608.608,1405.614,2608.608,1405.614,2608.611,1405.614z"/>
				</g>
				<g>
					<path class="st5" d="M2605.357,1405.912c0.217,0.029,0.404-0.148,0.429-0.425c1.136-13.074,1.345-24.393,0.649-35.616
						c-0.402-6.496-1.957-13.417-3.46-20.107c-1.973-8.782-4.013-17.852-3.433-25.976c0.021-0.291-0.154-0.574-0.389-0.629
						c-0.237-0.056-0.446,0.137-0.468,0.428c-0.59,8.318,1.469,17.49,3.462,26.367c1.491,6.636,3.034,13.5,3.429,19.887
						c0.689,11.157,0.484,22.408-0.647,35.418c-0.026,0.29,0.146,0.579,0.381,0.644
						C2605.325,1405.906,2605.341,1405.909,2605.357,1405.912z"/>
				</g>
				<g>
					<path class="st5" d="M2604.754,1403.542c0.232,0.032,0.424-0.169,0.432-0.462c0.472-19.139,3.437-36.122,9.917-56.809
						c0.084-0.267-0.029-0.591-0.253-0.722c-0.225-0.135-0.472-0.027-0.557,0.241c-6.515,20.793-9.493,37.876-9.969,57.139
						c-0.007,0.298,0.181,0.568,0.417,0.612C2604.746,1403.542,2604.749,1403.542,2604.754,1403.542z"/>
				</g>
				<g>
					<path class="st5" d="M2605.951,1410.812c0.178,0.027,0.346-0.091,0.407-0.307c1.128-3.928,0.815-8.277,0.514-12.481
						c-0.347-4.849-0.711-9.856,1.123-14.315c1.618-3.938,4.451-7.396,7.733-11.397c6.183-7.547,13.894-16.961,18.756-35.445
						c0.072-0.275-0.054-0.594-0.282-0.713c-0.229-0.118-0.474,0.006-0.544,0.281c-4.804,18.265-12.441,27.586-18.567,35.062
						c-3.325,4.061-6.197,7.565-7.868,11.638c-1.938,4.714-1.568,9.875-1.209,14.87c0.309,4.279,0.599,8.319-0.47,12.039
						c-0.078,0.271,0.041,0.593,0.266,0.72C2605.858,1410.789,2605.903,1410.807,2605.951,1410.812z"/>
				</g>
				<path class="st21" d="M2610.103,1300.654c0.048-0.161,0.142-0.327,0.572-0.243c0.247,0.05,0.545,0.172,0.829,0.291
					c1.932,0.812,3.864,1.619,5.799,2.432c-1.763-1.451-4.104-2.952-6.667-4.266c1.548-1.871,3.186-3.482,5.786-4.793
					c2.508-1.266,5.482-2.271,8.626-3.176c0.542-0.155,1.145-0.307,2.144-0.05c4.45,1.14,6.568,9.243,7.008,10.353
					c0.052,0.136,0.101,0.281-0.067,0.311c-0.163,0.026-0.478-0.062-0.772-0.148c-2.745-0.811-5.486-1.619-8.23-2.428
					c2.309,0.937,4.622,1.97,6.88,3.07c0.643,0.311,1.312,0.648,1.793,1.008c0.808,0.599,0.865,1.071,0.865,1.473
					c0,2.131,0.171,4.328,0.318,6.518c0.046,0.711,0.922,2.722-0.353,2.662c-1.314-0.057-6.687-2.068-8.604-2.57
					c3.02,1.312,5.976,2.902,8.469,4.547c0.379,0.252,0.758,0.514,0.979,0.751c0.25,0.27,0.269,0.477,0.274,0.667
					c0.088,3.502-1.557,6.436-2.562,9.474c-0.582,1.763-1.224,3.499-1.864,5.236c-0.355,0.96,0.036,3.839-2.885,3.321
					c-0.717-0.13-1.575-0.426-2.41-0.709c-2.294-0.791-4.581-1.58-6.869-2.372c0.65,0.856,2.353,1.902,4.039,2.743
					c1.691,0.841,3.456,1.559,5.153,2.391c0.363,0.176,0.747,0.373,0.995,0.576c0.283,0.23,0.331,0.413,0.355,0.575
					c0.295,1.769-0.154,3.03-1.959,3.772c-1.917,0.789-2.313,2.489-3.497,3.677c-1.331,1.339-2.919,2.536-4.836,3.524
					c-0.685,0.347-6.711,1.576-6.244,2.2c-6.947-9.345-9.392-17.296-9.494-24.103c-0.023-1.637-0.058-3.35,0.708-4.634
					c0.186-0.315,0.179-4.195-0.032-4.235c3.447,0.697,7.852,2.878,11.589,3.919c0.34,0.097,0.74,0.131,0.53-0.062
					c-2.565-1.293-8.63-4.334-10.145-5.83c-1.541-1.525-0.033-3.367-0.079-4.471
					C2606.071,1307.698,2608.927,1304.468,2610.103,1300.654z"/>
				<g>
					<polygon class="st22" points="2627.953,1535.261 2628.601,1535.271 2619.071,1427.471 2618.429,1427.471 					"/>
				</g>
				<g>
					<polygon class="st22" points="2628.061,1535.392 2628.692,1535.303 2608.143,1426.673 2607.514,1426.775 					"/>
				</g>
				<g>
					<polygon class="st22" points="2582.022,1529.1 2590.732,1424.102 2590.092,1423.926 2581.384,1528.916 					"/>
				</g>
				<g>
					<polygon class="st22" points="2599.516,1527.102 2600.155,1527.1 2590.303,1422.801 2589.666,1422.813 					"/>
				</g>
				<g>
					<polygon class="st22" points="2600.152,1526.97 2618.838,1427.574 2618.209,1427.286 2599.53,1526.67 					"/>
				</g>
				<g>
					<path class="st22" d="M2607.508,1429.01c3.105,0.442,5.971,0.678,8.262,0.676c4.86,0,4.881-1.064,4.889-1.463
						c0.015-0.74-0.775-1.293-1.373-1.649l-0.22,0.729c0.882,0.522,0.943,0.808,0.944,0.812c-0.001,0.001-0.267,0.777-4.464,0.761
						c-2.915-0.015-6.754-0.406-10.81-1.104c-4.048-0.7-7.861-1.624-10.741-2.607c-4.135-1.414-4.369-2.272-4.37-2.279l0,0
						c0.005,0,0.098-0.311,1.228-0.533l-0.168-0.801c-1.148,0.229-1.688,0.618-1.7,1.227c-0.008,0.4-0.028,1.457,4.758,3.111
						c2.925,1.016,6.824,1.97,10.981,2.685C2605.667,1428.737,2606.597,1428.883,2607.508,1429.01z"/>
				</g>
				<g>
					<polygon class="st22" points="2582.403,1529.883 2609.666,1429.115 2609.051,1428.781 2581.795,1529.543 					"/>
				</g>
				<path class="st5" d="M2650.658,1384.766c3.231-0.165,4.632-0.768,4.062-5.142c0.752,5.758,4.33,5.483,8.033,5.432
					c2.651-0.037,3.206-0.014,1.875-4.443c0.539,1.795,1.164,4.28,2.478,5.402c0.475,0.407,4.837,0.844,4.885,1.307
					c-1.702-16.227-19.81-26.043-31.325-24.75c-0.011,0.003-2.046,0.551-2.06,0.555c-13.967,4.9-29.35,22.866-26.265,24.636
					c1.981,1.139,8.024,4.582,10.025,3.535c2.435-1.274,1.167-3.726,2.385-6.43c-0.024,0.055-0.051,0.104-0.079,0.151
					c3.835,11.883,9.697,4.2,11.431-4.098c-2.024,9.686,4.593,6.773,8.603,5.224c-0.209-2.345-0.71-4.757-0.843-7.06
					C2646.291,1383.375,2646.784,1384.964,2650.658,1384.766z"/>
				<path class="st6" d="M2635.774,1404.598c-0.207,4.505-2.599,10.599-2.811,13.242c-0.224,2.802-3.938-0.176-7.145-0.886
					c1.647,1.211,3.428,2.281,5.001,3.495c1.07,0.828-5.758,12.854-6.561,13.801c-0.756,0.886-2.194,2.344-3.084,0.458
					c-1.83-3.878-4.77-15.062-5.049-24.369c-0.099-3.382,1.771-4.452,6.03-3.459c-11.355-2.652-4.371-6.594-4.746-16.3
					c-0.043-1.157,0.029-2.271-0.039-3.048c-0.05-0.555,0.803-1.535,2.723-2.438c-0.926-0.464-2.158,0.277-2.87,0.735
					c-0.101-0.544-2.54-7.371-2.991-6.029c0.369-1.091,1.395-1.211,2.277-1.401c2.493-0.537,5.202-0.345,7.765,0.465
					c2.499,0.787,5.658,4.144,6.33,7.371c-1.813-1.111-3.874-1-4.551-0.729c2.043,0.506,4.348,1.46,4.957,2.344
					c0.979,1.424,1.488,3.769,2.017,5.427c1.11,3.509,1.362,4.416-1.703,4.988c-0.006,0-0.011,0-0.016-0.003
					c2.353,1.478,2.997-0.057,3.609,1.239C2635.63,1401.038,2635.856,1402.778,2635.774,1404.598z"/>
				<g>
					<path class="st22" d="M2605.214,1538.55c11.579,1.83,23.932,1.771,23.932-1.95c0-3.722-12.353-7.655-23.932-9.467
						c-11.54-1.801-23.759-1.717-23.759,1.978C2581.455,1532.807,2593.674,1536.73,2605.214,1538.55z M2605.214,1527.99
						c6.247,0.977,12.124,2.442,16.549,4.129c4.864,1.852,6.6,3.466,6.6,4.355c0,0.894-1.735,1.963-6.6,2.29
						c-4.425,0.294-10.302-0.083-16.549-1.068c-6.235-0.985-12.082-2.454-16.468-4.134c-4.809-1.843-6.52-3.443-6.52-4.329
						s1.711-1.949,6.52-2.283C2593.132,1526.646,2598.979,1527.015,2605.214,1527.99z"/>
				</g>
			</g>
			<g class="st27">
				<path class="st15" d="M2132.236,1359.05c-0.974-1.019-9.777-13.066-9.787-13.064c11.411-0.572,23.352,1.542,37.679,6.891
					c25.039,9.348,41.349,25.523,41.499,28.912c0.066,1.557-2.942,2.156-6.756,2.812
					C2180.661,1387.045,2137.882,1364.958,2132.236,1359.05z"/>
				<g>
					<path class="st5" d="M2135.202,1259.105c-2.229,14.605-1.922,28.629-0.396,41.548c0.373,3.104,0.753,6.354,1.539,9.148
						c0.196,0.686,1.102,8.078,0.976,8.068c2.03,0.215,4.324-1.965,6.459-2.275c0.193-0.032,0.436,0.08,0.351,0.346
						c-1.33,1.323-4.471,4.401-5.085,6.58c-0.627,2.215,0.767,6.408,1.001,8.502c0.913,8.247,3.494,15.705,5.14,23.52
						c0.069,0.326,0.169,0.69,0.422,0.722c0.148,0.016,0.309-0.091,0.465-0.188c1.038-0.682,2.081-1.371,3.116-2.053
						c-0.777,1.99-1.915,3.806-3.24,5.174c1.432,4.279,2.857,8.09,4.822,11.762c1.894,3.544,4.028,6.795,6.244,9.926
						c0.381,0.538,0.8,1.096,1.378,1.051c2.562-0.209,1.985-14.762,2.001-16.688c0.005-0.231,0-0.487-0.116-0.618
						c-0.107-0.125-0.288-0.094-0.455-0.062c-1.552,0.324-3.103,0.652-4.658,0.973c1.25-0.764,2.473-1.707,3.649-2.801
						c0.334-0.314,0.677-0.659,0.898-1.131c0.373-0.781,0.297-1.662,0.201-2.427c-0.501-4.072-0.911-8.188-1.339-12.3
						c-0.136-1.334-0.056-4.771-0.853-5.232c-0.82-0.48-3.756,0.957-4.859,1.057c1.609-1.154,3.113-2.858,4.305-4.89
						c0.184-0.309,0.364-0.638,0.448-0.991c0.093-0.4,0.058-0.782,0.011-1.145c-0.771-6.638-2.502-12.959-3.854-19.188
						c-0.786-3.618-1.605-7.212-2.418-10.801c-0.454-1.979-0.885-7.285-2.613-7.602c-0.426-0.086-0.9,0.09-1.363,0.263
						c-1.271,0.471-2.538,0.944-3.807,1.419c0.211-1.338,1.049-2.557,1.922-3.396c0.876-0.839,1.827-1.414,2.709-2.231
						c0.191-0.175,0.39-0.372,0.496-0.649c0.126-0.307,0.111-0.637,0.09-0.937c-0.224-3.225-0.81-5.816-2.13-8.04
						c-1.401-2.367-2.051-5.766-3.079-8.553c-1.163-3.148-2.447-6.131-3.898-8.864
						C2139.169,1265.128,2135.05,1260.08,2135.202,1259.105z"/>
				</g>
				<g>
					<path class="st21" d="M2152.638,1355.315c-0.095-0.043-0.154-0.222-0.139-0.501c0.998-16.689-2.855-27.913-6.926-39.776
						c-3.279-9.55-6.666-19.412-7.292-32.43c-0.017-0.375,0.137-0.898,0.349-1.166c0.207-0.268,0.39-0.17,0.41,0.203
						c0.611,12.771,3.968,22.549,7.218,32.017c3.941,11.472,8.021,23.355,7.002,40.499c-0.022,0.424-0.212,0.914-0.425,1.098
						C2152.763,1355.326,2152.694,1355.34,2152.638,1355.315z"/>
				</g>
				<path class="st34" d="M2122.5,1345.837c-22.638,85.394-41.22,108.669,8.825,130.437c46.952,20.422,47.576-17.261,70.319-94.446
					c0,0-23.821-4.183-41.536-12.303C2142.893,1361.642,2122.5,1345.837,2122.5,1345.837z"/>
			</g>
			<g class="st27">
				<path class="st35" d="M2381.604,1215.443c4.156,10.76,2.506,24.188-2.157,34.349c-6.978,15.209-10.314,27.287-0.302,42.604
					c10.635,16.267,27.073,14.946,44.431,14.949c7.49,0.002,20.885-0.569,26.829,4.817c2.17-9.877,2.975-20.642,0.497-30.537
					c-2.601-10.39-9.717-17.027-16.361-24.98c-5.495-6.576-11.77-12.035-11.324-21.381c0.454-9.535,7.475-12.67,13.597-18.458
					c5.945-5.619,9.818-13.849,10.157-22.104c0.37-9.027-2.66-17.021-7.961-24.211c-6.599-8.946-6.452-9.674,4.396-10.336
					c0.006-0.002,0.01-0.002,0.017-0.002c4.69-0.305,10.194-4.4,7.996-9.604c-0.887-2.097-2.727-2.167-4.121-3.635
					c-1.676-1.762-1.239-2.324-2.047-4.376c-1.452-3.687-4.632-5.784-9.34-4.35c-5.25,1.6-4.297,7.411-5.085,11.613
					c-1.271,6.752-4.587,7.11-10.831,6.438c-12.84-1.383-24.929,2.963-32.461,13.764
					C2377.507,1184.38,2376.517,1202.263,2381.604,1215.443z"/>
				<path class="st19" d="M2348.368,1238.363c1.806-4.759,0.396-8.905,3.28-13.271c1.333-2.018,3.302-5.467,4.702-7.413
					c1.283-1.788,2.672-6.922,4.39-6.479c6.765,1.746,10.845,4.026,13.587,4.694c4.298,1.049,8.815-1.342,12.571-5.688
					c1.605-1.857,2.921-3.881,4.13-5.988c2.717,3.656,2.897,7.575,7.224,10.135c2.05,1.215,4.948,2.672,7.713,2.285
					c-4.021,5.299-6.692,5.361-7.884,11.963c-0.771,4.256,4.599,4.814,6.525,7.52c3.147,4.415-7.672,12.762-12.013,17.107
					c-11.902,11.919-25.203,19.664-38.778,16.063C2340.463,1265.751,2343.356,1251.575,2348.368,1238.363z"/>
				<path class="st36" d="M2403.431,1219.768c0.835-0.987,1.688-2.013,2.534-3.128c-2.765,0.387-5.663-1.07-7.713-2.285
					c-4.326-2.56-4.507-6.479-7.224-10.135c-1.209,2.107-2.524,4.131-4.13,5.988c-0.104,0.12-0.208,0.237-0.314,0.354
					c0.109,0.826,0.249,1.657,0.362,2.54c0.315,2.481,0.797,5.025,2.167,6.86c1.909,2.558,7.676,1.716,10.936,1.013
					C2401.263,1220.714,2402.377,1220.297,2403.431,1219.768z"/>
				<path class="st19" d="M2400.474,1174.432c-1.981,2.142-4.976,4.942-6.332,7.526c-0.039,0.078,0.317-0.439,0.34-0.467
					c-4.148-3.328-6.433,3.933-7.006,6.822c-0.18,0.918-0.378,2.231,0.152,3.072c0.372,0.589,1.399,1.036,2.007,1.189
					c-0.343-0.086-2.781,5.117-3.121,8.328c-0.317,3.004,0.662,5.438,1.442,8.321c0.768,2.833,1.737,5.765,3.671,8.035
					c2.688,3.169,9.472,3.124,13.271,2.843c5.016-0.373,8.205-3.115,12.175-5.838c0.157,1.795,2.89,1.443,3.892,1.036
					c1.821-0.747,3.4-2.138,4.708-3.577c0.944-1.04,4.194-4.894,0.691-5.15c4.09-3.727,7.525-8.459,9.493-13.654
					c1.606-4.24,2.691-9.073,1.649-13.58c-1.494-6.466-8.579-12.379-14.473-15.078
					C2413.883,1160.072,2406.313,1168.105,2400.474,1174.432z"/>
				<path class="st35" d="M2404.029,1181.626c-0.038-0.01-0.078-0.013-0.111-0.027c-3.913-1.6-11.257,2.932-10.285-3.278
					c0.673-4.302,3.118-8.638,5.605-12.142c5.672-7.992,16.857-4.494,25.012-2.691c7.535,1.666,10.806,6.62,14.171,13.895
					c2.3,4.967,6.515,12.677,3.826,17.053c-1.691,2.748-4.817,6.249-7.436,8.159c-2.75,2.013-5.779,4.698-8.504,4.042
					c-0.271-0.211,0.139-2.061-1.094-3.194c2.705-2.95,6.477-8.477,7.715-12.238c-0.686,2.081-5.023,4.485-6.551,6.21
					c-0.768-1.264-3.716-3.74-4.929-4.639c1.584-2.131,3.079-4.146,4.344-6.467c-1.758,1.849-3.524,3.408-5.595,4.884
					c-0.301,0.214-6.905-5.027-7.685-5.522C2409.94,1184.032,2407.022,1182.361,2404.029,1181.626z"/>
				<path class="st35" d="M2398.625,1183.79c2.877,1.22,5.028,2.604,6.222,3.404c1.942,1.303,3.446,2.814,4.438,3.884
					c1.374-0.952,2.735-2.265,1.197-3.251C2409.307,1187.075,2403.126,1182.647,2398.625,1183.79z"/>
				<path class="st35" d="M2423.817,1203.435c0.132-2.566-0.68-4.575-3.09-7.399c-0.558-0.655-3.045-2.524-4.042-2.727
					c-0.357-0.073-0.578,0.923-1.271,1.991c-0.185,0.285,2.643,1.75,4.985,4.016
					C2421.345,1200.228,2423.131,1202.165,2423.817,1203.435z"/>
				<g>
					<path class="st35" d="M2405.681,1206.618c-0.073,0-0.146-0.012-0.216-0.038c-1.192-0.436-2.843-1.594-3.688-2.416
						c-0.248-0.242-0.254-0.64-0.013-0.888c0.242-0.248,0.64-0.252,0.888-0.013c0.603,0.587,1.717,1.395,2.645,1.87
						c1.188-3.682,2.325-6.396,5.432-9.268c0.254-0.234,0.65-0.219,0.887,0.035c0.235,0.254,0.22,0.651-0.035,0.887
						c-3.064,2.832-4.088,5.558-5.3,9.393c-0.052,0.163-0.168,0.298-0.322,0.374
						C2405.87,1206.597,2405.775,1206.618,2405.681,1206.618z"/>
				</g>
				<path class="st35" d="M2404.885,1193.705c-1.015,1.298-2.498,1.837-3.311,1.202c-0.811-0.636-0.646-2.205,0.373-3.504
					c1.017-1.299,2.499-1.837,3.31-1.201C2406.069,1190.838,2405.901,1192.405,2404.885,1193.705z"/>
				<path class="st35" d="M2416.648,1202.911c-1.019,1.299-2.499,1.838-3.312,1.201c-0.812-0.635-0.646-2.203,0.372-3.502
					c1.017-1.3,2.498-1.839,3.31-1.203C2417.831,1200.043,2417.665,1201.612,2416.648,1202.911z"/>
				<path class="st9" d="M2407.124,1212.779c-5.529-2.097-11.865-8.208-13.01-9.737c-0.288,2.154,0.913,5.279,2.062,6.969
					C2398.778,1213.835,2404.215,1213.733,2407.124,1212.779z"/>
				<path class="st19" d="M2376.443,1150.971c6.688-6.248,13.78-11.31,20.78-14.403c11.735-5.191,24.241-10.008,36.469-14.426
					c11.973-4.326,20.471-12.074,32.586-16.127c1.74-0.582,8.561-3.358,8.797-1.845c0.231,1.489-4.034,3.021-5.724,3.689
					c-1.636,0.646-4.233,2.411-5.771,3.595c2.564-0.664,7.729-1.737,11.352-2.744c3.405-0.945,7.002-1.039,4.162,1.229
					c-2.092,1.674-13.374,4.517-13.903,4.872c3.121-0.898,7.598-1.447,12.39-2.034c3.667-0.448,7.757,0.946-1.465,2.884
					c-2.768,0.582-5.392,1.051-9.65,2.698c4.619-0.196,15.703-1.42,15.846,0c0.147,1.474-3.074,2.176-6.337,2.458
					c-4.343,0.378-5.488,0.6-9.648,1.799c-9.665,2.778,5.778,3.244,5.677,6.88c-0.039,1.245-1.409-0.423-4.459-0.274
					c-5.581,0.271-9.761-1.049-12.853-1.783c-5.366-1.273-15.393,0.795-22.512,5.865c-4.011,2.855-15.732,12.214-20.055,14.566
					c-18.359,9.992-24.688,8.514-38.614,37.836c-2.419,5.094-4.972,9.969-6.506,17.498c-2.079,10.216,6.848,8.92,3.313,11.824
					c-6.249,5.136-32.886,32.377-35.945,28.188c-3.104-4.25,3.741-19.237,5.106-24.404
					C2344.15,1201.146,2360.672,1165.7,2376.443,1150.971z"/>
				<path class="st37" d="M2285.423,1519.943c-0.054,4.67-4.396,11.697-4.307,16.338c15.723,7.801,13.81-13.257,16.863-21.782
					c2.044-5.715,12.998-37.496,14.048-43.521c1.271-7.281,0.807-14.028,0.72-21.331c-0.145-11.451,7.884-29.899,12.139-39.626
					c3.425-7.823,3.398-12.996,6.1-21.1c5.322-15.974,8.475-24.997,2.87-42.199c-3.05-9.352-3.479-7.58-12.654-12.774
					c-3.563-2.017,0.958-0.856-2.907-2.196c-11.147,11.039-14.974,30.812-16.729,46.28c-2.062,18.198-5.017,30.787-6.098,49.347
					c-0.814,13.966-7.523,38.021-8.971,51.729C2285.423,1489.315,2285.491,1513.908,2285.423,1519.943z"/>
				<path class="st37" d="M2397.982,1519.858c1.333,4.484,2.951,7.928,2.849,12.554c-14.729,7.352-13.19-6.338-16.842-17.401
					c-1.896-5.753-10.348-30.205-11.299-36.244c-1.151-7.297-2.359-19.946-2.242-27.225c0.186-11.424-4.59-17.066-8.521-26.886
					c-3.162-7.902-7.204-25.789-9.686-33.949c-4.896-16.083-7.742-22.811-2.422-39.816c2.892-9.245,4.859-11.94,13.458-16.867
					c3.341-1.914,4.45-1.559,8.068-2.786c10.357,11.317,13.234,36.845,14.799,52.322c1.84,18.213,0.525,28.63,1.448,47.175
					c0.694,13.954,3.584,25.626,6.624,39.097C2395.869,1477.146,2395.023,1509.905,2397.982,1519.858z"/>
				<path class="st38" d="M2295.108,1420.57c0,0,12.328,5.851,23.768,7.147c11.031-30.63,23.479-53.175,25.383-65.683
					c3.811,13.399,11.751,50.878,17.668,66.448c13.772,0.96,11.809-1.195,25.562-2.552c0.438-10.252,0.899-17.567,0.538-27.82
					c-0.98-27.871-3.458-40.643-9.195-57.657c-4.463-13.223-13.405-19.597-11.104-36.923c-5.218-1.409-10.923-1.767-16.331-1.891
					c-5.478-0.125-11.048,0.34-16.498-0.171c-4.323-0.408-10.119-3.083-14.497-2.732c1.258-0.102-0.179,14.121-3.409,18.973
					c-7.417,11.138-14.365,33.209-16.86,54.146C2298.428,1386.151,2295.108,1420.57,2295.108,1420.57z"/>
				<path class="st19" d="M2411.201,1244.285c-3.264-4.399-2.319-2.669-6.926-6.887c-0.553,2.352-0.956,3.317-1.915,5.575
					c-1.668,3.913-9.45,12.679-9.07,16.616c0.337,3.524,0.102,1.968,2.129,4.604c6.384,8.307,14.422,43.127,14.531,44.004
					c0.1-0.014-0.803,5.228-2.736,11.725c-2.751,9.243-2.625,21.916-9.831,29.301c-4.352,4.46-9.118,8.773-15.079,8.365
					c-2.598-0.176-15.184,2.697-15.562,4.42c-0.979,4.438,10.49-0.738,13.98,0.578c1.052,0.396-4.872,3.879-6.054,4.824
					c-1.717,1.373-5.863,3.594-6.902,5.013c-1.628,2.218,1.454,1.887,4.065,0.854c2.85-1.132,7.851-4.164,10.877-5.394
					c-2.457,1.891-3.592,3.405-10.024,6.811c-1.368,0.723-5.976,4.375-1.547,4.299c1.912-0.03,11.963-6.664,14.556-7.262
					c-2.277,4.004-10.898,5.834-9.88,8.508c0.938,2.448,18.253-8.912,20.883-11.903c2.169-2.462,3.642-5.767,5.651-8.392
					c9.042-11.814,20.354-28.984,21.225-44.367C2425.273,1285.497,2416.592,1251.553,2411.201,1244.285z"/>
				<g>
					<path class="st39" d="M2282.446,1550.597c-4.558,3.348-9.359,6.99-14.934,8.646c-4.273,1.268-4.093,0.759-6.87-2.441
						c-1.144-1.321-4.75-3.391-5.894-0.64c-3.315,7.979,0.082,10.162,4.126,10.782c3.194,0.492,6.625-0.049,9.755-0.682
						c5.549-1.124,12.984-4.188,16.959-8.33c2.857-2.978,5.656-6.51,9.41-8.72c2.861-1.685,8.793-5.602,9.767-6.31
						c1.027-0.746,0.147-6.024-2.693-6.71C2296.312,1534.803,2286.311,1547.754,2282.446,1550.597z"/>
					<path class="st40" d="M2253.395,1559.402c-0.835-8.752,9.526-13.977,16.341-21.932c2.191-2.558,4.014-3.992,5.896-7.03
						c1.747-2.819,1.485-9.729,4.595-11.444c6.367-3.503,7.894,4.085,6.373,8.223c-1.23,3.359-3.762,4.35,1.156,4.137
						c3.509-0.153,6.478-3.185,8.023-5.857c0.707-1.227,1.423-1.894,2.091-2.187c1.375-0.606,6.847,10.44,4.96,13.919
						c-1.303,2.402-3.454,2.339-5.557,3.834c-2.364,1.678-5.311,6.179-7.515,8.123c-5.583,4.929-11.251,11.014-19.012,12.68
						c-3.903,0.837-12.65,2.374-16.087-0.58C2254.087,1560.792,2253.473,1560.19,2253.395,1559.402z"/>
					<g class="st41">
						<path class="st42" d="M2280.767,1552.629c-3.605,0.883-6.66-2.178-2.063-7.294c1.843-2.051,17.504-15.871,18.82-13.539
							c0.357,0.635,0.207,1.476-0.34,1.874c-2.956,2.157-6.039,5.095-8.312,8.176c-1.67,2.272-2.284,5.055-3.818,7.487
							C2283.873,1551.209,2282.272,1552.263,2280.767,1552.629z"/>
					</g>
					<g class="st41">
						<path class="st9" d="M2271.227,1546.137c-0.064,0-0.13-0.014-0.191-0.044c-1.656-0.787-3.324-1.132-4.71-0.975
							c-0.227,0.026-0.466-0.147-0.494-0.393c-0.028-0.244,0.147-0.466,0.393-0.494c1.541-0.178,3.39,0.197,5.194,1.057
							c0.223,0.105,0.317,0.372,0.211,0.594C2271.553,1546.043,2271.393,1546.137,2271.227,1546.137z"/>
					</g>
					<g class="st41">
						<path class="st9" d="M2273.147,1543.412c-0.098,0-0.196-0.032-0.279-0.099c-0.971-0.777-2.229-1.014-3.56-1.263
							c-0.317-0.06-0.636-0.119-0.953-0.187c-0.241-0.052-0.395-0.288-0.344-0.529c0.052-0.24,0.281-0.399,0.529-0.344
							c0.311,0.066,0.622,0.125,0.932,0.183c1.381,0.259,2.809,0.526,3.954,1.444c0.191,0.153,0.223,0.435,0.068,0.627
							C2273.407,1543.354,2273.278,1543.412,2273.147,1543.412z"/>
					</g>
					<g class="st41">
						<path class="st9" d="M2274.959,1541.031c-0.085,0-0.17-0.024-0.246-0.074c-1.204-0.798-2.613-1.613-4.116-1.195
							c-0.239,0.064-0.482-0.073-0.549-0.311s0.073-0.483,0.311-0.549c1.774-0.491,3.378,0.339,4.847,1.311
							c0.205,0.136,0.262,0.413,0.126,0.618C2275.245,1540.961,2275.104,1541.031,2274.959,1541.031z"/>
					</g>
					<g class="st41">
						<path class="st9" d="M2276.907,1538.466c-0.07,0-0.141-0.017-0.207-0.051c-1.164-0.61-2.021-0.863-3.206-1.215l-0.531-0.158
							c-0.236-0.07-0.37-0.319-0.299-0.555c0.07-0.235,0.316-0.374,0.555-0.299l0.528,0.156c1.234,0.365,2.126,0.629,3.367,1.279
							c0.218,0.114,0.303,0.385,0.188,0.603C2277.223,1538.379,2277.067,1538.466,2276.907,1538.466z"/>
					</g>
					<g class="st41">
						<path class="st9" d="M2278.466,1536.607c-0.106,0-0.213-0.038-0.298-0.114c-1.106-0.99-1.722-1.287-3.438-1.184
							c-0.244-0.002-0.458-0.174-0.472-0.419c-0.015-0.246,0.173-0.457,0.419-0.472c2.034-0.118,2.867,0.318,4.086,1.41
							c0.184,0.164,0.198,0.446,0.034,0.63C2278.71,1536.557,2278.588,1536.607,2278.466,1536.607z"/>
					</g>
				</g>
				<g>
					<path class="st39" d="M2401.296,1552.54c4.494,3.301,9.227,6.892,14.724,8.524c4.215,1.25,4.037,0.749,6.774-2.408
						c1.13-1.3,4.683-3.344,5.812-0.631c3.269,7.865-0.082,10.021-4.068,10.632c-3.149,0.485-6.531-0.047-9.619-0.671
						c-5.472-1.108-12.804-4.131-16.722-8.217c-2.815-2.935-5.581-6.416-9.277-8.595c-2.819-1.662-8.668-5.525-9.631-6.222
						c-1.012-0.734-0.146-5.94,2.656-6.616C2387.623,1536.966,2397.483,1549.738,2401.296,1552.54z"/>
					<path class="st40" d="M2429.939,1561.224c0.823-8.631-9.393-13.78-16.114-21.625c-2.158-2.521-3.955-3.938-5.809-6.932
						c-1.725-2.779-1.466-9.594-4.531-11.285c-6.277-3.453-7.78,4.028-6.285,8.108c1.217,3.312,3.711,4.288-1.138,4.079
						c-3.463-0.152-6.39-3.14-7.911-5.775c-0.762-1.319-1.491-2.302-2.244-2.22c-0.929,0.103-6.539,10.41-4.712,13.788
						c1.286,2.367,3.409,2.307,5.481,3.778c2.329,1.655,5.235,6.092,7.41,8.013c5.502,4.857,11.094,10.855,18.746,12.496
						c3.848,0.83,12.473,2.344,15.859-0.57C2429.259,1562.593,2429.863,1562.002,2429.939,1561.224z"/>
					<g class="st41">
						<path class="st42" d="M2402.949,1554.546c3.558,0.867,6.568-2.148,2.036-7.192c-1.815-2.023-17.261-15.649-18.556-13.351
							c-0.354,0.626-0.203,1.454,0.334,1.848c2.917,2.128,5.957,5.024,8.195,8.062c1.65,2.241,2.252,4.981,3.764,7.382
							C2399.889,1553.145,2401.466,1554.183,2402.949,1554.546z"/>
					</g>
					<g class="st41">
						<path class="st9" d="M2412.357,1548.144c-0.164,0-0.321-0.092-0.396-0.249c-0.105-0.22-0.013-0.482,0.206-0.587
							c1.772-0.85,3.589-1.224,5.122-1.043c0.241,0.027,0.414,0.246,0.386,0.487c-0.027,0.241-0.249,0.416-0.487,0.386
							c-1.364-0.153-3.016,0.185-4.64,0.963C2412.486,1548.13,2412.422,1548.144,2412.357,1548.144z"/>
					</g>
					<g class="st41">
						<path class="st9" d="M2410.462,1545.459c-0.129,0-0.256-0.056-0.343-0.164c-0.152-0.189-0.122-0.466,0.067-0.618
							c1.131-0.908,2.538-1.173,3.899-1.429c0.306-0.058,0.613-0.115,0.919-0.18c0.238-0.054,0.471,0.101,0.521,0.338
							s-0.101,0.472-0.338,0.521c-0.313,0.067-0.628,0.126-0.94,0.185c-1.312,0.247-2.552,0.48-3.511,1.25
							C2410.656,1545.428,2410.559,1545.459,2410.462,1545.459z"/>
					</g>
					<g class="st41">
						<path class="st9" d="M2408.677,1543.108c-0.143,0-0.282-0.069-0.367-0.197c-0.134-0.202-0.078-0.475,0.125-0.609
							c1.448-0.958,3.033-1.778,4.778-1.292c0.234,0.064,0.371,0.308,0.307,0.541c-0.064,0.234-0.308,0.368-0.541,0.307
							c-1.479-0.406-2.872,0.394-4.06,1.179C2408.845,1543.085,2408.761,1543.108,2408.677,1543.108z"/>
					</g>
					<g class="st41">
						<path class="st9" d="M2406.758,1540.578c-0.158,0-0.311-0.085-0.39-0.235c-0.112-0.215-0.029-0.48,0.186-0.594
							c1.207-0.633,2.073-0.891,3.273-1.248l0.565-0.169c0.229-0.071,0.477,0.061,0.548,0.294c0.07,0.232-0.062,0.478-0.294,0.548
							l-0.569,0.171c-1.151,0.342-1.983,0.59-3.115,1.184C2406.896,1540.562,2406.827,1540.578,2406.758,1540.578z"/>
					</g>
					<g class="st41">
						<path class="st9" d="M2405.219,1538.743c-0.121,0-0.241-0.05-0.328-0.147c-0.162-0.181-0.146-0.459,0.036-0.62
							c1.206-1.075,2.022-1.502,4.028-1.389c0.242,0.015,0.427,0.223,0.413,0.466c-0.015,0.242-0.21,0.424-0.466,0.413
							c-1.675-0.104-2.293,0.189-3.392,1.166C2405.428,1538.707,2405.323,1538.743,2405.219,1538.743z"/>
					</g>
				</g>
				<path class="st34" d="M2338.631,1220.798c0,0-4.931,8.005-6.527,11.635c-4.841,11.002-9.654,29.213-10.782,41.146
					c-0.34,3.588-2.285,27.398-0.853,27.808c17.782,5.108,29.649,6.944,47.673,5.677c7.366-12.291,13.803-18.588,20.977-28.402
					c10.479-14.332,5.173-16.939,14.307-30.527c1.351-2.01,4.956-6.748,6.145-7.314c-2.203-3.333-8.905-8.531-9.646-9.381
					c-4.574,5.307-14.852,4.043-19.864-0.566c-4.656-4.283-6.236-8.757-3.831-15.183c-4.967-0.425-7.944-6.101-7.944-6.101
					s-11.029,5.318-14.804,6.764C2349.663,1217.815,2338.631,1220.798,2338.631,1220.798z"/>
				<path class="st38" d="M2437.153,1161.065c-3.652-2.352-6.76-3.979-9.898-6.902c-0.981,0.525-1.25,0.691-2.181,1.363
					c-2.427,1.754,8.622,7.746,10.535,8.174C2435.67,1163.564,2437.3,1161.16,2437.153,1161.065z"/>
			</g>
		</g>
	</g>
</g>
<g>
	<path class="st16" d="M2468.069,547.887V376.119c0-21.855,17.717-39.571,39.571-39.571h57.713v159.395
		C2563.451,543.757,2511.478,557.962,2468.069,547.887z M2729.69,425.975c-33.711-11.021-54.154,3.331-60.579,19.09
		c-19.265,35.935,51.475,70.062,68.957,103.938V428.761C2734.071,427.347,2729.69,425.975,2729.69,425.975z M2563.414,598.49
		l18.58-22.536c15.734,18.84,27.226,27.18,39.505,30.595h70.315c39.105-26.011-1.035-58.661-17.921-75.232
		c-84.027-61.82-33.7-168.94,64.177-138.36v-16.838c0-21.855-17.717-39.571-39.571-39.571h-92.676
		c-0.047,17.493-0.257,102.49-0.109,153.63c0.118,40.938-12.19,64.807-52.808,85.137c-20.35,10.186-48.894,12.302-81.635,7.264
		c6.055,14.095,20.058,23.97,36.372,23.97h62.553C2567.781,603.706,2565.167,600.753,2563.414,598.49z"/>
	<g>
		<g>
			<defs>
				<path id="SVGID_9_" d="M2468.069,547.887V376.119c0-21.855,17.717-39.571,39.571-39.571h57.713v159.395
					C2563.451,543.757,2511.478,557.962,2468.069,547.887z M2729.69,425.975c-33.711-11.021-54.154,3.331-60.579,19.09
					c-19.265,35.935,51.475,70.062,68.957,103.938V428.761C2734.071,427.347,2729.69,425.975,2729.69,425.975z M2563.414,598.49
					l18.58-22.536c15.734,18.84,27.226,27.18,39.505,30.595h70.315c39.105-26.011-1.035-58.661-17.921-75.232
					c-84.027-61.82-33.7-168.94,64.177-138.36v-16.838c0-21.855-17.717-39.571-39.571-39.571h-92.676
					c-0.047,17.493-0.257,102.49-0.109,153.63c0.118,40.938-12.19,64.807-52.808,85.137c-20.35,10.186-48.894,12.302-81.635,7.264
					c6.055,14.095,20.058,23.97,36.372,23.97h62.553C2567.781,603.706,2565.167,600.753,2563.414,598.49z"/>
			</defs>
			<clipPath id="SVGID_10_">
				<use xlink:href="#SVGID_9_"  style="overflow:visible;"/>
			</clipPath>
			<g class="st43">
				
					<radialGradient id="SVGID_11_" cx="2846.9639" cy="1900.345" r="117.9278" gradientTransform="matrix(0.7641 0 0 -0.7094 382.1769 1779.8893)" gradientUnits="userSpaceOnUse">
					<stop  offset="0" style="stop-color:#F5F9FB"/>
					<stop  offset="0.0071" style="stop-color:#F7FAFC"/>
					<stop  offset="0.0096" style="stop-color:#FEFEFE"/>
					<stop  offset="0.0099" style="stop-color:#FFFFFF"/>
					<stop  offset="0.4931" style="stop-color:#8BBCD2"/>
					<stop  offset="0.8409" style="stop-color:#3E8FB5"/>
					<stop  offset="1" style="stop-color:#207EA9"/>
				</radialGradient>
				<path class="st44" d="M2615.934,527.105h-117.021c-17.034,0-30.844-13.809-30.844-30.844V370.295
					c0-17.034,13.809-33.99,30.844-33.99h117.021c17.034,0,30.844,16.955,30.844,33.99v125.966
					C2646.777,513.296,2632.968,527.105,2615.934,527.105z"/>
			</g>
		</g>
	</g>
</g>
</svg>
