<?xml version="1.0" encoding="utf-8"?>
<!-- Generator: Adobe Illustrator 25.0.0, SVG Export Plug-In . SVG Version: 6.00 Build 0)  -->
<svg version="1.1" id="Layer_1" xmlns="http://www.w3.org/2000/svg" xmlns:xlink="http://www.w3.org/1999/xlink" x="0px" y="0px"
	 viewBox="0 0 288 270" style="enable-background:new 0 0 288 270;" xml:space="preserve">
<style type="text/css">
	.st0{fill:#207EA9;}
	.st1{fill:#217EA9;}
	.st2{display:none;fill:#217EA9;}
	.st3{fill:#3C4958;}
	.st4{fill:#47545D;}
	.st5{fill:#50616D;}
	.st6{fill:#23303C;}
	.st7{opacity:0.35;fill:#3C4958;enable-background:new    ;}
	.st8{opacity:0.2;fill:#FFFFFF;enable-background:new    ;}
	.st9{clip-path:url(#SVGID_5_);}
	.st10{clip-path:url(#SVGID_6_);fill:url(#SVGID_7_);}
	.st11{opacity:0.27;fill:url(#SVGID_8_);}
	.st12{clip-path:url(#SVGID_11_);}
	.st13{clip-path:url(#SVGID_12_);fill:url(#SVGID_13_);}
	.st14{opacity:0.35;fill:url(#SVGID_14_);enable-background:new    ;}
	.st15{opacity:0.35;fill:#71859F;enable-background:new    ;}
	.st16{fill:#1A506E;}
</style>
<g>
	<g>
		<path class="st0" d="M154.9,113.6V93.4c0-2.6,2.1-4.7,4.7-4.7h6.8v18.7C166.1,113.1,160,114.8,154.9,113.6z M185.6,99.3
			c-4-1.3-6.4,0.4-7.1,2.2c-2.3,4.2,6.1,8.2,8.1,12.2V99.6C186.2,99.4,185.6,99.3,185.6,99.3z M166.1,119.6l2.2-2.7
			c1.9,2.2,3.2,3.2,4.6,3.6h8.3c4.6-3.1-0.1-6.9-2.1-8.8c-9.9-7.3-4-19.9,7.5-16.3v-2c0-2.6-2.1-4.7-4.7-4.7h-10.9
			c0,2.1,0,12.1,0,18.1c0,4.8-1.4,7.6-6.2,10c-2.4,1.2-5.8,1.4-9.6,0.9c0.7,1.7,2.4,2.8,4.3,2.8h7.4
			C166.6,120.2,166.3,119.8,166.1,119.6z"/>
		<path class="st1" d="M135,122h1.3v6.9c0,2.7-1.3,3.5-3.1,3.5c-0.5,0-1.1-0.1-1.4-0.2l0.2-1.1c0.3,0.1,0.7,0.2,1.1,0.2
			c1.2,0,1.9-0.5,1.9-2.5v-6.6L135,122z M145.1,128.6c0,2.7-1.9,3.7-3.6,3.7c-2,0-3.5-1.3-3.5-3.6c0-2.4,1.6-3.8,3.6-3.8
			C143.7,125,145.1,126.4,145.1,128.6z M139.3,128.7c0,1.6,0.9,2.7,2.2,2.7c1.3,0,2.2-1.1,2.2-2.7c0-1.2-0.6-2.7-2.2-2.7
			S139.3,127.3,139.3,128.7z M148.2,122.9c0,0.4-0.3,0.8-0.8,0.8c-0.5,0-0.8-0.4-0.8-0.8c0-0.5,0.3-0.8,0.8-0.8
			C147.9,122.1,148.2,122.4,148.2,122.9z M146.7,132.4V125h1.3v7.4H146.7z M150.3,127.1c0-0.7,0-1.5-0.1-2.1h1.2l0.1,1.4h0
			c0.4-0.7,1.2-1.4,2.4-1.4c1,0,2.6,0.6,2.6,3.1v4.3h-1.3v-4.2c0-1.2-0.4-2.1-1.7-2.1c-0.9,0-1.6,0.6-1.8,1.3
			c-0.1,0.2-0.1,0.4-0.1,0.6v4.3h-1.3V127.1L150.3,127.1L150.3,127.1z M160.2,122.9v2.1h1.9v1h-1.9v3.9c0,0.9,0.3,1.4,1,1.4
			c0.3,0,0.6,0,0.8-0.1l0.1,1c-0.3,0.1-0.7,0.2-1.2,0.2c-0.6,0-1.1-0.2-1.4-0.6c-0.4-0.4-0.5-1-0.5-1.9V126h-1.1v-1h1.1v-1.7
			L160.2,122.9z M163.4,130.6c0.6,0.4,1.4,0.7,2.4,0.7c1.3,0,2.1-0.7,2.1-1.7c0-0.9-0.5-1.5-1.9-2c-1.7-0.6-2.7-1.4-2.7-2.9
			c0-1.6,1.3-2.7,3.3-2.7c1,0,1.8,0.2,2.2,0.5l-0.4,1.1c-0.3-0.2-1-0.5-1.9-0.5c-1.4,0-1.9,0.8-1.9,1.5c0,0.9,0.6,1.4,2,1.9
			c1.7,0.7,2.6,1.5,2.6,3c0,1.6-1.2,2.9-3.6,2.9c-1,0-2.1-0.3-2.6-0.6L163.4,130.6z M172.6,122.9v2.1h1.9v1h-1.9v3.9
			c0,0.9,0.3,1.4,1,1.4c0.3,0,0.6,0,0.8-0.1l0.1,1c-0.3,0.1-0.7,0.2-1.2,0.2c-0.6,0-1.1-0.2-1.4-0.6c-0.4-0.4-0.5-1-0.5-1.9V126
			h-1.1v-1h1.1v-1.7L172.6,122.9z M176,127.4c0-0.9,0-1.8-0.1-2.4h1.2l0,1.6h0.1c0.3-1,1.1-1.6,2-1.6c0.2,0,0.3,0,0.4,0v1.2
			c-0.1,0-0.3,0-0.5,0c-0.9,0-1.6,0.7-1.8,1.7c0,0.2-0.1,0.4-0.1,0.6v3.9H176V127.4z M187.3,128.6c0,2.7-1.9,3.7-3.6,3.7
			c-2,0-3.5-1.3-3.5-3.6c0-2.4,1.6-3.8,3.6-3.8C185.9,125,187.3,126.4,187.3,128.6z M181.6,128.7c0,1.6,0.9,2.7,2.2,2.7
			c1.3,0,2.2-1.1,2.2-2.7c0-1.2-0.6-2.7-2.2-2.7C182.2,126,181.6,127.3,181.6,128.7z M189,127.1c0-0.7,0-1.5-0.1-2.1h1.2l0.1,1.4h0
			c0.4-0.7,1.2-1.4,2.4-1.4c1,0,2.6,0.6,2.6,3.1v4.3h-1.3v-4.2c0-1.2-0.4-2.1-1.7-2.1c-0.9,0-1.6,0.6-1.8,1.3
			c-0.1,0.2-0.1,0.4-0.1,0.6v4.3H189V127.1L189,127.1z M203.7,125.2c0,0.5-0.1,1.1-0.1,2v4.2c0,1.7-0.3,2.7-1,3.3
			c-0.7,0.7-1.7,0.9-2.7,0.9c-0.9,0-1.8-0.2-2.4-0.6l0.3-1c0.5,0.3,1.2,0.6,2.1,0.6c1.4,0,2.4-0.7,2.4-2.5v-0.8h0
			c-0.4,0.7-1.2,1.2-2.3,1.2c-1.8,0-3.1-1.5-3.1-3.5c0-2.4,1.6-3.9,3.3-3.9c1.3,0,2,0.7,2.3,1.3h0l0.1-1.3h1.2L203.7,125.2
			L203.7,125.2z M202.3,128c0-0.2,0-0.4-0.1-0.6c-0.2-0.8-0.9-1.4-1.9-1.4c-1.3,0-2.2,1.1-2.2,2.7c0,1.4,0.7,2.6,2.2,2.6
			c0.8,0,1.6-0.5,1.8-1.3c0.1-0.2,0.1-0.5,0.1-0.7L202.3,128L202.3,128z M209.7,124.4c0,1.4-1.1,2.5-2.5,2.5c-1.4,0-2.5-1.1-2.5-2.5
			c0-1.4,1.1-2.4,2.5-2.4C208.6,122,209.7,123.1,209.7,124.4z M205.2,124.4c0,1.1,0.8,2,1.9,2c1.1,0,1.9-0.9,1.9-1.9
			c0-1.1-0.8-2-1.9-2C206,122.5,205.2,123.4,205.2,124.4z M206.7,125.7h-0.6v-2.4c0.2,0,0.5-0.1,0.9-0.1c0.5,0,0.7,0.1,0.9,0.2
			c0.1,0.1,0.2,0.3,0.2,0.5c0,0.3-0.2,0.5-0.5,0.6v0c0.2,0.1,0.4,0.3,0.5,0.6c0.1,0.4,0.1,0.5,0.2,0.6h-0.6
			c-0.1-0.1-0.1-0.3-0.2-0.6c0-0.3-0.2-0.4-0.5-0.4h-0.3V125.7L206.7,125.7L206.7,125.7z M206.8,124.3h0.3c0.3,0,0.6-0.1,0.6-0.4
			c0-0.2-0.2-0.4-0.5-0.4c-0.2,0-0.3,0-0.3,0V124.3L206.8,124.3z"/>
	</g>
	<path class="st2" d="M215.6,15.3h-92.5c-10.3,0-18.8,8.4-18.8,18.8v208c0,10.3,8.4,18.8,18.8,18.8h92.5c10.3,0,18.8-8.4,18.8-18.8
		v-208C234.4,23.8,225.9,15.3,215.6,15.3z M151.6,28.7c0-0.9,0.8-1.7,1.7-1.7h32.3c0.9,0,1.7,0.8,1.7,1.7v1.8c0,0.9-0.8,1.7-1.7,1.7
		h-32.3c-0.9,0-1.7-0.8-1.7-1.7V28.7z M169.4,254c-5,0-9-4-9-9s4-9,9-9s9,4,9,9C178.4,250,174.4,254,169.4,254z M225.1,230.8H113.3
		V40.2h111.8L225.1,230.8L225.1,230.8z"/>
	<g>
		<path class="st3" d="M213,13.5h-20.2c-0.7,0-1.2,0.5-1.2,1.1v0.6h22.7v-0.6C214.3,14,213.7,13.5,213,13.5z"/>
		<path class="st3" d="M105.8,59.3L105.8,59.3c1.3,0,2.4-0.5,2.4-1.2v-8.5c0-0.6-1-1.2-2.3-1.2h0c-1.3,0-2.3,0.5-2.3,1.2v8.5
			C103.5,58.8,104.5,59.3,105.8,59.3z"/>
		<path class="st3" d="M105.8,102.2L105.8,102.2c1.3,0,2.4-0.5,2.4-1.2v-8.5c0-0.6-1-1.2-2.3-1.2h0c-1.3,0-2.3,0.5-2.3,1.2v8.5
			C103.5,101.7,104.5,102.2,105.8,102.2z"/>
		<path class="st3" d="M105.8,82.5L105.8,82.5c1.3,0,2.4-0.5,2.4-1.2v-8.5c0-0.6-1-1.2-2.3-1.2h0c-1.3,0-2.3,0.5-2.3,1.2v8.5
			C103.5,81.9,104.5,82.5,105.8,82.5z"/>
		<path class="st4" d="M217,14.1h-93.5c-10.6,0-19.1,7.7-19.1,17.2v215.1c0,9.5,8.6,17.2,19.1,17.2H217c10.6,0,19.1-7.7,19.1-17.2
			V31.3C236.2,21.8,227.6,14.1,217,14.1z M227.8,228.9H113V48.2h114.8L227.8,228.9L227.8,228.9z"/>
		<path d="M217.4,14.5h-94.3c-10,0-18,7.3-18,16.2V247c0,9,8.1,16.2,18,16.2h94.3c10,0,18-7.3,18-16.2V30.7
			C235.4,21.8,227.4,14.5,217.4,14.5z M227.8,228.9H113V48.2h114.8L227.8,228.9L227.8,228.9z"/>
		<path class="st5" d="M217.3,15.1h-94.2c-9.6,0-17.3,7-17.3,15.6v215.6c0,8.6,7.7,15.6,17.3,15.6h94.2c9.6,0,17.3-7,17.3-15.6V30.7
			C234.6,22.1,226.9,15.1,217.3,15.1z M227.8,228.9H113V48.2h114.8L227.8,228.9L227.8,228.9z"/>
		<path class="st6" d="M217.1,15.8h-93.5c-9.3,0-16.8,6.8-16.8,15.1v215.4c0,8.3,7.5,15.1,16.8,15.1h93.5c9.3,0,16.8-6.8,16.8-15.1
			V30.9C233.8,22.5,226.3,15.8,217.1,15.8z M227.8,228.9H113V48.2h114.8L227.8,228.9L227.8,228.9z"/>
		<path d="M216.8,16.8h-92.9c-8.8,0-15.9,6.4-15.9,14.3v214.7c0,7.9,7.1,14.3,15.9,14.3h92.9c8.8,0,15.9-6.4,15.9-14.3V31.1
			C232.7,23.2,225.6,16.8,216.8,16.8z M227.8,228.9H113V48.2h114.8V228.9z"/>
		<path class="st7" d="M181,37.6h-21.3c-1.1,0-1.9-0.8-1.9-1.7v0c0-1,0.9-1.7,1.9-1.7H181c1.1,0,1.9,0.8,1.9,1.7v0
			C182.9,36.9,182,37.6,181,37.6z"/>
		<ellipse class="st8" cx="170.4" cy="244.9" rx="10.1" ry="10.1"/>
		<g>
			<g>
				<defs>
					<polygon id="SVGID_1_" points="1,1 2,1 1,2 					"/>
				</defs>
				<defs>
					<polygon id="SVGID_4_" points="-1,-1 -2,-1 -1,-2 					"/>
				</defs>
				<clipPath id="SVGID_5_">
					<use xlink:href="#SVGID_1_"  style="overflow:visible;"/>
				</clipPath>
				<clipPath id="SVGID_6_" class="st9">
					<use xlink:href="#SVGID_4_"  style="overflow:visible;"/>
				</clipPath>
				
					<linearGradient id="SVGID_7_" gradientUnits="userSpaceOnUse" x1="191.4779" y1="169.6873" x2="251.584" y2="191.5642" gradientTransform="matrix(1 0 0 -1 0 272)">
					<stop  offset="0" style="stop-color:#595959"/>
					<stop  offset="1" style="stop-color:#000000"/>
				</linearGradient>
				<path class="st10" d="M232.7,184.1L160.4,16.8h56.8c8.6,0,15.5,6.3,15.5,14L232.7,184.1L232.7,184.1z"/>
			</g>
		</g>
		
			<linearGradient id="SVGID_8_" gradientUnits="userSpaceOnUse" x1="191.4779" y1="169.6873" x2="251.584" y2="191.5642" gradientTransform="matrix(1 0 0 -1 0 272)">
			<stop  offset="0" style="stop-color:#FFFFFF"/>
			<stop  offset="1" style="stop-color:#FFFFFF"/>
		</linearGradient>
		<path class="st11" d="M232.7,184.1L160.4,16.8h56.8c8.6,0,15.5,6.3,15.5,14L232.7,184.1L232.7,184.1z"/>
		<g>
			<g>
				<defs>
					<polygon id="SVGID_9_" points="1,1 2,1 1,2 					"/>
				</defs>
				<defs>
					<polygon id="SVGID_10_" points="-1,-1 -2,-1 -1,-2 					"/>
				</defs>
				<clipPath id="SVGID_11_">
					<use xlink:href="#SVGID_9_"  style="overflow:visible;"/>
				</clipPath>
				<clipPath id="SVGID_12_" class="st12">
					<use xlink:href="#SVGID_10_"  style="overflow:visible;"/>
				</clipPath>
				
					<linearGradient id="SVGID_13_" gradientUnits="userSpaceOnUse" x1="168.045" y1="246.231" x2="172.439" y2="246.231" gradientTransform="matrix(1 0 0 -1 0 272)">
					<stop  offset="0" style="stop-color:#000000"/>
					<stop  offset="1" style="stop-color:#FFFFFF"/>
				</linearGradient>
				<ellipse class="st13" cx="170.2" cy="25.8" rx="2.2" ry="2"/>
			</g>
		</g>
		
			<linearGradient id="SVGID_14_" gradientUnits="userSpaceOnUse" x1="168.045" y1="246.231" x2="172.439" y2="246.231" gradientTransform="matrix(1 0 0 -1 0 272)">
			<stop  offset="0" style="stop-color:#3C4958"/>
			<stop  offset="1" style="stop-color:#3C4958"/>
		</linearGradient>
		<ellipse class="st14" cx="170.2" cy="25.8" rx="2.2" ry="2"/>
		<path class="st15" d="M171.4,25.8c0,0.6-0.5,1.1-1.2,1.1s-1.2-0.5-1.2-1.1s0.5-1.1,1.2-1.1C170.9,24.7,171.4,25.2,171.4,25.8z"/>
	</g>
	<path class="st16" d="M104.5,226.2c-29.4,2.7-57.6-7.9-65.4-38.9c-5.1-20.9-4-43.6,5.1-63.2c3.8-8.8,10.8-15.6,19.1-20.2
		C80.8,93,99,81.6,116.7,70.8c0.1-0.1,0.2-0.2,0.3-0.2l0,0c9.6-5.3,18.5-12.2,28.7-16.1c11.8-3.3,17.3,12.7,11,21.1
		c-2.1,3.5-4.8,6.4-7.8,9c-10.3,8.8-20.4,17.9-31.6,25.7c-3.7,3.8-10,5.6-12.8,10C104.5,155.6,104.5,190.9,104.5,226.2z M252,209.1
		L252,209.1c0-7.6-6.2-13.8-13.8-13.8h-22.3c-7.6,0-13.8,6.2-13.8,13.8l0,0c0,7.6,6.2,13.8,13.8,13.8h22.3
		C245.8,222.8,252,216.7,252,209.1z M252,175.1L252,175.1c0-7.6-6.2-13.8-13.8-13.8h-22.3c-7.6,0-13.8,6.2-13.8,13.8l0,0
		c0,7.6,6.2,13.8,13.8,13.8h22.3C245.8,188.9,252,182.7,252,175.1z M252,141L252,141c0-7.6-6.2-13.8-13.8-13.8h-22.3
		c-7.6,0-13.8,6.2-13.8,13.8l0,0c0,7.6,6.2,13.8,13.8,13.8h22.3C245.8,154.8,252,148.6,252,141z M252,108.6L252,108.6
		c0-7.6-6.2-13.8-13.8-13.8h-22.3c-7.6,0-13.8,6.2-13.8,13.8l0,0c0,7.6,6.2,13.8,13.8,13.8h22.3C245.8,122.4,252,116.2,252,108.6z"
		/>
</g>
</svg>
