<?xml version="1.0" encoding="utf-8"?>
<!-- Generator: Adobe Illustrator 25.0.0, SVG Export Plug-In . SVG Version: 6.00 Build 0)  -->
<svg version="1.1" id="Layer_1" xmlns="http://www.w3.org/2000/svg" xmlns:xlink="http://www.w3.org/1999/xlink" x="0px" y="0px"
	 viewBox="0 0 288 270" style="enable-background:new 0 0 288 270;" xml:space="preserve">
<style type="text/css">
	.st0{fill:none;}
	.st1{fill:url(#SVGID_2_);}
	.st2{clip-path:url(#SVGID_8_);}
	.st3{clip-path:url(#SVGID_9_);fill:url(#SVGID_10_);}
	.st4{fill:url(#SVGID_11_);}
	.st5{clip-path:url(#SVGID_14_);}
	.st6{clip-path:url(#SVGID_15_);fill:url(#SVGID_16_);}
	.st7{fill:url(#SVGID_17_);}
	.st8{fill:url(#SVGID_18_);}
	.st9{clip-path:url(#SVGID_21_);}
	.st10{clip-path:url(#SVGID_22_);fill:url(#SVGID_23_);}
	.st11{fill:url(#SVGID_24_);}
	.st12{fill:#247EA9;}
	.st13{fill:url(#SVGID_25_);}
	.st14{fill:#1D516F;}
	.st15{clip-path:url(#SVGID_28_);}
	.st16{clip-path:url(#SVGID_29_);fill:url(#SVGID_30_);}
	.st17{opacity:0.25;fill:url(#SVGID_31_);}
</style>
<g>
	<path class="st0" d="M148.9,261.6h27.9c0,0,7.4,0.1,7.8-0.7"/>
	
		<linearGradient id="SVGID_2_" gradientUnits="userSpaceOnUse" x1="148.9325" y1="10.3836" x2="148.9325" y2="42.631" gradientTransform="matrix(1 0 0 -1 0 272)">
		<stop  offset="0" style="stop-color:#4D4D4D"/>
		<stop  offset="0.1972" style="stop-color:#707070"/>
		<stop  offset="0.2128" style="stop-color:#636363"/>
		<stop  offset="0.2414" style="stop-color:#424242"/>
		<stop  offset="0.2526" style="stop-color:#333333"/>
		<stop  offset="0.293" style="stop-color:#333333"/>
		<stop  offset="0.3064" style="stop-color:#3D3D3D"/>
		<stop  offset="0.3291" style="stop-color:#575757"/>
		<stop  offset="0.3583" style="stop-color:#818281"/>
		<stop  offset="0.3924" style="stop-color:#BBBCBB"/>
		<stop  offset="0.4056" style="stop-color:#D4D5D4"/>
		<stop  offset="0.4455" style="stop-color:#E8E8E8"/>
		<stop  offset="0.4732" style="stop-color:#F0F0F0"/>
		<stop  offset="0.5472" style="stop-color:#D2D2D2"/>
		<stop  offset="0.7588" style="stop-color:#828282"/>
		<stop  offset="0.9092" style="stop-color:#505050"/>
		<stop  offset="0.9831" style="stop-color:#3D3D3D"/>
	</linearGradient>
	<path class="st1" d="M175.3,253.7c-2.3-3.4-3.3-24.3-3.3-24.3h-23h-0.1h-23c0,0-0.9,20.9-3.3,24.3c-2.2,2.9-9.8,6.4-9.3,7.2
		c0.5,0.8,7.8,0.7,7.8,0.7h27.8h0.1h27.8c0,0,7.4,0.1,7.8-0.7C185.1,260.1,177.5,256.6,175.3,253.7z"/>
	<g>
		<g>
			<defs>
				<polygon id="SVGID_5_" points="1,1 2,1 1,2 				"/>
			</defs>
			<defs>
				<polygon id="SVGID_7_" points="-1,-1 -2,-1 -1,-2 				"/>
			</defs>
			<clipPath id="SVGID_8_">
				<use xlink:href="#SVGID_5_"  style="overflow:visible;"/>
			</clipPath>
			<clipPath id="SVGID_9_" class="st2">
				<use xlink:href="#SVGID_7_"  style="overflow:visible;"/>
			</clipPath>
			
				<linearGradient id="SVGID_10_" gradientUnits="userSpaceOnUse" x1="122.7954" y1="36.0955" x2="183.1331" y2="7.9595" gradientTransform="matrix(1 0 0 -1 0 272)">
				<stop  offset="0.7455" style="stop-color:#000000"/>
				<stop  offset="0.7613" style="stop-color:#040404"/>
				<stop  offset="0.7784" style="stop-color:#121212"/>
				<stop  offset="0.7962" style="stop-color:#272727"/>
				<stop  offset="0.8145" style="stop-color:#464646"/>
				<stop  offset="0.8332" style="stop-color:#6D6D6D"/>
				<stop  offset="0.8521" style="stop-color:#9D9D9D"/>
				<stop  offset="0.871" style="stop-color:#D5D5D5"/>
				<stop  offset="0.8836" style="stop-color:#FFFFFF"/>
				<stop  offset="0.9343" style="stop-color:#FFFFFF"/>
			</linearGradient>
			<path class="st3" d="M175.3,253.7c-2.3-3.4-3.3-24.3-3.3-24.3h-23h-0.1h-23c0,0-0.9,20.9-3.3,24.3c-2.2,2.9-9.8,6.4-9.3,7.2
				c0.5,0.8,7.8,0.7,7.8,0.7h27.8h0.1h27.8c0,0,7.4,0.1,7.8-0.7C185.1,260.1,177.5,256.6,175.3,253.7z"/>
		</g>
	</g>
	
		<linearGradient id="SVGID_11_" gradientUnits="userSpaceOnUse" x1="122.7954" y1="36.0955" x2="183.1331" y2="7.9595" gradientTransform="matrix(1 0 0 -1 0 272)">
		<stop  offset="0.7455" style="stop-color:#E3E4E2"/>
		<stop  offset="0.8088" style="stop-color:#DFE0DE"/>
		<stop  offset="0.8776" style="stop-color:#D2D3D2"/>
		<stop  offset="0.8836" style="stop-color:#D1D1D1"/>
		<stop  offset="0.9343" style="stop-color:#E6E6E6"/>
	</linearGradient>
	<path class="st4" d="M175.3,253.7c-2.3-3.4-3.3-24.3-3.3-24.3h-23h-0.1h-23c0,0-0.9,20.9-3.3,24.3c-2.2,2.9-9.8,6.4-9.3,7.2
		c0.5,0.8,7.8,0.7,7.8,0.7h27.8h0.1h27.8c0,0,7.4,0.1,7.8-0.7C185.1,260.1,177.5,256.6,175.3,253.7z"/>
	<g>
		<g>
			<defs>
				<polygon id="SVGID_12_" points="1,1 2,1 1,2 				"/>
			</defs>
			<defs>
				<polygon id="SVGID_13_" points="-1,-1 -2,-1 -1,-2 				"/>
			</defs>
			<clipPath id="SVGID_14_">
				<use xlink:href="#SVGID_12_"  style="overflow:visible;"/>
			</clipPath>
			<clipPath id="SVGID_15_" class="st5">
				<use xlink:href="#SVGID_13_"  style="overflow:visible;"/>
			</clipPath>
			
				<linearGradient id="SVGID_16_" gradientUnits="userSpaceOnUse" x1="169.9222" y1="44.3896" x2="130.1192" y2="-3.0458" gradientTransform="matrix(1 0 0 -1 0 272)">
				<stop  offset="0.7155" style="stop-color:#000000"/>
				<stop  offset="0.7367" style="stop-color:#040404"/>
				<stop  offset="0.7598" style="stop-color:#121212"/>
				<stop  offset="0.7838" style="stop-color:#272727"/>
				<stop  offset="0.8084" style="stop-color:#464646"/>
				<stop  offset="0.8335" style="stop-color:#6D6D6D"/>
				<stop  offset="0.8591" style="stop-color:#9D9D9D"/>
				<stop  offset="0.8844" style="stop-color:#D5D5D5"/>
				<stop  offset="0.9014" style="stop-color:#FFFFFF"/>
				<stop  offset="0.9596" style="stop-color:#FFFFFF"/>
			</linearGradient>
			<path class="st6" d="M175.3,253.7c-2.3-3.4-3.3-24.3-3.3-24.3h-23h-0.1h-23c0,0-0.9,20.9-3.3,24.3c-2.2,2.9-9.8,6.4-9.3,7.2
				c0.5,0.8,7.8,0.7,7.8,0.7h27.8h0.1h27.8c0,0,7.4,0.1,7.8-0.7C185.1,260.1,177.5,256.6,175.3,253.7z"/>
		</g>
	</g>
	
		<linearGradient id="SVGID_17_" gradientUnits="userSpaceOnUse" x1="169.9222" y1="44.3896" x2="130.1192" y2="-3.0458" gradientTransform="matrix(1 0 0 -1 0 272)">
		<stop  offset="0.7155" style="stop-color:#E3E4E2"/>
		<stop  offset="0.8007" style="stop-color:#DFE0DE"/>
		<stop  offset="0.8934" style="stop-color:#D2D3D2"/>
		<stop  offset="0.9014" style="stop-color:#D1D1D1"/>
		<stop  offset="0.9596" style="stop-color:#E6E6E6"/>
	</linearGradient>
	<path class="st7" d="M175.3,253.7c-2.3-3.4-3.3-24.3-3.3-24.3h-23h-0.1h-23c0,0-0.9,20.9-3.3,24.3c-2.2,2.9-9.8,6.4-9.3,7.2
		c0.5,0.8,7.8,0.7,7.8,0.7h27.8h0.1h27.8c0,0,7.4,0.1,7.8-0.7C185.1,260.1,177.5,256.6,175.3,253.7z"/>
	<path class="st0" d="M149,261.6h-27.9c0,0-7.4,0.1-7.8-0.7"/>
	
		<linearGradient id="SVGID_18_" gradientUnits="userSpaceOnUse" x1="148.9325" y1="9.3914" x2="148.9325" y2="11.122" gradientTransform="matrix(1 0 0 -1 0 272)">
		<stop  offset="0" style="stop-color:#6B6B6B"/>
		<stop  offset="7.000000e-02" style="stop-color:#6F6F6F"/>
		<stop  offset="0.1372" style="stop-color:#7B7B7B"/>
		<stop  offset="0.2034" style="stop-color:#8E8E8E"/>
		<stop  offset="0.2689" style="stop-color:#A9A9A9"/>
		<stop  offset="0.3334" style="stop-color:#CCCCCC"/>
		<stop  offset="0.3737" style="stop-color:#E6E6E6"/>
		<stop  offset="0.4564" style="stop-color:#D0D1D1"/>
		<stop  offset="0.6168" style="stop-color:#ABACAD"/>
		<stop  offset="0.7659" style="stop-color:#909293"/>
		<stop  offset="0.8982" style="stop-color:#808383"/>
		<stop  offset="1" style="stop-color:#7A7D7E"/>
	</linearGradient>
	<path class="st8" d="M176.8,261.6H149h-0.1h-27.8c0,0-7.4,0.1-7.8-0.7v0.8c0.6,1.1,7.8,0.9,7.8,0.9h27.8h0.1h27.8
		c0,0,7.3,0.2,7.8-0.9v-0.8C184.1,261.7,176.8,261.6,176.8,261.6z"/>
	<g>
		<g>
			<defs>
				<polygon id="SVGID_19_" points="1,1 2,1 1,2 				"/>
			</defs>
			<defs>
				<polygon id="SVGID_20_" points="-1,-1 -2,-1 -1,-2 				"/>
			</defs>
			<clipPath id="SVGID_21_">
				<use xlink:href="#SVGID_19_"  style="overflow:visible;"/>
			</clipPath>
			<clipPath id="SVGID_22_" class="st9">
				<use xlink:href="#SVGID_20_"  style="overflow:visible;"/>
			</clipPath>
			
				<linearGradient id="SVGID_23_" gradientUnits="userSpaceOnUse" x1="113.258" y1="10.2567" x2="184.607" y2="10.2567" gradientTransform="matrix(1 0 0 -1 0 272)">
				<stop  offset="0" style="stop-color:#FFFFFF"/>
				<stop  offset="1.700000e-02" style="stop-color:#FBFBFB"/>
				<stop  offset="3.340000e-02" style="stop-color:#F0F0F0"/>
				<stop  offset="4.950000e-02" style="stop-color:#DCDCDC"/>
				<stop  offset="6.540000e-02" style="stop-color:#C1C1C1"/>
				<stop  offset="8.130000e-02" style="stop-color:#9E9E9E"/>
				<stop  offset="9.710000e-02" style="stop-color:#737373"/>
				<stop  offset="0.1128" style="stop-color:#404040"/>
				<stop  offset="0.1281" style="stop-color:#060606"/>
				<stop  offset="0.1296" style="stop-color:#000000"/>
				<stop  offset="0.8563" style="stop-color:#000000"/>
				<stop  offset="0.8793" style="stop-color:#3F3F3F"/>
				<stop  offset="0.9032" style="stop-color:#787878"/>
				<stop  offset="0.9264" style="stop-color:#A9A9A9"/>
				<stop  offset="0.9482" style="stop-color:#CECECE"/>
				<stop  offset="0.9684" style="stop-color:#E9E9E9"/>
				<stop  offset="0.9863" style="stop-color:#F9F9F9"/>
				<stop  offset="1" style="stop-color:#FFFFFF"/>
			</linearGradient>
			<path class="st10" d="M176.8,261.6H149h-0.1h-27.8c0,0-7.4,0.1-7.8-0.7v0.8c0.6,1.1,7.8,0.9,7.8,0.9h27.8h0.1h27.8
				c0,0,7.3,0.2,7.8-0.9v-0.8C184.1,261.7,176.8,261.6,176.8,261.6z"/>
		</g>
	</g>
	
		<linearGradient id="SVGID_24_" gradientUnits="userSpaceOnUse" x1="113.258" y1="10.2567" x2="184.607" y2="10.2567" gradientTransform="matrix(1 0 0 -1 0 272)">
		<stop  offset="0" style="stop-color:#595959"/>
		<stop  offset="2.270000e-02" style="stop-color:#5D5D5D"/>
		<stop  offset="4.460000e-02" style="stop-color:#696969"/>
		<stop  offset="6.600000e-02" style="stop-color:#7C7C7C"/>
		<stop  offset="8.730000e-02" style="stop-color:#979797"/>
		<stop  offset="0.1084" style="stop-color:#BABABA"/>
		<stop  offset="0.1292" style="stop-color:#E5E5E5"/>
		<stop  offset="0.1296" style="stop-color:#E6E6E6"/>
		<stop  offset="0.8563" style="stop-color:#E3E4E2"/>
		<stop  offset="0.8597" style="stop-color:#DEDFDD"/>
		<stop  offset="0.893" style="stop-color:#AFAFAE"/>
		<stop  offset="0.9248" style="stop-color:#898A89"/>
		<stop  offset="0.954" style="stop-color:#6F6F6F"/>
		<stop  offset="0.98" style="stop-color:#5F5F5F"/>
		<stop  offset="1" style="stop-color:#595959"/>
	</linearGradient>
	<path class="st11" d="M176.8,261.6H149h-0.1h-27.8c0,0-7.4,0.1-7.8-0.7v0.8c0.6,1.1,7.8,0.9,7.8,0.9h27.8h0.1h27.8
		c0,0,7.3,0.2,7.8-0.9v-0.8C184.1,261.7,176.8,261.6,176.8,261.6z"/>
	<path class="st12" d="M261.4,68.2H104.2c0.9,2.5,1.6,5.2,2,7.9h152.9v124.5H38.7v-69.9c-2.7-0.7-5.4-1.6-7.9-2.7v80.4H267V73.8
		C267,70.7,264.5,68.2,261.4,68.2z"/>
	
		<linearGradient id="SVGID_25_" gradientUnits="userSpaceOnUse" x1="30.822" y1="52.6455" x2="267" y2="52.6455" gradientTransform="matrix(1 0 0 -1 0 272)">
		<stop  offset="0" style="stop-color:#8F8F8F"/>
		<stop  offset="0.2181" style="stop-color:#959595"/>
		<stop  offset="0.5174" style="stop-color:#A7A7A7"/>
		<stop  offset="0.8623" style="stop-color:#C4C4C4"/>
		<stop  offset="1" style="stop-color:#D1D1D1"/>
	</linearGradient>
	<path class="st13" d="M261.3,230.3H36.5c-3.2,0-5.7-2.6-5.7-5.7v-16.1H267v16.1C267,227.7,264.4,230.3,261.3,230.3z"/>
	<path class="st12" d="M218.8,84.1c33.5,0.8,32,50-0.6,49.8C186.1,132.6,186.3,84.5,218.8,84.1z M213.6,114c1,3.4-2.1,10.5,2.9,11.2
		c9.3,1.6,7.2-4.6,7.3-11.2c5.8-0.2,12.8,1.9,11.3-6.6c0.1-5.6-7.6-2.8-11.3-3.5c-0.2-6.5,2-12.9-7.3-11.3c-5,0.7-2.1,7.8-2.9,11.3
		c-3.6,0.7-10.6-2.2-11.2,3C200.9,116,207.3,113.8,213.6,114z"/>
	<path class="st14" d="M137.4,145.2c-5.7-6.1-9.8-13.4-11-21.8c-1.8-13.5,2.5-30.8,18.1-33c33.9-8.2,41,36.9,19.7,55.1
		c10.3,3.4,21.4,6.2,29.1,14.4c6.5,7,5.2,18.4-0.7,25.4c-6,6.9-15.2,9.7-23.9,11.1c-18.7,2.2-39.6,2.4-56.1-7.9
		c-10.7-6.8-13.9-22.4-3.2-31.5C117.3,150.3,127.6,147.8,137.4,145.2z M137.8,149.2c-9.3,1.4-19.3,4.4-26,11.4
		c-5.3,5.3-5.9,14.4-0.5,19.9c9.4,9.4,23.6,11.6,36.4,12.2c13.3,0,28.1-0.2,39.2-8.4c10.1-8.3,6.6-21.5-2.8-27.4
		c-5.6-4-12.1-6-18.8-7.5c1.6,15.6-5.5,30.6-14.4,42.9C140.5,179.6,135.9,165.4,137.8,149.2z M172.6,120.1c0.3-4.7-3.3-8.7-7.9-9.2
		c-3.9-0.6-7.2-2.2-10-5.1c-3-3.2-6.1-2.3-8.8,0.6c-8.7,8.5-17.5,0.6-15.3,12c0.3,1.9,0.8,3.9,1.1,5.8c0.4,8.7,5,16.3,12.4,20.8
		C158.6,153.8,171.7,132.6,172.6,120.1z M163.6,149c-1-0.1-1.9-0.3-2.8-0.4c-1.6,0.5-2.9,1.7-4.4,2.3c-4.7,2.4-10.3,0.7-14.4-2.1
		c-0.8-0.6-2.9,0.2-4,0.2c0,0.1,0,0.1,0,0.2c1.8,0.9,3.3,1.6,3,3.9c-0.1,6.5,1,12.9,2.4,19.2c1.2-3.4,1.8-7,2.7-10.4
		c0.6-2.8,1-2.6-0.8-5.5c-0.4-0.6-1.1-3.1,0.4-2.5c0.7,0.3,1.3,1,2,1c1.9,0,3.8,0,5.6,0c1.3,0.3,2.6-1.7,3.1,0.1
		c0.5,1.6-0.7,2.7-1.9,3.6c-0.6,0.5-0.8,1.1-0.6,1.8c1.3,4.7,2.3,9.5,3.7,14.1c2.1-7.5,4.3-15,5.2-22.8
		C162.9,150.8,162.7,149.9,163.6,149z M178.2,170.6c0-2.5,0-4.9,0-7.2c-1.7,0-3.3,0-4.9,0c0,2.4,0,4.8,0,7.3c-2.4,0-4.8,0-7.2,0
		c0,1.7,0,3.2,0,4.9c2.4,0,4.8,0,7.3,0c0,2.4,0,4.8,0,7.2c1.6,0,3.2,0,4.9,0c0-2.4,0-4.8,0-7.3c2.5,0,4.9,0,7.3,0c0-1.6,0-3.2,0-4.9
		C183.1,170.6,180.7,170.6,178.2,170.6z"/>
	<g>
		<path class="st12" d="M92.6,121.3c3.4,4,6.8,8,10.3,12.1c-25.1-1.4-55.4,6.5-74.8-12.7c-26.1-23-10.8-68,24.8-72.5
			C96.6,40.5,124.7,92.4,92.6,121.3z M88.7,121.1c32.6-27,6.5-78.2-36.4-70.1c-39,6.2-47.1,58.6-11.6,75c17.2,8.1,37.5,3.5,56.1,4.6
			C94.1,127.4,91.4,124.2,88.7,121.1z"/>
		<path class="st12" d="M59.2,94.7c-7.9,0.1-7.9-12.4,0.1-12.2C67.3,82.4,67.1,94.8,59.2,94.7z"/>
		<path class="st12" d="M36.3,88.6c-0.2-7.9,12.2-8,12.2-0.2C48.8,96.5,36.3,96.6,36.3,88.6z"/>
		<path class="st12" d="M76.1,82.4c7.9-0.2,8,12.4,0,12.2C68.2,94.8,68.2,82.3,76.1,82.4z"/>
	</g>
	<g>
		<g>
			<defs>
				<polygon id="SVGID_26_" points="1,1 2,1 1,2 				"/>
			</defs>
			<defs>
				<polygon id="SVGID_27_" points="-1,-1 -2,-1 -1,-2 				"/>
			</defs>
			<clipPath id="SVGID_28_">
				<use xlink:href="#SVGID_26_"  style="overflow:visible;"/>
			</clipPath>
			<clipPath id="SVGID_29_" class="st15">
				<use xlink:href="#SVGID_27_"  style="overflow:visible;"/>
			</clipPath>
			
				<linearGradient id="SVGID_30_" gradientUnits="userSpaceOnUse" x1="171.5379" y1="126.4927" x2="276.4751" y2="144.9959" gradientTransform="matrix(1 0 0 -1 0 272)">
				<stop  offset="0" style="stop-color:#808080"/>
				<stop  offset="0.1283" style="stop-color:#606060"/>
				<stop  offset="0.2954" style="stop-color:#3D3D3D"/>
				<stop  offset="0.4657" style="stop-color:#222222"/>
				<stop  offset="0.6383" style="stop-color:#0F0F0F"/>
				<stop  offset="0.8145" style="stop-color:#040404"/>
				<stop  offset="1" style="stop-color:#000000"/>
			</linearGradient>
			<path class="st16" d="M252.6,208.4H267V73.8c0-3.1-2.5-5.6-5.6-5.6H157.9L252.6,208.4z"/>
		</g>
	</g>
	
		<linearGradient id="SVGID_31_" gradientUnits="userSpaceOnUse" x1="171.5379" y1="126.4927" x2="276.4751" y2="144.9959" gradientTransform="matrix(1 0 0 -1 0 272)">
		<stop  offset="0" style="stop-color:#FFFFFF"/>
		<stop  offset="2.760000e-02" style="stop-color:#FFFFFF"/>
		<stop  offset="1" style="stop-color:#FFFFFF"/>
	</linearGradient>
	<path class="st17" d="M252.6,208.4H267V73.8c0-3.1-2.5-5.6-5.6-5.6H157.9L252.6,208.4z"/>
</g>
</svg>
